<svg width="140" height="37" viewBox="0 0 140 37" fill="none" xmlns="http://www.w3.org/2000/svg">
<g clip-path="url(#clip0_7191_57588)">
<path d="M114.168 14.5203C114.168 16.1259 113.881 17.4523 113.308 18.6392C112.735 19.8259 111.874 20.6637 110.871 21.292C109.867 21.9202 108.65 22.2693 107.359 22.2693C106.069 22.2693 104.851 21.9202 103.848 21.292C102.844 20.6637 101.984 19.7562 101.411 18.6392C100.837 17.4523 100.551 16.1259 100.551 14.5203C100.551 12.9146 100.837 11.5882 101.411 10.4014C101.984 9.21464 102.844 8.3769 103.848 7.7486C104.851 7.1203 106.069 6.77124 107.359 6.77124C108.65 6.77124 109.867 7.1203 110.871 7.7486C111.874 8.3769 112.735 9.28445 113.308 10.4014C113.881 11.5882 114.168 12.9146 114.168 14.5203ZM112.377 14.5203C112.377 13.1938 112.161 12.0769 111.731 11.2392C111.301 10.4014 110.656 9.63351 109.939 9.21464C109.223 8.79577 108.363 8.51653 107.359 8.51653C106.428 8.51653 105.568 8.72596 104.779 9.21464C103.991 9.70332 103.418 10.3316 102.988 11.2392C102.557 12.1467 102.342 13.2637 102.342 14.5203C102.342 15.8467 102.557 16.9637 102.988 17.8014C103.418 18.709 104.063 19.4071 104.779 19.8259C105.496 20.2448 106.356 20.5241 107.359 20.5241C108.291 20.5241 109.151 20.3146 109.939 19.8259C110.728 19.3373 111.301 18.709 111.731 17.8014C112.161 16.9637 112.377 15.8467 112.377 14.5203Z" fill="#3C85E8"/>
<path d="M118.897 15.2886V22.0604H117.105V10.7509H118.826V12.4962H118.969C119.255 11.9377 119.686 11.4491 120.188 11.1C120.689 10.7509 121.478 10.5415 122.338 10.5415C123.125 10.5415 123.843 10.6812 124.416 11.0301C124.989 11.3094 125.491 11.7982 125.778 12.4264C126.136 13.0547 126.279 13.8227 126.279 14.8V21.9906H124.487V15.0094C124.487 14.1019 124.273 13.4037 123.771 12.9151C123.27 12.4264 122.624 12.1471 121.836 12.1471C121.262 12.1471 120.761 12.2868 120.331 12.4962C119.901 12.7056 119.543 13.0547 119.255 13.5434C118.969 14.0321 118.897 14.5906 118.897 15.2886Z" fill="#3C85E8"/>
<path d="M134.448 22.3393C133.302 22.3393 132.37 22.1299 131.582 21.6412C130.793 21.1526 130.149 20.4545 129.719 19.6168C129.289 18.779 129.074 17.7318 129.074 16.545C129.074 15.3583 129.289 14.3809 129.719 13.4733C130.149 12.5658 130.793 11.8677 131.582 11.379C132.37 10.8903 133.302 10.6111 134.305 10.6111C134.879 10.6111 135.524 10.6809 136.097 10.8903C136.671 11.0998 137.244 11.379 137.674 11.8677C138.175 12.2866 138.535 12.9148 138.821 13.6129C139.108 14.3111 139.251 15.2186 139.251 16.2657V17.0338H130.292V15.4978H137.459C137.459 14.8696 137.316 14.3111 137.101 13.8224C136.886 13.3338 136.455 12.9148 136.025 12.6356C135.524 12.3563 135.023 12.2168 134.377 12.2168C133.661 12.2168 133.088 12.3563 132.513 12.7054C132.012 13.0545 131.582 13.4733 131.296 14.0318C131.009 14.5903 130.866 15.1488 130.866 15.7771V16.7545C130.866 17.5922 131.009 18.3602 131.296 18.9186C131.582 19.4771 132.012 19.9657 132.585 20.245C133.159 20.5242 133.732 20.7338 134.448 20.7338C134.951 20.7338 135.309 20.6639 135.739 20.5242C136.169 20.3847 136.455 20.1753 136.743 19.9657C137.029 19.6866 137.244 19.4073 137.387 18.9884L139.108 19.4771C138.893 20.0356 138.606 20.5242 138.175 20.9432C137.746 21.362 137.244 21.7111 136.599 21.9205C135.882 22.1998 135.237 22.3393 134.448 22.3393Z" fill="#3C85E8"/>
<path d="M78.7618 15.4283C78.6184 14.2415 78.1167 13.3339 77.2567 12.7057C76.325 12.0773 75.1066 11.7283 73.6017 11.7283C72.5266 11.7283 71.6665 11.8679 70.9499 12.1472C70.2332 12.4264 69.6598 12.8452 69.3015 13.3339C68.9431 13.8227 68.7281 14.3812 68.7281 15.0094C68.7281 15.5679 68.7998 15.9867 69.0865 16.4057C69.3731 16.8245 69.6598 17.1736 70.1615 17.4528C70.5915 17.7321 71.0932 18.0113 71.7383 18.2207C72.3116 18.4301 72.9566 18.5698 73.6017 18.7792L76.325 19.4075C77.6867 19.6867 78.8334 20.1056 79.9801 20.5943C81.0552 21.083 82.0585 21.6415 82.8469 22.3396C83.6352 23.0377 84.2803 23.8755 84.7103 24.8528C85.1403 25.8301 85.3553 26.8773 85.427 28.1339C85.427 29.9491 84.9253 31.4849 83.9936 32.8113C83.0619 34.1377 81.7002 35.1849 79.9801 35.883C78.1885 36.5811 76.11 37 73.6017 37C71.1649 37 69.0148 36.6509 67.2231 35.883C65.4314 35.1849 63.998 34.0679 62.9947 32.6019C61.9913 31.1358 61.418 29.3906 61.418 27.2264H67.6531C67.7248 28.2037 68.0114 29.0415 68.5131 29.7395C69.0148 30.3679 69.7315 30.9264 70.5916 31.2056C71.4515 31.5547 72.455 31.6943 73.6017 31.6943C74.6766 31.6943 75.6083 31.5547 76.4684 31.2056C77.2567 30.9264 77.9017 30.4377 78.3317 29.9491C78.7618 29.4603 78.9768 28.7622 78.9768 28.0641C78.9768 27.366 78.7618 26.8076 78.4034 26.3886C77.9735 25.9698 77.4001 25.5509 76.6834 25.2019C75.8951 24.8528 74.9633 24.5736 73.8883 24.3641L70.5916 23.5264C68.0114 22.8981 66.0048 21.9906 64.4997 20.6641C62.9947 19.3377 62.2779 17.6622 62.2779 15.4283C62.2779 13.6131 62.7797 12.0773 63.783 10.7509C64.7863 9.4245 66.148 8.37734 67.8681 7.60941C69.5881 6.84149 71.5949 6.49243 73.8167 6.49243C76.0383 6.49243 78.0451 6.84149 79.7651 7.60941C81.4852 8.37734 82.7752 9.4245 83.7069 10.7509C84.6387 12.0773 85.1403 13.6131 85.1403 15.4283H78.7618Z" fill="black"/>
<path d="M39.3477 36.5809V6.91113H45.7979V31.0658H58.8415V36.5111H39.3477V36.5809Z" fill="black"/>
<path d="M7.95523 0H0V7.74905H7.95523V0Z" fill="#3C85E8"/>
<path d="M18.7758 7.05103H18.6325H18.5607H13.6873V13.334H18.6325C23.3626 13.334 27.1611 17.1038 27.1611 21.7114C27.1611 26.3189 23.2909 30.0888 18.5607 30.0888H13.6873V13.334H7.09375V36.3717H8.74214H18.7758C27.0177 36.3019 33.6829 29.7397 33.6829 21.7114C33.6829 13.6831 27.0177 7.19065 18.7758 7.05103Z" fill="black"/>
</g>
<defs>
<clipPath id="clip0_7191_57588">
<rect width="140" height="37" fill="white"/>
</clipPath>
</defs>
</svg>
