<svg width="67" height="14" viewBox="0 0 67 14" fill="none" xmlns="http://www.w3.org/2000/svg">
<path d="M4.01855 13H1.28516L1.30273 11.251H4.01855C4.80957 11.251 5.47168 11.0781 6.00488 10.7324C6.54395 10.3867 6.94824 9.8916 7.21777 9.24707C7.49316 8.60254 7.63086 7.83496 7.63086 6.94434V6.25C7.63086 5.55859 7.55176 4.94629 7.39355 4.41309C7.24121 3.87988 7.0127 3.43164 6.70801 3.06836C6.40918 2.70508 6.04004 2.42969 5.60059 2.24219C5.16699 2.05469 4.66602 1.96094 4.09766 1.96094H1.23242V0.203125H4.09766C4.94727 0.203125 5.72363 0.34668 6.42676 0.633789C7.12988 0.915039 7.73633 1.32227 8.24609 1.85547C8.76172 2.38867 9.15723 3.02734 9.43262 3.77148C9.70801 4.51562 9.8457 5.34766 9.8457 6.26758V6.94434C9.8457 7.86426 9.70801 8.69629 9.43262 9.44043C9.15723 10.1846 8.76172 10.8232 8.24609 11.3564C7.73047 11.8838 7.11523 12.291 6.40039 12.5781C5.69141 12.8594 4.89746 13 4.01855 13ZM2.50684 0.203125V13H0.300781V0.203125H2.50684ZM20.0762 11.251V13H13.6514V11.251H20.0762ZM14.2666 0.203125V13H12.0605V0.203125H14.2666ZM28.5137 9.7041C28.5137 9.44043 28.4727 9.20605 28.3906 9.00098C28.3145 8.7959 28.1768 8.6084 27.9775 8.43848C27.7783 8.26855 27.4971 8.10449 27.1338 7.94629C26.7764 7.78223 26.3193 7.61523 25.7627 7.44531C25.1533 7.25781 24.5908 7.0498 24.0752 6.82129C23.5654 6.58691 23.1201 6.31738 22.7393 6.0127C22.3584 5.70215 22.0625 5.34766 21.8516 4.94922C21.6406 4.54492 21.5352 4.0791 21.5352 3.55176C21.5352 3.03027 21.6436 2.55566 21.8604 2.12793C22.083 1.7002 22.3965 1.33105 22.8008 1.02051C23.2109 0.704102 23.6943 0.460937 24.251 0.291016C24.8076 0.115234 25.4229 0.0273438 26.0967 0.0273438C27.0459 0.0273438 27.8633 0.203125 28.5488 0.554688C29.2402 0.90625 29.7705 1.37793 30.1396 1.96973C30.5146 2.56152 30.7021 3.21484 30.7021 3.92969H28.5137C28.5137 3.50781 28.4229 3.13574 28.2412 2.81348C28.0654 2.48535 27.7959 2.22754 27.4326 2.04004C27.0752 1.85254 26.6211 1.75879 26.0703 1.75879C25.5488 1.75879 25.1152 1.83789 24.7695 1.99609C24.4238 2.1543 24.166 2.36816 23.9961 2.6377C23.8262 2.90723 23.7412 3.21191 23.7412 3.55176C23.7412 3.79199 23.7969 4.01172 23.9082 4.21094C24.0195 4.4043 24.1895 4.58594 24.418 4.75586C24.6465 4.91992 24.9336 5.0752 25.2793 5.22168C25.625 5.36816 26.0322 5.50879 26.501 5.64355C27.21 5.85449 27.8281 6.08887 28.3555 6.34668C28.8828 6.59863 29.3223 6.88574 29.6738 7.20801C30.0254 7.53027 30.2891 7.89648 30.4648 8.30664C30.6406 8.71094 30.7285 9.1709 30.7285 9.68652C30.7285 10.2256 30.6201 10.7119 30.4033 11.1455C30.1865 11.5732 29.876 11.9395 29.4717 12.2441C29.0732 12.543 28.5928 12.7744 28.0303 12.9385C27.4736 13.0967 26.8525 13.1758 26.167 13.1758C25.5518 13.1758 24.9453 13.0938 24.3477 12.9297C23.7559 12.7656 23.2168 12.5166 22.7305 12.1826C22.2441 11.8428 21.8574 11.4209 21.5703 10.917C21.2832 10.4072 21.1396 9.8125 21.1396 9.13281H23.3457C23.3457 9.54883 23.416 9.90332 23.5566 10.1963C23.7031 10.4893 23.9053 10.7295 24.1631 10.917C24.4209 11.0986 24.7197 11.2334 25.0596 11.3213C25.4053 11.4092 25.7744 11.4531 26.167 11.4531C26.6826 11.4531 27.1133 11.3799 27.459 11.2334C27.8105 11.0869 28.0742 10.8818 28.25 10.6182C28.4258 10.3545 28.5137 10.0498 28.5137 9.7041ZM46.9355 5.91602V7.28711C46.9355 8.18359 46.8184 8.99512 46.584 9.72168C46.3555 10.4424 46.0215 11.0605 45.582 11.5762C45.1484 12.0918 44.627 12.4873 44.0176 12.7627C43.4082 13.0381 42.7227 13.1758 41.9609 13.1758C41.2168 13.1758 40.5371 13.0381 39.9219 12.7627C39.3125 12.4873 38.7881 12.0918 38.3486 11.5762C37.9092 11.0605 37.5693 10.4424 37.3291 9.72168C37.0889 8.99512 36.9688 8.18359 36.9688 7.28711V5.91602C36.9688 5.01953 37.0859 4.21094 37.3203 3.49023C37.5605 2.76367 37.9004 2.14258 38.3398 1.62695C38.7793 1.11133 39.3037 0.71582 39.9131 0.44043C40.5225 0.165039 41.1992 0.0273438 41.9434 0.0273438C42.7051 0.0273438 43.3906 0.165039 44 0.44043C44.6094 0.71582 45.1338 1.11133 45.5732 1.62695C46.0127 2.14258 46.3496 2.76367 46.584 3.49023C46.8184 4.21094 46.9355 5.01953 46.9355 5.91602ZM45.8633 7.28711V5.89844C45.8633 5.14258 45.7754 4.46289 45.5996 3.85938C45.4297 3.25586 45.1748 2.74023 44.835 2.3125C44.501 1.88477 44.0908 1.55664 43.6045 1.32812C43.1182 1.09961 42.5645 0.985352 41.9434 0.985352C41.3398 0.985352 40.7979 1.09961 40.3174 1.32812C39.8369 1.55664 39.4268 1.88477 39.0869 2.3125C38.7529 2.74023 38.4951 3.25586 38.3135 3.85938C38.1377 4.46289 38.0498 5.14258 38.0498 5.89844V7.28711C38.0498 8.04883 38.1377 8.73438 38.3135 9.34375C38.4951 9.94727 38.7559 10.4658 39.0957 10.8994C39.4355 11.3271 39.8457 11.6553 40.3262 11.8838C40.8125 12.1123 41.3574 12.2266 41.9609 12.2266C42.5879 12.2266 43.1416 12.1123 43.6221 11.8838C44.1025 11.6553 44.5098 11.3271 44.8438 10.8994C45.1777 10.4658 45.4297 9.94727 45.5996 9.34375C45.7754 8.73438 45.8633 8.04883 45.8633 7.28711ZM50.4688 5.52051V13H49.4229V3.49023H50.4248L50.4688 5.52051ZM50.2314 7.65625L49.7656 7.39258C49.8008 6.83008 49.915 6.30273 50.1084 5.81055C50.3018 5.31836 50.5625 4.88477 50.8906 4.50977C51.2246 4.13477 51.6143 3.8418 52.0596 3.63086C52.5107 3.41992 53.0088 3.31445 53.5537 3.31445C54.0283 3.31445 54.4531 3.37891 54.8281 3.50781C55.2031 3.63672 55.5225 3.8418 55.7861 4.12305C56.0498 4.4043 56.249 4.76465 56.3838 5.2041C56.5244 5.64355 56.5947 6.17969 56.5947 6.8125V13H55.54V6.80371C55.54 6.14746 55.4492 5.63477 55.2676 5.26562C55.0859 4.89062 54.8281 4.62402 54.4941 4.46582C54.1602 4.30762 53.7646 4.22852 53.3076 4.22852C52.8037 4.22852 52.3613 4.33984 51.9805 4.5625C51.6055 4.7793 51.2891 5.06348 51.0312 5.41504C50.7793 5.76074 50.5859 6.13281 50.4512 6.53125C50.3164 6.92383 50.2432 7.29883 50.2314 7.65625ZM62.9932 13.1758C62.3721 13.1758 61.8008 13.0615 61.2793 12.833C60.7637 12.6045 60.3125 12.2822 59.9258 11.8662C59.5449 11.4502 59.249 10.958 59.0381 10.3896C58.833 9.81543 58.7305 9.18848 58.7305 8.50879V8.13086C58.7305 7.39844 58.8389 6.73633 59.0557 6.14453C59.2725 5.55273 59.5713 5.0459 59.9521 4.62402C60.333 4.20215 60.7666 3.87988 61.2529 3.65723C61.7451 3.42871 62.2607 3.31445 62.7998 3.31445C63.4033 3.31445 63.9395 3.42285 64.4082 3.63965C64.877 3.85059 65.2695 4.15234 65.5859 4.54492C65.9082 4.93164 66.1514 5.3916 66.3154 5.9248C66.4795 6.45215 66.5615 7.03516 66.5615 7.67383V8.31543H59.3633V7.41895H65.5156V7.2959C65.5039 6.7627 65.3955 6.26465 65.1904 5.80176C64.9912 5.33301 64.6924 4.95215 64.2939 4.65918C63.8955 4.36621 63.3975 4.21973 62.7998 4.21973C62.3545 4.21973 61.9443 4.31348 61.5693 4.50098C61.2002 4.68848 60.8809 4.95801 60.6113 5.30957C60.3477 5.65527 60.1426 6.06836 59.9961 6.54883C59.8555 7.02344 59.7852 7.55078 59.7852 8.13086V8.50879C59.7852 9.03613 59.8613 9.52832 60.0137 9.98535C60.1719 10.4365 60.3945 10.835 60.6816 11.1807C60.9746 11.5264 61.3203 11.7959 61.7188 11.9893C62.1172 12.1826 62.5566 12.2793 63.0371 12.2793C63.5996 12.2793 64.0977 12.1768 64.5312 11.9717C64.9648 11.7607 65.3545 11.4297 65.7002 10.9785L66.3594 11.4883C66.1543 11.793 65.8965 12.0742 65.5859 12.332C65.2812 12.5898 64.915 12.7949 64.4873 12.9473C64.0596 13.0996 63.5615 13.1758 62.9932 13.1758Z" fill="white"/>
</svg>
