<svg width="104" height="31" viewBox="0 0 104 31" fill="none" xmlns="http://www.w3.org/2000/svg">
<rect y="18" width="6" height="2" rx="1" transform="rotate(-90 0 18)" fill="#E6E6E6"/>
<rect x="66" y="18" width="6" height="2" rx="1" transform="rotate(-90 66 18)" fill="#E6E6E6"/>
<rect x="33" y="18" width="6" height="2" rx="1" transform="rotate(-90 33 18)" fill="#E6E6E6"/>
<rect x="99" y="18" width="6" height="2" rx="1" transform="rotate(-90 99 18)" fill="#E6E6E6"/>
<rect x="9" y="18" width="6" height="2" rx="1" transform="rotate(-90 9 18)" fill="#E6E6E6"/>
<rect x="75" y="18" width="6" height="2" rx="1" transform="rotate(-90 75 18)" fill="#E6E6E6"/>
<rect x="42" y="18" width="6" height="2" rx="1" transform="rotate(-90 42 18)" fill="#E6E6E6"/>
<rect x="18" y="18" width="6" height="2" rx="1" transform="rotate(-90 18 18)" fill="#E6E6E6"/>
<rect x="84" y="18" width="6" height="2" rx="1" transform="rotate(-90 84 18)" fill="#E6E6E6"/>
<rect x="51" y="18" width="6" height="2" rx="1" transform="rotate(-90 51 18)" fill="#E6E6E6"/>
<rect x="21" y="18" width="6" height="2" rx="1" transform="rotate(-90 21 18)" fill="#E6E6E6"/>
<rect x="87" y="18" width="6" height="2" rx="1" transform="rotate(-90 87 18)" fill="#E6E6E6"/>
<rect x="54" y="18" width="6" height="2" rx="1" transform="rotate(-90 54 18)" fill="#E6E6E6"/>
<rect x="24" y="20" width="10" height="2" rx="1" transform="rotate(-90 24 20)" fill="#E6E6E6"/>
<rect x="90" y="20" width="10" height="2" rx="1" transform="rotate(-90 90 20)" fill="#E6E6E6"/>
<rect x="57" y="20" width="10" height="2" rx="1" transform="rotate(-90 57 20)" fill="#E6E6E6"/>
<rect x="27" y="20" width="10" height="2" rx="1" transform="rotate(-90 27 20)" fill="#E6E6E6"/>
<rect x="93" y="20" width="10" height="2" rx="1" transform="rotate(-90 93 20)" fill="#E6E6E6"/>
<rect x="60" y="20" width="10" height="2" rx="1" transform="rotate(-90 60 20)" fill="#E6E6E6"/>
<rect x="30" y="23" width="16" height="2" rx="1" transform="rotate(-90 30 23)" fill="#E6E6E6"/>
<rect x="96" y="23" width="16" height="2" rx="1" transform="rotate(-90 96 23)" fill="#E6E6E6"/>
<rect x="63" y="23" width="16" height="2" rx="1" transform="rotate(-90 63 23)" fill="#E6E6E6"/>
<rect x="3" y="21" width="12" height="2" rx="1" transform="rotate(-90 3 21)" fill="#E6E6E6"/>
<rect x="69" y="21" width="12" height="2" rx="1" transform="rotate(-90 69 21)" fill="#E6E6E6"/>
<rect x="36" y="21" width="12" height="2" rx="1" transform="rotate(-90 36 21)" fill="#E6E6E6"/>
<rect x="102" y="21" width="12" height="2" rx="1" transform="rotate(-90 102 21)" fill="#E6E6E6"/>
<rect x="6" y="24" width="18" height="2" rx="1" transform="rotate(-90 6 24)" fill="#E6E6E6"/>
<rect x="72" y="24" width="18" height="2" rx="1" transform="rotate(-90 72 24)" fill="#E6E6E6"/>
<rect x="39" y="24" width="18" height="2" rx="1" transform="rotate(-90 39 24)" fill="#E6E6E6"/>
<rect x="12" y="24" width="18" height="2" rx="1" transform="rotate(-90 12 24)" fill="#E6E6E6"/>
<rect x="78" y="24" width="18" height="2" rx="1" transform="rotate(-90 78 24)" fill="#E6E6E6"/>
<rect x="45" y="24" width="18" height="2" rx="1" transform="rotate(-90 45 24)" fill="#E6E6E6"/>
<rect x="15" y="31" width="31" height="2" rx="1" transform="rotate(-90 15 31)" fill="#E6E6E6"/>
<rect x="81" y="31" width="31" height="2" rx="1" transform="rotate(-90 81 31)" fill="#E6E6E6"/>
<rect x="48" y="31" width="31" height="2" rx="1" transform="rotate(-90 48 31)" fill="#E6E6E6"/>
</svg>
