<svg width="18" height="18" viewBox="0 0 18 18" fill="none" xmlns="http://www.w3.org/2000/svg">
<path d="M11.7207 4.2806C11.8996 4.45834 12 4.69877 12 4.94938C12 5.19999 11.8996 5.44042 11.7207 5.61816L8.32043 9.02372L11.7207 12.3818C11.8996 12.5596 12 12.8 12 13.0506C12 13.3012 11.8996 13.5417 11.7207 13.7194C11.6314 13.8083 11.5252 13.8789 11.4081 13.927C11.2911 13.9752 11.1655 14 11.0387 14C10.9119 14 10.7864 13.9752 10.6693 13.927C10.5523 13.8789 10.446 13.8083 10.3567 13.7194L6.28412 9.69724C6.19409 9.60905 6.12264 9.50413 6.07387 9.38853C6.02511 9.27294 6 9.14895 6 9.02372C6 8.89849 6.02511 8.7745 6.07387 8.6589C6.12264 8.5433 6.19409 8.43838 6.28412 8.35019L10.3567 4.2806C10.446 4.19169 10.5523 4.12112 10.6693 4.07296C10.7864 4.0248 10.9119 4 11.0387 4C11.1655 4 11.2911 4.0248 11.4081 4.07296C11.5252 4.12112 11.6314 4.19169 11.7207 4.2806Z" fill="#B3B3B3"/>
</svg>
