<?xml version="1.0" encoding="UTF-8" standalone="no"?>
<svg
   width="18"
   height="18"
   viewBox="0 0 18 18"
   fill="none"
   version="1.1"
   id="svg4"
   sodipodi:docname="angle-up.svg"
   inkscape:version="1.2 (dc2aedaf03, 2022-05-15)"
   xmlns:inkscape="http://www.inkscape.org/namespaces/inkscape"
   xmlns:sodipodi="http://sodipodi.sourceforge.net/DTD/sodipodi-0.dtd"
   xmlns="http://www.w3.org/2000/svg"
   xmlns:svg="http://www.w3.org/2000/svg">
  <defs
     id="defs8" />
  <sodipodi:namedview
     id="namedview6"
     pagecolor="#ffffff"
     bordercolor="#666666"
     borderopacity="1.0"
     inkscape:showpageshadow="2"
     inkscape:pageopacity="0.0"
     inkscape:pagecheckerboard="0"
     inkscape:deskcolor="#d1d1d1"
     showgrid="false"
     inkscape:zoom="50.833333"
     inkscape:cx="8.9901639"
     inkscape:cy="9"
     inkscape:window-width="3840"
     inkscape:window-height="2095"
     inkscape:window-x="0"
     inkscape:window-y="32"
     inkscape:window-maximized="1"
     inkscape:current-layer="svg4" />
  <path
     d="M 4.2806,11.72069 C 4.4583,11.89959 4.6988,12 4.9494,12 5.2,12 5.4404,11.89959 5.6182,11.72069 l 3.40552,-3.40026 3.35812,3.40026 C 12.55958,11.89959 12.80001,12 13.05062,12 c 0.25061,0 0.49104,-0.10041 0.66878,-0.27931 0.08891,-0.0893 0.15948,-0.19553 0.20764,-0.31258 C 13.9752,11.29106 14,11.16552 14,11.03871 14,10.91191 13.9752,10.78637 13.92704,10.66932 13.87888,10.55227 13.80831,10.44604 13.7194,10.35674 L 9.69724,6.2841 C 9.60905,6.1941 9.50413,6.1226 9.38853,6.0739 9.27294,6.0251 9.14895,6 9.02372,6 8.89849,6 8.7745,6.0251 8.6589,6.0739 8.5433,6.1226 8.43838,6.1941 8.35019,6.2841 L 4.2806,10.35674 C 4.1917,10.44604 4.1211,10.55227 4.073,10.66932 4.0248,10.78637 4,10.91191 4,11.03871 c 0,0.12681 0.0248,0.25235 0.073,0.3694 0.0481,0.11705 0.1187,0.22328 0.2076,0.31258 z"
     fill="#000000"
     id="path2" />
</svg>
