<svg width="18" height="18" viewBox="0 0 18 18" fill="none" xmlns="http://www.w3.org/2000/svg">
<path d="M13.7194 6.27931C13.5417 6.10041 13.3012 6 13.0506 6C12.8 6 12.5596 6.10041 12.3818 6.27931L8.97628 9.67957L5.61816 6.27931C5.44042 6.10041 5.19999 6 4.94938 6C4.69877 6 4.45834 6.10041 4.2806 6.27931C4.19169 6.36861 4.12112 6.47484 4.07296 6.59189C4.0248 6.70894 4 6.83448 4 6.96129C4 7.08809 4.0248 7.21363 4.07296 7.33068C4.12112 7.44773 4.19169 7.55396 4.2806 7.64326L8.30276 11.7159C8.39095 11.8059 8.49587 11.8774 8.61147 11.9261C8.72706 11.9749 8.85105 12 8.97628 12C9.10151 12 9.2255 11.9749 9.3411 11.9261C9.4567 11.8774 9.56162 11.8059 9.64981 11.7159L13.7194 7.64326C13.8083 7.55396 13.8789 7.44773 13.927 7.33068C13.9752 7.21363 14 7.08809 14 6.96129C14 6.83448 13.9752 6.70894 13.927 6.59189C13.8789 6.47484 13.8083 6.36861 13.7194 6.27931Z" fill="black"/>
</svg>
