<svg width="18" height="18" viewBox="0 0 18 18" fill="none" xmlns="http://www.w3.org/2000/svg">
<path d="M8.25 13.976L8.02639 14.0878L8.25 14.535H8.75V14.285L9.75 13.785L8.25 13.976ZM8.25 13.976V10.5V13.976ZM2 4.62767V4.6275V3.75C2 3.28587 2.18437 2.84075 2.51256 2.51256C2.84075 2.18437 3.28587 2 3.75 2H14.25C14.7141 2 15.1592 2.18437 15.4874 2.51256C15.8156 2.84075 16 3.28587 16 3.75V4.61956C15.9919 4.85968 15.9344 5.09559 15.8311 5.31256L15.7825 5.41455V5.45986C15.7058 5.60864 15.6063 5.74471 15.4874 5.86304L15.4864 5.86395L10.8964 10.4539L10.75 10.6004V10.8075V14.249C10.7498 14.295 10.7369 14.34 10.7127 14.3791L11.138 14.642L10.7127 14.3792C10.6885 14.4183 10.654 14.45 10.613 14.4708C10.6128 14.4708 10.6127 14.4709 10.6125 14.471L7.61389 15.9703L7.61388 15.9703L7.6095 15.9725C7.57485 15.9903 7.53654 15.9997 7.49762 16C7.45141 16 7.40611 15.9872 7.36674 15.963C7.33105 15.9405 7.30163 15.9094 7.28122 15.8725C7.26066 15.8353 7.24991 15.7935 7.25 15.751V15.75V10.8075V10.5994L7.1024 10.4528L2.48265 5.86304C2.48263 5.86303 2.48262 5.86302 2.48261 5.863C2.36369 5.74468 2.26416 5.60862 2.1875 5.45986V5.42324L2.14583 5.32767C2.04956 5.10686 1.99992 4.86856 2 4.62767ZM6.75 10.8075V15.75C6.74974 15.8775 6.78198 16.0029 6.84365 16.1144C6.90533 16.226 6.99442 16.3199 7.1025 16.3875C7.22186 16.4615 7.35958 16.5005 7.5 16.5C7.61741 16.4993 7.73301 16.471 7.8375 16.4175L6.75 10.8075ZM10.25 10.5L10.25 10.4971C10.2498 10.4642 10.2561 10.4316 10.2685 10.4011C10.2809 10.371 10.299 10.3435 10.3218 10.3203C10.3221 10.32 10.3223 10.3198 10.3225 10.3196L14.2957 6.35389L15.1512 5.5H13.9425H4.0575H2.84878L3.70428 6.35389L7.67751 10.3196C7.67773 10.3198 7.67796 10.3201 7.67819 10.3203C7.70104 10.3435 7.71913 10.371 7.73145 10.4011C7.74389 10.4316 7.7502 10.4642 7.75001 10.4971H7.75V10.5V14.535V15.344L8.47361 14.9822L9.97361 14.2322L10.25 14.094V13.785L10.25 10.5ZM15 5H15.5V4.5V3.75C15.5 3.41848 15.3683 3.10054 15.1339 2.86612C14.8995 2.6317 14.5815 2.5 14.25 2.5H3.75C3.41848 2.5 3.10054 2.6317 2.86612 2.86612C2.6317 3.10054 2.5 3.41848 2.5 3.75V4.5V5H3H15Z" stroke="#808080"/>
</svg>
