<svg width="18" height="18" viewBox="0 0 18 18" fill="none" xmlns="http://www.w3.org/2000/svg">
<path d="M13.4404 4.965C13.3643 4.78174 13.2187 4.63611 13.0354 4.56C12.9453 4.52157 12.8485 4.50118 12.7504 4.5H5.25044C5.05153 4.5 4.86076 4.57902 4.72011 4.71967C4.57946 4.86032 4.50044 5.05109 4.50044 5.25C4.50044 5.44891 4.57946 5.63968 4.72011 5.78033C4.86076 5.92098 5.05153 6 5.25044 6H10.9429L4.71794 12.2175C4.64765 12.2872 4.59185 12.3702 4.55377 12.4616C4.5157 12.553 4.49609 12.651 4.49609 12.75C4.49609 12.849 4.5157 12.947 4.55377 13.0384C4.59185 13.1298 4.64765 13.2128 4.71794 13.2825C4.78766 13.3528 4.87062 13.4086 4.96201 13.4467C5.0534 13.4847 5.15143 13.5043 5.25044 13.5043C5.34945 13.5043 5.44748 13.4847 5.53888 13.4467C5.63027 13.4086 5.71322 13.3528 5.78294 13.2825L12.0004 7.0575V12.75C12.0004 12.9489 12.0795 13.1397 12.2201 13.2803C12.3608 13.421 12.5515 13.5 12.7504 13.5C12.9494 13.5 13.1401 13.421 13.2808 13.2803C13.4214 13.1397 13.5004 12.9489 13.5004 12.75V5.25C13.4993 5.15199 13.4789 5.05517 13.4404 4.965Z" fill="#3C85E8"/>
</svg>
