<svg width="18" height="18" viewBox="0 0 18 18" fill="none" xmlns="http://www.w3.org/2000/svg">
<path d="M11.1227 5.24925C11.2624 5.38977 11.3408 5.57986 11.3408 5.778C11.3408 5.97613 11.2624 6.16622 11.1227 6.30675L8.46773 8.99925L11.1227 11.6542C11.2624 11.7948 11.3408 11.9849 11.3408 12.183C11.3408 12.3811 11.2624 12.5712 11.1227 12.7117C11.053 12.782 10.9701 12.8378 10.8787 12.8759C10.7873 12.914 10.6892 12.9336 10.5902 12.9336C10.4912 12.9336 10.3932 12.914 10.3018 12.8759C10.2104 12.8378 10.1274 12.782 10.0577 12.7117L6.87773 9.53175C6.80743 9.46202 6.75163 9.37907 6.71356 9.28768C6.67548 9.19628 6.65588 9.09825 6.65588 8.99925C6.65588 8.90024 6.67548 8.80221 6.71356 8.71081C6.75163 8.61942 6.80743 8.53647 6.87773 8.46675L10.0577 5.24925C10.1274 5.17895 10.2104 5.12315 10.3018 5.08508C10.3932 5.047 10.4912 5.0274 10.5902 5.0274C10.6892 5.0274 10.7873 5.047 10.8787 5.08508C10.9701 5.12315 11.053 5.17895 11.1227 5.24925Z" fill="#808080"/>
</svg>
