<svg width="18" height="18" viewBox="0 0 18 18" fill="none" xmlns="http://www.w3.org/2000/svg">
<path d="M12.75 6.87825C12.6095 6.73856 12.4194 6.66016 12.2213 6.66016C12.0231 6.66016 11.833 6.73856 11.6925 6.87825L9.00002 9.53325L6.34502 6.87825C6.2045 6.73856 6.01441 6.66016 5.81627 6.66016C5.61813 6.66016 5.42804 6.73856 5.28752 6.87825C5.21723 6.94797 5.16143 7.03092 5.12335 7.12232C5.08528 7.21371 5.06567 7.31174 5.06567 7.41075C5.06567 7.50976 5.08528 7.60779 5.12335 7.69918C5.16143 7.79058 5.21723 7.87353 5.28752 7.94325L8.46752 11.1233C8.53724 11.1935 8.6202 11.2493 8.71159 11.2874C8.80298 11.3255 8.90101 11.3451 9.00002 11.3451C9.09903 11.3451 9.19706 11.3255 9.28846 11.2874C9.37985 11.2493 9.4628 11.1935 9.53252 11.1233L12.75 7.94325C12.8203 7.87353 12.8761 7.79058 12.9142 7.69918C12.9523 7.60779 12.9719 7.50976 12.9719 7.41075C12.9719 7.31174 12.9523 7.21371 12.9142 7.12232C12.8761 7.03092 12.8203 6.94797 12.75 6.87825Z" fill="#808080"/>
</svg>
