<svg width="18" height="18" viewBox="0 0 18 18" fill="none" xmlns="http://www.w3.org/2000/svg">
<path d="M6.87727 5.24925C6.73759 5.38977 6.65918 5.57986 6.65918 5.778C6.65918 5.97613 6.73759 6.16622 6.87727 6.30675L9.53227 8.99925L6.87727 11.6542C6.73759 11.7948 6.65918 11.9849 6.65918 12.183C6.65918 12.3811 6.73759 12.5712 6.87727 12.7117C6.947 12.782 7.02995 12.8378 7.12134 12.8759C7.21274 12.914 7.31077 12.9336 7.40977 12.9336C7.50878 12.9336 7.60681 12.914 7.69821 12.8759C7.7896 12.8378 7.87255 12.782 7.94227 12.7117L11.1223 9.53175C11.1926 9.46202 11.2484 9.37907 11.2864 9.28768C11.3245 9.19628 11.3441 9.09825 11.3441 8.99925C11.3441 8.90024 11.3245 8.80221 11.2864 8.71081C11.2484 8.61942 11.1926 8.53647 11.1223 8.46675L7.94227 5.24925C7.87255 5.17895 7.7896 5.12315 7.69821 5.08508C7.60681 5.047 7.50878 5.0274 7.40977 5.0274C7.31077 5.0274 7.21274 5.047 7.12134 5.08508C7.02995 5.12315 6.947 5.17895 6.87727 5.24925Z" fill="#808080"/>
</svg>
