<svg width="18" height="18" viewBox="0 0 18 18" fill="none" xmlns="http://www.w3.org/2000/svg">
<path d="M9.00033 1.5C7.84989 1.49995 6.71486 1.76456 5.68305 2.27335C4.65124 2.78214 3.7503 3.52148 3.04994 4.43417C2.34958 5.34686 1.86857 6.40843 1.64412 7.53676C1.41967 8.66509 1.4578 9.82993 1.75556 10.9412C2.05332 12.0524 2.60273 13.0802 3.36128 13.9452C4.11983 14.8101 5.06718 15.4889 6.13006 15.9292C7.19294 16.3694 8.34284 16.5592 9.49082 16.4839C10.6388 16.4086 11.7541 16.0703 12.7503 15.495C12.84 15.4481 12.9192 15.3836 12.9832 15.3053C13.0473 15.227 13.0948 15.1365 13.123 15.0394C13.1512 14.9423 13.1594 14.8404 13.1472 14.74C13.135 14.6396 13.1026 14.5427 13.052 14.4551C13.0014 14.3675 12.9336 14.2911 12.8527 14.2304C12.7717 14.1697 12.6794 14.126 12.5811 14.102C12.4829 14.0779 12.3808 14.074 12.281 14.0904C12.1812 14.1068 12.0857 14.1432 12.0003 14.1975C10.8565 14.8579 9.52679 15.1224 8.21734 14.95C6.90789 14.7777 5.69189 14.1781 4.75793 13.2442C3.82397 12.3104 3.22423 11.0944 3.05173 9.78501C2.87922 8.47557 3.1436 7.14581 3.80384 6.00193C4.46409 4.85806 5.48331 3.96399 6.70345 3.45839C7.92359 2.95279 9.27647 2.86391 10.5523 3.20553C11.8281 3.54715 12.9555 4.30018 13.7597 5.34784C14.564 6.39551 15 7.67925 15.0003 9V9.5625C15.0003 9.9106 14.862 10.2444 14.6159 10.4906C14.3698 10.7367 14.0359 10.875 13.6878 10.875C13.3397 10.875 13.0059 10.7367 12.7598 10.4906C12.5136 10.2444 12.3753 9.9106 12.3753 9.5625V6.375C12.3753 6.17609 12.2963 5.98532 12.1557 5.84467C12.015 5.70402 11.8242 5.625 11.6253 5.625C11.4509 5.62112 11.2806 5.67816 11.1437 5.7863C11.0068 5.89445 10.9119 6.04693 10.8753 6.2175C10.324 5.83618 9.67065 5.62972 9.00033 5.625C8.4357 5.61825 7.87841 5.75327 7.37948 6.0177C6.88056 6.28213 6.45596 6.66751 6.14456 7.13855C5.83316 7.60959 5.64493 8.15124 5.5971 8.71387C5.54927 9.27651 5.64337 9.84215 5.87078 10.359C6.09819 10.8758 6.45165 11.3274 6.89878 11.6722C7.34591 12.0171 7.87241 12.2442 8.43007 12.3329C8.98774 12.4216 9.55873 12.3689 10.0908 12.1797C10.6228 11.9905 11.0988 11.6708 11.4753 11.25C11.8317 11.7115 12.323 12.0505 12.8809 12.2198C13.4389 12.3891 14.0357 12.3803 14.5884 12.1947C15.1412 12.0091 15.6223 11.6558 15.965 11.1841C16.3076 10.7123 16.4947 10.1455 16.5003 9.5625V9C16.5003 8.01509 16.3063 7.03982 15.9294 6.12987C15.5525 5.21993 15.0001 4.39314 14.3036 3.6967C13.6072 3.00026 12.7804 2.44781 11.8705 2.0709C10.9605 1.69399 9.98524 1.5 9.00033 1.5ZM9.00033 10.875C8.62949 10.875 8.26698 10.765 7.95864 10.559C7.65029 10.353 7.40997 10.0601 7.26806 9.71753C7.12614 9.37492 7.08901 8.99792 7.16136 8.63421C7.23371 8.27049 7.41228 7.9364 7.6745 7.67417C7.93673 7.41195 8.27082 7.23337 8.63453 7.16103C8.99825 7.08868 9.37525 7.12581 9.71786 7.26773C10.0605 7.40964 10.3533 7.64996 10.5593 7.95831C10.7654 8.26665 10.8753 8.62916 10.8753 9C10.8753 9.49728 10.6778 9.97419 10.3262 10.3258C9.97452 10.6775 9.49761 10.875 9.00033 10.875Z" fill="#808080"/>
</svg>
