<svg width="18" height="18" viewBox="0 0 18 18" fill="none" xmlns="http://www.w3.org/2000/svg">
<path d="M12.375 7.125C12.375 6.78028 12.3071 6.43894 12.1752 6.12046C12.0433 5.80198 11.8499 5.5126 11.6062 5.26884C11.3624 5.02509 11.073 4.83173 10.7545 4.69982C10.4361 4.5679 10.0947 4.5 9.75 4.5H6.375C6.17609 4.5 5.98532 4.57902 5.84467 4.71967C5.70402 4.86032 5.625 5.05109 5.625 5.25V12.75C5.625 12.9489 5.70402 13.1397 5.84467 13.2803C5.98532 13.421 6.17609 13.5 6.375 13.5H9.75C10.2725 13.5023 10.7837 13.3481 11.2179 13.0574C11.652 12.7666 11.9892 12.3526 12.186 11.8686C12.3829 11.3845 12.4303 10.8527 12.3223 10.3415C12.2143 9.83024 11.9558 9.36304 11.58 9C11.8307 8.75619 12.0302 8.46473 12.1667 8.14274C12.3033 7.82075 12.3741 7.47473 12.375 7.125ZM9.75 12H7.125V9.75H9.75C10.0484 9.75 10.3345 9.86853 10.5455 10.0795C10.7565 10.2905 10.875 10.5766 10.875 10.875C10.875 11.1734 10.7565 11.4595 10.5455 11.6705C10.3345 11.8815 10.0484 12 9.75 12ZM9.75 8.25H7.125V6H9.75C10.0484 6 10.3345 6.11853 10.5455 6.3295C10.7565 6.54048 10.875 6.82663 10.875 7.125C10.875 7.42337 10.7565 7.70952 10.5455 7.9205C10.3345 8.13147 10.0484 8.25 9.75 8.25Z" fill="#808080"/>
</svg>
