<svg width="18" height="18" viewBox="0 0 18 18" fill="none" xmlns="http://www.w3.org/2000/svg">
<path d="M14.25 3.75H7.37251C6.77598 3.75053 6.20407 3.98792 5.78252 4.41L1.71752 8.4675C1.64722 8.53722 1.59142 8.62017 1.55335 8.71157C1.51527 8.80296 1.49567 8.90099 1.49567 9C1.49567 9.09901 1.51527 9.19704 1.55335 9.28843C1.59142 9.37983 1.64722 9.46278 1.71752 9.5325L5.78252 13.59C6.20407 14.0121 6.77598 14.2495 7.37251 14.25H14.25C14.8468 14.25 15.419 14.0129 15.841 13.591C16.263 13.169 16.5 12.5967 16.5 12V6C16.5 5.40326 16.263 4.83097 15.841 4.40901C15.419 3.98705 14.8468 3.75 14.25 3.75ZM15 12C15 12.1989 14.921 12.3897 14.7803 12.5303C14.6397 12.671 14.4489 12.75 14.25 12.75H7.37251C7.17394 12.7472 6.98374 12.6695 6.84001 12.5325L3.30752 9L6.84001 5.4675C6.98374 5.33045 7.17394 5.25276 7.37251 5.25H14.25C14.4489 5.25 14.6397 5.32902 14.7803 5.46967C14.921 5.61032 15 5.80109 15 6V12ZM12.5325 6.9675C12.4628 6.8972 12.3798 6.84141 12.2884 6.80333C12.1971 6.76525 12.099 6.74565 12 6.74565C11.901 6.74565 11.803 6.76525 11.7116 6.80333C11.6202 6.84141 11.5372 6.8972 11.4675 6.9675L10.5 7.9425L9.53251 6.9675C9.39129 6.82627 9.19974 6.74693 9.00001 6.74693C8.80029 6.74693 8.60874 6.82627 8.46751 6.9675C8.32629 7.10873 8.24695 7.30027 8.24695 7.5C8.24695 7.69973 8.32629 7.89127 8.46751 8.0325L9.44251 9L8.46751 9.9675C8.39722 10.0372 8.34142 10.1202 8.30335 10.2116C8.26527 10.303 8.24567 10.401 8.24567 10.5C8.24567 10.599 8.26527 10.697 8.30335 10.7884C8.34142 10.8798 8.39722 10.9628 8.46751 11.0325C8.53724 11.1028 8.62019 11.1586 8.71158 11.1967C8.80298 11.2347 8.90101 11.2543 9.00001 11.2543C9.09902 11.2543 9.19705 11.2347 9.28845 11.1967C9.37984 11.1586 9.46279 11.1028 9.53251 11.0325L10.5 10.0575L11.4675 11.0325C11.5372 11.1028 11.6202 11.1586 11.7116 11.1967C11.803 11.2347 11.901 11.2543 12 11.2543C12.099 11.2543 12.1971 11.2347 12.2884 11.1967C12.3798 11.1586 12.4628 11.1028 12.5325 11.0325C12.6028 10.9628 12.6586 10.8798 12.6967 10.7884C12.7348 10.697 12.7544 10.599 12.7544 10.5C12.7544 10.401 12.7348 10.303 12.6967 10.2116C12.6586 10.1202 12.6028 10.0372 12.5325 9.9675L11.5575 9L12.5325 8.0325C12.6028 7.96278 12.6586 7.87983 12.6967 7.78843C12.7348 7.69704 12.7544 7.59901 12.7544 7.5C12.7544 7.40099 12.7348 7.30296 12.6967 7.21157C12.6586 7.12017 12.6028 7.03722 12.5325 6.9675Z" fill="black"/>
</svg>
