<svg width="18" height="18" viewBox="0 0 18 18" fill="none" xmlns="http://www.w3.org/2000/svg">
<path d="M11.7207 13.7194C11.8996 13.5417 12 13.3012 12 13.0506C12 12.8 11.8996 12.5596 11.7207 12.3818L8.32043 8.97628L11.7207 5.61816C11.8996 5.44042 12 5.19999 12 4.94938C12 4.69877 11.8996 4.45834 11.7207 4.2806C11.6314 4.19169 11.5252 4.12112 11.4081 4.07296C11.2911 4.0248 11.1655 4 11.0387 4C10.9119 4 10.7864 4.0248 10.6693 4.07296C10.5523 4.12112 10.446 4.19169 10.3567 4.2806L6.28412 8.30276C6.19409 8.39095 6.12264 8.49587 6.07387 8.61147C6.02511 8.72706 6 8.85105 6 8.97628C6 9.10151 6.02511 9.2255 6.07387 9.3411C6.12264 9.4567 6.19409 9.56162 6.28412 9.64981L10.3567 13.7194C10.446 13.8083 10.5523 13.8789 10.6693 13.927C10.7864 13.9752 10.9119 14 11.0387 14C11.1655 14 11.2911 13.9752 11.4081 13.927C11.5252 13.8789 11.6314 13.8083 11.7207 13.7194Z" fill="black"/>
</svg>
