<svg width="18" height="18" viewBox="0 0 18 18" fill="none" xmlns="http://www.w3.org/2000/svg">
<path d="M8.30249 4.58999C8.52986 4.52866 8.76449 4.49838 8.99999 4.49999C9.79564 4.49999 10.5587 4.81606 11.1213 5.37867C11.6839 5.94128 12 6.70434 12 7.49999V8.50499C12 8.7039 12.079 8.89466 12.2197 9.03532C12.3603 9.17597 12.5511 9.25499 12.75 9.25499C12.9489 9.25499 13.1397 9.17597 13.2803 9.03532C13.421 8.89466 13.5 8.7039 13.5 8.50499V7.49999C13.4989 6.43733 13.1218 5.40934 12.4354 4.59807C11.7491 3.7868 10.7978 3.2446 9.74999 3.06749V2.24999C9.74999 2.05107 9.67097 1.86031 9.53032 1.71966C9.38966 1.579 9.1989 1.49999 8.99999 1.49999C8.80107 1.49999 8.61031 1.579 8.46966 1.71966C8.329 1.86031 8.24999 2.05107 8.24999 2.24999V3.07499L7.91249 3.13499C7.71954 3.1867 7.55504 3.31295 7.45518 3.48595C7.35532 3.65895 7.32827 3.86454 7.37999 4.05749C7.4317 4.25043 7.55795 4.41493 7.73095 4.51479C7.90395 4.61466 8.10954 4.6417 8.30249 4.58999ZM16.2825 15.2175L2.78249 1.71749C2.64126 1.57626 2.44971 1.49692 2.24999 1.49692C2.05026 1.49692 1.85871 1.57626 1.71749 1.71749C1.57626 1.85871 1.49692 2.05026 1.49692 2.24999C1.49692 2.44971 1.57626 2.64126 1.71749 2.78249L4.80749 5.86499C4.60426 6.38614 4.49998 6.94061 4.49999 7.49999V9.88499C4.06232 10.0397 3.68324 10.326 3.41469 10.7047C3.14615 11.0833 3.00129 11.5358 2.99999 12V13.5C2.99999 13.6989 3.079 13.8897 3.21966 14.0303C3.36031 14.171 3.55107 14.25 3.74999 14.25H6.10499C6.2777 14.8855 6.65474 15.4465 7.17793 15.8465C7.70113 16.2465 8.34141 16.4632 8.99999 16.4632C9.65856 16.4632 10.2988 16.2465 10.822 15.8465C11.3452 15.4465 11.7223 14.8855 11.895 14.25H13.1925L15.2175 16.2825C15.2872 16.3528 15.3702 16.4086 15.4616 16.4467C15.5529 16.4847 15.651 16.5043 15.75 16.5043C15.849 16.5043 15.947 16.4847 16.0384 16.4467C16.1298 16.4086 16.2128 16.3528 16.2825 16.2825C16.3528 16.2128 16.4086 16.1298 16.4467 16.0384C16.4847 15.947 16.5043 15.849 16.5043 15.75C16.5043 15.651 16.4847 15.5529 16.4467 15.4616C16.4086 15.3702 16.3528 15.2872 16.2825 15.2175ZM5.99999 7.49999C5.98854 7.36272 5.98854 7.22475 5.99999 7.08749L8.69249 9.74999H5.99999V7.49999ZM8.99999 15C8.73822 14.9984 8.48142 14.9283 8.25511 14.7968C8.0288 14.6652 7.84087 14.4767 7.70999 14.25H10.29C10.1591 14.4767 9.97117 14.6652 9.74486 14.7968C9.51856 14.9283 9.26176 14.9984 8.99999 15ZM4.49999 12.75V12C4.49999 11.8011 4.579 11.6103 4.71966 11.4697C4.86031 11.329 5.05107 11.25 5.24999 11.25H10.1925L11.6925 12.75H4.49999Z" fill="black"/>
</svg>
