<svg width="18" height="18" viewBox="0 0 18 18" fill="none" xmlns="http://www.w3.org/2000/svg">
<path d="M13.5 9.885V7.5C13.4989 6.43734 13.1218 5.40935 12.4355 4.59808C11.7491 3.78681 10.7978 3.24461 9.75 3.0675V2.25C9.75 2.05109 9.67098 1.86032 9.53033 1.71967C9.38968 1.57902 9.19891 1.5 9 1.5C8.80109 1.5 8.61032 1.57902 8.46967 1.71967C8.32902 1.86032 8.25 2.05109 8.25 2.25V3.0675C7.2022 3.24461 6.25089 3.78681 5.56454 4.59808C4.87818 5.40935 4.50108 6.43734 4.5 7.5V9.885C4.06234 10.0397 3.68325 10.3261 3.4147 10.7047C3.14616 11.0834 3.0013 11.5358 3 12L3 13.5C3 13.6989 3.07902 13.8897 3.21967 14.0303C3.36032 14.171 3.55109 14.25 3.75 14.25H6.105C6.27771 14.8855 6.65475 15.4466 7.17795 15.8466C7.70114 16.2465 8.34142 16.4633 9 16.4633C9.65858 16.4633 10.2989 16.2465 10.8221 15.8466C11.3452 15.4466 11.7223 14.8855 11.895 14.25H14.25C14.4489 14.25 14.6397 14.171 14.7803 14.0303C14.921 13.8897 15 13.6989 15 13.5V12C14.9987 11.5358 14.8538 11.0834 14.5853 10.7047C14.3168 10.3261 13.9377 10.0397 13.5 9.885Z" fill="black"/>
</svg>
