<svg width="18" height="18" viewBox="0 0 18 18" fill="none" xmlns="http://www.w3.org/2000/svg">
<path fill-rule="evenodd" clip-rule="evenodd" d="M14.2346 2.223C14.1626 2.223 14.0905 2.205 14.0275 2.169C12.2992 1.278 10.8049 0.9 9.0135 0.9C7.23113 0.9 5.53879 1.323 3.99947 2.169C3.78343 2.286 3.51337 2.205 3.38735 1.989C3.27032 1.773 3.35134 1.494 3.56738 1.377C5.24173 0.468 7.0781 0 9.0135 0C10.9309 0 12.6052 0.423 14.4416 1.368C14.6667 1.485 14.7477 1.755 14.6306 1.971C14.5496 2.133 14.3966 2.223 14.2346 2.223ZM1.35293 6.948C1.26291 6.948 1.17289 6.921 1.09188 6.867C0.884834 6.723 0.839824 6.444 0.983854 6.237C1.87504 4.977 3.00927 3.987 4.35954 3.294C7.18612 1.836 10.8049 1.827 13.6404 3.285C14.9907 3.978 16.125 4.959 17.0161 6.21C17.1602 6.408 17.1152 6.696 16.9081 6.84C16.7011 6.984 16.422 6.939 16.278 6.732C15.4678 5.598 14.4416 4.707 13.2264 4.086C10.6428 2.763 7.33915 2.763 4.76463 4.095C3.54038 4.725 2.51417 5.625 1.704 6.759C1.63199 6.885 1.49696 6.948 1.35293 6.948ZM6.97908 17.811C6.86206 17.811 6.74503 17.766 6.66402 17.676C5.88086 16.893 5.45777 16.389 4.85465 15.3C4.23352 14.193 3.90945 12.843 3.90945 11.394C3.90945 8.721 6.19592 6.543 9.0045 6.543C11.8131 6.543 14.0995 8.721 14.0995 11.394C14.0995 11.646 13.9015 11.844 13.6494 11.844C13.3974 11.844 13.1994 11.646 13.1994 11.394C13.1994 9.216 11.318 7.443 9.0045 7.443C6.69102 7.443 4.80964 9.216 4.80964 11.394C4.80964 12.69 5.0977 13.887 5.64681 14.859C6.22293 15.894 6.61901 16.335 7.31215 17.037C7.48318 17.217 7.48318 17.496 7.31215 17.676C7.21313 17.766 7.0961 17.811 6.97908 17.811ZM13.4334 16.146C12.3622 16.146 11.417 15.876 10.6428 15.345C9.30156 14.436 8.50039 12.96 8.50039 11.394C8.50039 11.142 8.69843 10.944 8.95048 10.944C9.20254 10.944 9.40058 11.142 9.40058 11.394C9.40058 12.663 10.0487 13.86 11.1469 14.598C11.7861 15.03 12.5332 15.237 13.4334 15.237C13.6494 15.237 14.0095 15.21 14.3696 15.147C14.6126 15.102 14.8467 15.264 14.8917 15.516C14.9367 15.759 14.7747 15.993 14.5226 16.038C14.0095 16.137 13.5594 16.146 13.4334 16.146ZM11.624 18C11.588 18 11.543 17.991 11.507 17.982C10.0757 17.586 9.13952 17.055 8.15832 16.092C6.89806 14.841 6.20492 13.176 6.20492 11.394C6.20492 9.936 7.44718 8.748 8.97749 8.748C10.5078 8.748 11.7501 9.936 11.7501 11.394C11.7501 12.357 12.5872 13.14 13.6224 13.14C14.6577 13.14 15.4948 12.357 15.4948 11.394C15.4948 8.001 12.5692 5.247 8.96849 5.247C6.41196 5.247 4.07149 6.669 3.01827 8.874C2.6672 9.603 2.48716 10.458 2.48716 11.394C2.48716 12.096 2.55017 13.203 3.09028 14.643C3.1803 14.877 3.06328 15.138 2.82923 15.219C2.59518 15.309 2.33413 15.183 2.25311 14.958C1.81202 13.779 1.59598 12.609 1.59598 11.394C1.59598 10.314 1.80302 9.333 2.2081 8.478C3.40535 5.967 6.06089 4.338 8.96849 4.338C13.0643 4.338 16.395 7.497 16.395 11.385C16.395 12.843 15.1528 14.031 13.6224 14.031C12.0921 14.031 10.8499 12.843 10.8499 11.385C10.8499 10.422 10.0127 9.639 8.97749 9.639C7.94228 9.639 7.10511 10.422 7.10511 11.385C7.10511 12.924 7.69923 14.364 8.78845 15.444C9.64363 16.29 10.4628 16.758 11.7321 17.109C11.9751 17.172 12.1101 17.424 12.0471 17.658C12.0021 17.865 11.8131 18 11.624 18Z" fill="black"/>
</svg>
