<svg width="40" height="40" viewBox="0 0 40 40" fill="none" xmlns="http://www.w3.org/2000/svg">
<path fill-rule="evenodd" clip-rule="evenodd" d="M36.4624 11.717C36.3735 11.717 36.2846 11.695 36.2068 11.651C34.0731 10.562 32.2282 10.1 30.0167 10.1C27.8162 10.1 25.7269 10.617 23.8265 11.651C23.5598 11.794 23.2264 11.695 23.0708 11.431C22.9263 11.167 23.0264 10.826 23.2931 10.683C25.3602 9.572 27.6273 9 30.0167 9C32.3838 9 34.4509 9.517 36.718 10.672C36.9959 10.815 37.0959 11.145 36.9514 11.409C36.8514 11.607 36.6625 11.717 36.4624 11.717ZM20.5592 17.492C20.448 17.492 20.3369 17.459 20.2369 17.393C19.9813 17.217 19.9257 16.876 20.1035 16.623C21.2038 15.083 22.604 13.873 24.2711 13.026C27.7607 11.244 32.2282 11.233 35.7289 13.015C37.396 13.862 38.7962 15.061 39.8965 16.59C40.0743 16.832 40.0187 17.184 39.7631 17.36C39.5075 17.536 39.163 17.481 38.9852 17.228C37.985 15.842 36.718 14.753 35.2177 13.994C32.0282 12.377 27.9496 12.377 24.7712 14.005C23.2597 14.775 21.9928 15.875 20.9926 17.261C20.9037 17.415 20.737 17.492 20.5592 17.492ZM27.505 30.769C27.3606 30.769 27.2161 30.714 27.1161 30.604C26.1492 29.647 25.6269 29.031 24.8823 27.7C24.1155 26.347 23.7154 24.697 23.7154 22.926C23.7154 19.659 26.5382 16.997 30.0056 16.997C33.4729 16.997 36.2957 19.659 36.2957 22.926C36.2957 23.234 36.0512 23.476 35.7401 23.476C35.4289 23.476 35.1844 23.234 35.1844 22.926C35.1844 20.264 32.8617 18.097 30.0056 18.097C27.1494 18.097 24.8267 20.264 24.8267 22.926C24.8267 24.51 25.1823 25.973 25.8603 27.161C26.5715 28.426 27.0605 28.965 27.9162 29.823C28.1274 30.043 28.1274 30.384 27.9162 30.604C27.794 30.714 27.6495 30.769 27.505 30.769ZM35.4733 28.734C34.1508 28.734 32.9839 28.404 32.0282 27.755C30.3723 26.644 29.3832 24.84 29.3832 22.926C29.3832 22.618 29.6277 22.376 29.9389 22.376C30.2501 22.376 30.4945 22.618 30.4945 22.926C30.4945 24.477 31.2947 25.94 32.6505 26.842C33.4396 27.37 34.362 27.623 35.4733 27.623C35.7401 27.623 36.1846 27.59 36.6291 27.513C36.9292 27.458 37.2181 27.656 37.2737 27.964C37.3293 28.261 37.1292 28.547 36.8181 28.602C36.1846 28.723 35.6289 28.734 35.4733 28.734ZM33.2396 31C33.1951 31 33.1395 30.989 33.0951 30.978C31.328 30.494 30.1723 29.845 28.9609 28.668C27.405 27.139 26.5493 25.104 26.5493 22.926C26.5493 21.144 28.0829 19.692 29.9722 19.692C31.8615 19.692 33.3951 21.144 33.3951 22.926C33.3951 24.103 34.4287 25.06 35.7067 25.06C36.9848 25.06 38.0183 24.103 38.0183 22.926C38.0183 18.779 34.4065 15.413 29.9611 15.413C26.8049 15.413 23.9154 17.151 22.6152 19.846C22.1817 20.737 21.9595 21.782 21.9595 22.926C21.9595 23.784 22.0373 25.137 22.7041 26.897C22.8152 27.183 22.6707 27.502 22.3818 27.601C22.0928 27.711 21.7705 27.557 21.6705 27.282C21.126 25.841 20.8592 24.411 20.8592 22.926C20.8592 21.606 21.1148 20.407 21.615 19.362C23.093 16.293 26.3715 14.302 29.9611 14.302C35.0177 14.302 39.1296 18.163 39.1296 22.915C39.1296 24.697 37.596 26.149 35.7067 26.149C33.8174 26.149 32.2838 24.697 32.2838 22.915C32.2838 21.738 31.2503 20.781 29.9722 20.781C28.6942 20.781 27.6606 21.738 27.6606 22.915C27.6606 24.796 28.3941 26.556 29.7388 27.876C30.7946 28.91 31.8059 29.482 33.3729 29.911C33.673 29.988 33.8397 30.296 33.7619 30.582C33.7063 30.835 33.4729 31 33.2396 31Z" fill="black"/>
</svg>
