<svg width="8" height="6" viewBox="0 0 8 6" fill="none" xmlns="http://www.w3.org/2000/svg">
<path d="M7.74978 0.878251C7.60926 0.738562 7.41917 0.660156 7.22103 0.660156C7.02289 0.660156 6.8328 0.738562 6.69228 0.878251L3.99978 3.53325L1.34478 0.878251C1.20426 0.738562 1.01417 0.660156 0.816028 0.660156C0.617889 0.660156 0.4278 0.738562 0.287278 0.878251C0.216982 0.947973 0.161186 1.03092 0.12311 1.12232C0.0850332 1.21371 0.0654297 1.31174 0.0654297 1.41075C0.0654297 1.50976 0.0850332 1.60779 0.12311 1.69918C0.161186 1.79058 0.216982 1.87353 0.287278 1.94325L3.46728 5.12325C3.537 5.19355 3.61995 5.24934 3.71135 5.28742C3.80274 5.3255 3.90077 5.3451 3.99978 5.3451C4.09879 5.3451 4.19682 5.3255 4.28821 5.28742C4.37961 5.24934 4.46256 5.19355 4.53228 5.12325L7.74978 1.94325C7.82007 1.87353 7.87587 1.79058 7.91395 1.69918C7.95202 1.60779 7.97163 1.50976 7.97163 1.41075C7.97163 1.31174 7.95202 1.21371 7.91395 1.12232C7.87587 1.03092 7.82007 0.947973 7.74978 0.878251Z" fill="#808080"/>
</svg>
