<svg width="13" height="16" viewBox="0 0 13 16" fill="none" xmlns="http://www.w3.org/2000/svg">
<path d="M11.5598 8.31491L6.92475 12.9574C6.31712 13.4974 5.52611 13.7849 4.71355 13.761C3.90098 13.737 3.12825 13.4036 2.55343 12.8287C1.97861 12.2539 1.64514 11.4812 1.62122 10.6686C1.5973 9.85606 1.88474 9.06505 2.42475 8.45741L8.42475 2.45742C8.78297 2.11714 9.25818 1.92741 9.75225 1.92741C10.2463 1.92741 10.7215 2.11714 11.0798 2.45742C11.4288 2.81111 11.6245 3.28802 11.6245 3.78491C11.6245 4.28181 11.4288 4.75872 11.0798 5.11241L5.90475 10.2799C5.85354 10.3351 5.79196 10.3796 5.72354 10.411C5.65511 10.4423 5.58118 10.4599 5.50597 10.4627C5.43075 10.4655 5.35572 10.4534 5.28517 10.4272C5.21461 10.401 5.14991 10.3611 5.09475 10.3099C5.0396 10.2587 4.99507 10.1971 4.96371 10.1287C4.93236 10.0603 4.91478 9.98634 4.912 9.91113C4.90921 9.83591 4.92127 9.76088 4.94748 9.69033C4.97369 9.61977 5.01354 9.55507 5.06475 9.49991L8.91225 5.65991C9.05348 5.51869 9.13282 5.32714 9.13282 5.12742C9.13282 4.92769 9.05348 4.73614 8.91225 4.59491C8.77103 4.45369 8.57948 4.37435 8.37975 4.37435C8.18003 4.37435 7.98848 4.45369 7.84725 4.59491L3.99975 8.44991C3.80723 8.64094 3.65443 8.86819 3.55015 9.11856C3.44588 9.36892 3.39219 9.63745 3.39219 9.90866C3.39219 10.1799 3.44588 10.4484 3.55015 10.6988C3.65443 10.9491 3.80723 11.1764 3.99975 11.3674C4.39303 11.742 4.91536 11.951 5.4585 11.951C6.00165 11.951 6.52397 11.742 6.91725 11.3674L12.0848 6.19242C12.6809 5.55263 13.0055 4.70642 12.99 3.83206C12.9746 2.95771 12.6204 2.12348 12.0021 1.50512C11.3837 0.886758 10.5495 0.532554 9.67511 0.517127C8.80075 0.5017 7.95454 0.826255 7.31475 1.42241L1.31475 7.42241C0.505653 8.31854 0.0735249 9.4923 0.108404 10.6991C0.143283 11.906 0.642478 13.0528 1.50198 13.9007C2.36149 14.7486 3.51501 15.2322 4.72222 15.2507C5.92942 15.2692 7.09721 14.8211 7.98225 13.9999L12.6248 9.36491C12.6947 9.29499 12.7502 9.21197 12.788 9.1206C12.8258 9.02923 12.8453 8.93131 12.8453 8.83241C12.8453 8.73352 12.8258 8.63559 12.788 8.54423C12.7502 8.45286 12.6947 8.36984 12.6248 8.29991C12.5548 8.22999 12.4718 8.17452 12.3804 8.13667C12.2891 8.09882 12.1911 8.07935 12.0923 8.07935C11.9934 8.07935 11.8954 8.09882 11.8041 8.13667C11.7127 8.17452 11.6297 8.22999 11.5598 8.29991V8.31491Z" fill="#808080"/>
</svg>
