<svg width="6" height="8" viewBox="0 0 6 8" fill="none" xmlns="http://www.w3.org/2000/svg">
<path d="M0.877274 0.249245C0.737586 0.389767 0.65918 0.579856 0.65918 0.777995C0.65918 0.976134 0.737586 1.16622 0.877274 1.30675L3.53227 3.99925L0.877274 6.65425C0.737586 6.79477 0.65918 6.98486 0.65918 7.183C0.65918 7.38113 0.737586 7.57122 0.877274 7.71175C0.946996 7.78204 1.02995 7.83784 1.12134 7.87591C1.21274 7.91399 1.31077 7.93359 1.40977 7.93359C1.50878 7.93359 1.60681 7.91399 1.69821 7.87591C1.7896 7.83784 1.87255 7.78204 1.94227 7.71175L5.12227 4.53175C5.19257 4.46202 5.24837 4.37907 5.28644 4.28768C5.32452 4.19628 5.34412 4.09825 5.34412 3.99925C5.34412 3.90024 5.32452 3.80221 5.28644 3.71081C5.24837 3.61942 5.19257 3.53647 5.12227 3.46675L1.94227 0.249245C1.87255 0.178949 1.7896 0.123153 1.69821 0.0850768C1.60681 0.0470004 1.50878 0.0273957 1.40977 0.0273957C1.31077 0.0273957 1.21274 0.0470004 1.12134 0.0850768C1.02995 0.123153 0.946996 0.178949 0.877274 0.249245Z" fill="#808080"/>
</svg>
