<svg width="6" height="8" viewBox="0 0 6 8" fill="none" xmlns="http://www.w3.org/2000/svg">
<path d="M5.12273 0.249245C5.26241 0.389767 5.34082 0.579856 5.34082 0.777995C5.34082 0.976134 5.26241 1.16622 5.12273 1.30675L2.46773 3.99925L5.12273 6.65425C5.26241 6.79477 5.34082 6.98486 5.34082 7.183C5.34082 7.38113 5.26241 7.57122 5.12273 7.71175C5.053 7.78204 4.97005 7.83784 4.87866 7.87591C4.78726 7.91399 4.68923 7.93359 4.59023 7.93359C4.49122 7.93359 4.39319 7.91399 4.30179 7.87591C4.2104 7.83784 4.12745 7.78204 4.05773 7.71175L0.877726 4.53175C0.807429 4.46202 0.751634 4.37907 0.713557 4.28768C0.675481 4.19628 0.655877 4.09825 0.655877 3.99925C0.655877 3.90024 0.675481 3.80221 0.713557 3.71081C0.751634 3.61942 0.807429 3.53647 0.877726 3.46675L4.05773 0.249245C4.12745 0.178949 4.2104 0.123153 4.30179 0.0850768C4.39319 0.0470004 4.49122 0.0273957 4.59023 0.0273957C4.68923 0.0273957 4.78726 0.0470004 4.87866 0.0850768C4.97005 0.123153 5.053 0.178949 5.12273 0.249245Z" fill="#808080"/>
</svg>
