<svg width="18" height="18" viewBox="0 0 18 18" fill="none" xmlns="http://www.w3.org/2000/svg">
<path d="M14.25 4.87499H13.29L13.05 4.12499C12.8944 3.68491 12.6058 3.30411 12.2242 3.03536C11.8425 2.7666 11.3868 2.62319 10.92 2.62499H7.08C6.60866 2.62587 6.1495 2.77475 5.76732 3.05062C5.38515 3.32648 5.09926 3.7154 4.95 4.16249L4.71 4.91249H3.75C3.15326 4.91249 2.58097 5.14954 2.15901 5.5715C1.73705 5.99345 1.5 6.56575 1.5 7.16249V13.1625C1.5 13.7592 1.73705 14.3315 2.15901 14.7535C2.58097 15.1754 3.15326 15.4125 3.75 15.4125H14.25C14.8467 15.4125 15.419 15.1754 15.841 14.7535C16.2629 14.3315 16.5 13.7592 16.5 13.1625V7.16249C16.505 6.86387 16.4505 6.56725 16.3396 6.28993C16.2288 6.0126 16.0638 5.76012 15.8544 5.5472C15.645 5.33428 15.3952 5.16518 15.1198 5.04977C14.8443 4.93436 14.5487 4.87494 14.25 4.87499ZM15 13.125C15 13.3239 14.921 13.5147 14.7803 13.6553C14.6397 13.796 14.4489 13.875 14.25 13.875H3.75C3.55109 13.875 3.36032 13.796 3.21967 13.6553C3.07902 13.5147 3 13.3239 3 13.125V7.12499C3 6.92607 3.07902 6.73531 3.21967 6.59466C3.36032 6.454 3.55109 6.37499 3.75 6.37499H5.25C5.41355 6.38352 5.5754 6.33829 5.71083 6.2462C5.84625 6.15411 5.94782 6.02022 6 5.86499L6.405 4.63499C6.45531 4.48602 6.55117 4.35663 6.67903 4.26512C6.80688 4.1736 6.96027 4.12458 7.1175 4.12499H10.9575C11.1147 4.12458 11.2681 4.1736 11.396 4.26512C11.5238 4.35663 11.6197 4.48602 11.67 4.63499L12.075 5.86499C12.1231 6.00805 12.2133 6.13325 12.3337 6.22424C12.4542 6.31523 12.5992 6.36777 12.75 6.37499H14.25C14.4489 6.37499 14.6397 6.454 14.7803 6.59466C14.921 6.73531 15 6.92607 15 7.12499V13.125ZM9 6.37499C8.40666 6.37499 7.82664 6.55093 7.33329 6.88058C6.83994 7.21022 6.45542 7.67876 6.22836 8.22694C6.0013 8.77511 5.94189 9.37831 6.05764 9.96026C6.1734 10.5422 6.45912 11.0767 6.87868 11.4963C7.29824 11.9159 7.83279 12.2016 8.41473 12.3173C8.99667 12.4331 9.59987 12.3737 10.1481 12.1466C10.6962 11.9196 11.1648 11.535 11.4944 11.0417C11.8241 10.5483 12 9.96833 12 9.37499C12 8.57934 11.6839 7.81628 11.1213 7.25367C10.5587 6.69106 9.79565 6.37499 9 6.37499ZM9 10.875C8.70333 10.875 8.41332 10.787 8.16665 10.6222C7.91997 10.4574 7.72771 10.2231 7.61418 9.94901C7.50065 9.67492 7.47094 9.37332 7.52882 9.08235C7.5867 8.79138 7.72956 8.52411 7.93934 8.31433C8.14912 8.10455 8.41639 7.96169 8.70736 7.90381C8.99834 7.84593 9.29994 7.87564 9.57403 7.98917C9.84811 8.1027 10.0824 8.29496 10.2472 8.54163C10.412 8.7883 10.5 9.07831 10.5 9.37499C10.5 9.77281 10.342 10.1543 10.0607 10.4356C9.77936 10.717 9.39782 10.875 9 10.875Z" fill="black"/>
</svg>
