<svg width="18" height="18" viewBox="0 0 18 18" fill="none" xmlns="http://www.w3.org/2000/svg">
<path d="M5.78166 4.71764L2.78166 1.71764C2.71173 1.64771 2.62872 1.59224 2.53735 1.55439C2.44598 1.51655 2.34806 1.49707 2.24916 1.49707C2.15027 1.49707 2.05234 1.51655 1.96098 1.55439C1.86961 1.59224 1.78659 1.64771 1.71666 1.71764C1.57543 1.85887 1.49609 2.05041 1.49609 2.25014C1.49609 2.44987 1.57543 2.64141 1.71666 2.78264L3.46416 4.50014C2.91809 4.56985 2.41651 4.83735 2.05439 5.25199C1.69227 5.66663 1.49473 6.19965 1.49916 6.75014V11.2501C1.49916 11.8469 1.73622 12.4192 2.15817 12.8411C2.58013 13.2631 3.15243 13.5001 3.74916 13.5001H10.4992C11.0197 13.4977 11.5233 13.3148 11.9242 12.9826L15.2167 16.2826C15.2864 16.3529 15.3693 16.4087 15.4607 16.4468C15.5521 16.4849 15.6502 16.5045 15.7492 16.5045C15.8482 16.5045 15.9462 16.4849 16.0376 16.4468C16.129 16.4087 16.2119 16.3529 16.2817 16.2826C16.352 16.2129 16.4078 16.13 16.4458 16.0386C16.4839 15.9472 16.5035 15.8491 16.5035 15.7501C16.5035 15.6511 16.4839 15.5531 16.4458 15.4617C16.4078 15.3703 16.352 15.2874 16.2817 15.2176L5.78166 4.71764ZM10.4992 12.0001H3.74916C3.55025 12.0001 3.35948 11.9211 3.21883 11.7805C3.07818 11.6398 2.99916 11.4491 2.99916 11.2501V6.75014C2.99916 6.55123 3.07818 6.36046 3.21883 6.21981C3.35948 6.07916 3.55025 6.00014 3.74916 6.00014H4.94166L10.8442 11.9101C10.7381 11.9674 10.6197 11.9983 10.4992 12.0001ZM16.1467 5.36264C16.0326 5.29681 15.9033 5.26216 15.7717 5.26216C15.64 5.26216 15.5107 5.29681 15.3967 5.36264L12.7492 6.66764C12.7278 6.08532 12.4813 5.53399 12.0617 5.12972C11.642 4.72544 11.0819 4.49975 10.4992 4.50014H9.49416C9.29525 4.50014 9.10448 4.57916 8.96383 4.71981C8.82318 4.86046 8.74416 5.05123 8.74416 5.25014C8.74416 5.44905 8.82318 5.63982 8.96383 5.78047C9.10448 5.92112 9.29525 6.00014 9.49416 6.00014H10.4992C10.6981 6.00014 10.8888 6.07916 11.0295 6.21981C11.1701 6.36046 11.2492 6.55123 11.2492 6.75014V7.87514C11.2464 7.9226 11.2464 7.97018 11.2492 8.01764C11.2536 8.06931 11.2663 8.11995 11.2867 8.16764C11.2867 8.16764 11.3242 8.21264 11.3392 8.24264C11.3697 8.29978 11.4075 8.35272 11.4517 8.40014C11.4517 8.40014 11.5267 8.44514 11.5642 8.47514L11.6917 8.55764C11.7489 8.56545 11.8069 8.56545 11.8642 8.55764C11.8991 8.56115 11.9342 8.56115 11.9692 8.55764C12.0166 8.56043 12.0642 8.56043 12.1117 8.55764C12.1633 8.5532 12.214 8.54054 12.2617 8.52014L14.9992 7.21514V11.5051C14.9992 11.7041 15.0782 11.8948 15.2188 12.0355C15.3595 12.1761 15.5503 12.2551 15.7492 12.2551C15.9481 12.2551 16.1388 12.1761 16.2795 12.0355C16.4201 11.8948 16.4992 11.7041 16.4992 11.5051V6.00014C16.4994 5.87268 16.4672 5.74726 16.4055 5.63572C16.3438 5.52418 16.2547 5.43019 16.1467 5.36264Z" fill="white"/>
</svg>
