<svg width="40" height="40" viewBox="0 0 40 40" fill="none" xmlns="http://www.w3.org/2000/svg">
<path d="M13.2779 20.8229L19.2774 28.5371C19.3903 28.6823 19.5315 28.799 19.6912 28.879C19.8509 28.959 20.0251 29.0003 20.2014 29L33.4003 29C34.355 29 35.2706 28.5936 35.9457 27.8703C36.6207 27.1469 37 26.1658 37 25.1429L37 14.8571C37 13.8342 36.6207 12.8531 35.9457 12.1297C35.2706 11.4064 34.355 11 33.4003 11L20.2014 11C20.0251 10.9997 19.8509 11.041 19.6912 11.121C19.5315 11.201 19.3903 11.3177 19.2774 11.4629L13.2779 19.1771C13.0983 19.4082 13 19.6993 13 20C13 20.3007 13.0983 20.5918 13.2779 20.8229ZM20.7653 13.5714L33.4003 13.5714C33.7185 13.5714 34.0237 13.7069 34.2488 13.948C34.4738 14.1891 34.6002 14.5162 34.6002 14.8571L34.6002 25.1429C34.6002 25.4838 34.4738 25.8109 34.2488 26.052C34.0237 26.2931 33.7185 26.4286 33.4003 26.4286L20.7653 26.4286L15.7617 20L20.7653 13.5714ZM24.149 23.4843C24.2606 23.6048 24.3933 23.7004 24.5395 23.7657C24.6857 23.831 24.8426 23.8646 25.001 23.8646C25.1594 23.8646 25.3162 23.831 25.4624 23.7657C25.6086 23.7004 25.7414 23.6048 25.8529 23.4843L27.4008 21.8129L28.9487 23.4843C29.1746 23.7264 29.481 23.8624 29.8006 23.8624C30.1201 23.8624 30.4266 23.7264 30.6525 23.4843C30.8785 23.2422 31.0054 22.9138 31.0054 22.5714C31.0054 22.4019 30.9742 22.234 30.9137 22.0774C30.8531 21.9208 30.7644 21.7784 30.6525 21.6586L29.0926 20L30.6525 18.3414C30.765 18.2219 30.8542 18.0797 30.9152 17.923C30.9761 17.7664 31.0074 17.5983 31.0074 17.4286C31.0074 17.2588 30.9761 17.0908 30.9152 16.9341C30.8542 16.7774 30.765 16.6352 30.6525 16.5157C30.541 16.3952 30.4083 16.2996 30.262 16.2343C30.1158 16.169 29.959 16.1354 29.8006 16.1354C29.6422 16.1354 29.4853 16.169 29.3391 16.2343C29.1929 16.2996 29.0602 16.3952 28.9487 16.5157L27.4008 18.1871L25.8529 16.5157C25.7414 16.3952 25.6086 16.2996 25.4624 16.2343C25.3162 16.169 25.1594 16.1354 25.001 16.1354C24.8426 16.1354 24.6857 16.169 24.5395 16.2343C24.3933 16.2996 24.2606 16.3952 24.149 16.5157C24.0366 16.6352 23.9473 16.7774 23.8864 16.9341C23.8255 17.0908 23.7941 17.2588 23.7941 17.4286C23.7941 17.5983 23.8255 17.7664 23.8864 17.923C23.9473 18.0797 24.0366 18.2219 24.149 18.3414L25.7089 20L24.149 21.6586C24.0366 21.7781 23.9473 21.9203 23.8864 22.077C23.8255 22.2336 23.7941 22.4017 23.7941 22.5714C23.7941 22.7412 23.8255 22.9092 23.8864 23.0659C23.9473 23.2226 24.0366 23.3648 24.149 23.4843Z" fill="black"/>
</svg>
