<svg width="18" height="18" viewBox="0 0 18 18" fill="none" xmlns="http://www.w3.org/2000/svg">
<path d="M6 9C6 9.19891 6.07902 9.38968 6.21967 9.53033C6.36032 9.67098 6.55109 9.75 6.75 9.75H11.25C11.4489 9.75 11.6397 9.67098 11.7803 9.53033C11.921 9.38968 12 9.19891 12 9C12 8.80109 11.921 8.61032 11.7803 8.46967C11.6397 8.32902 11.4489 8.25 11.25 8.25H6.75C6.55109 8.25 6.36032 8.32902 6.21967 8.46967C6.07902 8.61032 6 8.80109 6 9ZM7.5 11.25H5.25C4.65326 11.25 4.08097 11.0129 3.65901 10.591C3.23705 10.169 3 9.59674 3 9C3 8.40326 3.23705 7.83097 3.65901 7.40901C4.08097 6.98705 4.65326 6.75 5.25 6.75H7.5C7.69891 6.75 7.88968 6.67098 8.03033 6.53033C8.17098 6.38968 8.25 6.19891 8.25 6C8.25 5.80109 8.17098 5.61032 8.03033 5.46967C7.88968 5.32902 7.69891 5.25 7.5 5.25H5.25C4.25544 5.25 3.30161 5.64509 2.59835 6.34835C1.89509 7.05161 1.5 8.00544 1.5 9C1.5 9.99456 1.89509 10.9484 2.59835 11.6517C3.30161 12.3549 4.25544 12.75 5.25 12.75H7.5C7.69891 12.75 7.88968 12.671 8.03033 12.5303C8.17098 12.3897 8.25 12.1989 8.25 12C8.25 11.8011 8.17098 11.6103 8.03033 11.4697C7.88968 11.329 7.69891 11.25 7.5 11.25ZM12.75 5.25H10.5C10.3011 5.25 10.1103 5.32902 9.96967 5.46967C9.82902 5.61032 9.75 5.80109 9.75 6C9.75 6.19891 9.82902 6.38968 9.96967 6.53033C10.1103 6.67098 10.3011 6.75 10.5 6.75H12.75C13.3467 6.75 13.919 6.98705 14.341 7.40901C14.7629 7.83097 15 8.40326 15 9C15 9.59674 14.7629 10.169 14.341 10.591C13.919 11.0129 13.3467 11.25 12.75 11.25H10.5C10.3011 11.25 10.1103 11.329 9.96967 11.4697C9.82902 11.6103 9.75 11.8011 9.75 12C9.75 12.1989 9.82902 12.3897 9.96967 12.5303C10.1103 12.671 10.3011 12.75 10.5 12.75H12.75C13.7446 12.75 14.6984 12.3549 15.4017 11.6517C16.1049 10.9484 16.5 9.99456 16.5 9C16.5 8.00544 16.1049 7.05161 15.4017 6.34835C14.6984 5.64509 13.7446 5.25 12.75 5.25Z" fill="#808080"/>
</svg>
