<svg width="18" height="18" viewBox="0 0 18 18" fill="none" xmlns="http://www.w3.org/2000/svg">
<path d="M14.0325 5.40749C13.9628 5.33719 13.8798 5.28139 13.7884 5.24332C13.697 5.20524 13.599 5.18564 13.5 5.18564C13.401 5.18564 13.303 5.20524 13.2116 5.24332C13.1202 5.28139 13.0372 5.33719 12.9675 5.40749L7.37999 11.0025L5.03249 8.64749C4.9601 8.57756 4.87465 8.52257 4.781 8.48567C4.68736 8.44877 4.58737 8.43067 4.48673 8.43241C4.3861 8.43415 4.28679 8.4557 4.19448 8.49582C4.10217 8.53594 4.01867 8.59385 3.94874 8.66624C3.87881 8.73863 3.82383 8.82408 3.78693 8.91773C3.75002 9.01137 3.73192 9.11136 3.73367 9.212C3.73541 9.31263 3.75695 9.41194 3.79707 9.50425C3.83719 9.59656 3.8951 9.68006 3.96749 9.74999L6.84749 12.63C6.91722 12.7003 7.00017 12.7561 7.09156 12.7942C7.18296 12.8322 7.28098 12.8518 7.37999 12.8518C7.479 12.8518 7.57703 12.8322 7.66843 12.7942C7.75982 12.7561 7.84277 12.7003 7.91249 12.63L14.0325 6.50999C14.1086 6.43976 14.1694 6.35452 14.2109 6.25964C14.2525 6.16477 14.2739 6.06231 14.2739 5.95874C14.2739 5.85516 14.2525 5.75271 14.2109 5.65783C14.1694 5.56296 14.1086 5.47772 14.0325 5.40749Z" fill="black"/>
</svg>
