<svg width="18" height="18" viewBox="0 0 18 18" fill="none" xmlns="http://www.w3.org/2000/svg">
<path d="M7.6575 11.0625C7.72722 11.1328 7.81017 11.1886 7.90157 11.2267C7.99296 11.2647 8.09099 11.2843 8.19 11.2843C8.28901 11.2843 8.38704 11.2647 8.47843 11.2267C8.56983 11.1886 8.65278 11.1328 8.7225 11.0625L11.7825 8.0025C11.9237 7.86127 12.0031 7.66973 12.0031 7.47C12.0031 7.27027 11.9237 7.07873 11.7825 6.9375C11.6413 6.79627 11.4497 6.71693 11.25 6.71693C11.0503 6.71693 10.8587 6.79627 10.7175 6.9375L8.19 9.4725L7.2825 8.5575C7.14127 8.41627 6.94973 8.33693 6.75 8.33693C6.55027 8.33693 6.35873 8.41627 6.2175 8.5575C6.07627 8.69873 5.99693 8.89027 5.99693 9.09C5.99693 9.28973 6.07627 9.48127 6.2175 9.6225L7.6575 11.0625ZM15.75 1.5H2.25C2.05109 1.5 1.86032 1.57902 1.71967 1.71967C1.57902 1.86032 1.5 2.05109 1.5 2.25V15.75C1.5 15.9489 1.57902 16.1397 1.71967 16.2803C1.86032 16.421 2.05109 16.5 2.25 16.5H15.75C15.9489 16.5 16.1397 16.421 16.2803 16.2803C16.421 16.1397 16.5 15.9489 16.5 15.75V2.25C16.5 2.05109 16.421 1.86032 16.2803 1.71967C16.1397 1.57902 15.9489 1.5 15.75 1.5ZM15 15H3V3H15V15Z" fill="black"/>
</svg>
