<svg width="18" height="18" viewBox="0 0 18 18" fill="none" xmlns="http://www.w3.org/2000/svg">
<path d="M9 4.5C8.9015 4.49997 8.80397 4.51936 8.71296 4.55704C8.62195 4.59472 8.53927 4.64996 8.46962 4.71961C8.39997 4.78926 8.34472 4.87195 8.30704 4.96296C8.26936 5.05396 8.24998 5.1515 8.25 5.25V8.53784L6.42701 9.4552C6.33905 9.49944 6.26066 9.56058 6.19633 9.63511C6.132 9.70965 6.08298 9.79613 6.05207 9.88961C6.02115 9.98309 6.00896 10.0817 6.01617 10.1799C6.02339 10.2781 6.04987 10.374 6.09412 10.4619C6.13836 10.5499 6.1995 10.6283 6.27403 10.6926C6.34857 10.7569 6.43505 10.8059 6.52853 10.8369C6.62201 10.8678 6.72067 10.88 6.81886 10.8727C6.91706 10.8655 7.01287 10.839 7.10083 10.7948L9.33692 9.6698C9.46113 9.60747 9.56555 9.51181 9.63851 9.39352C9.71146 9.27523 9.75006 9.13898 9.75 9V5.25C9.75003 5.1515 9.73065 5.05396 9.69297 4.96296C9.65528 4.87195 9.60004 4.78926 9.53039 4.71961C9.46074 4.64996 9.37805 4.59472 9.28705 4.55704C9.19604 4.51936 9.0985 4.49997 9 4.5V4.5ZM9 1.5C7.51664 1.5 6.0666 1.93987 4.83323 2.76398C3.59986 3.58809 2.63856 4.75943 2.07091 6.12987C1.50325 7.50032 1.35472 9.00832 1.64411 10.4632C1.9335 11.918 2.64781 13.2544 3.6967 14.3033C4.7456 15.3522 6.08197 16.0665 7.53683 16.3559C8.99168 16.6453 10.4997 16.4968 11.8701 15.9291C13.2406 15.3614 14.4119 14.4001 15.236 13.1668C16.0601 11.9334 16.5 10.4834 16.5 9C16.4977 7.01157 15.7068 5.10524 14.3008 3.69921C12.8948 2.29318 10.9884 1.50227 9 1.5V1.5ZM9 15C7.81332 15 6.65328 14.6481 5.66658 13.9888C4.67989 13.3295 3.91085 12.3925 3.45673 11.2961C3.0026 10.1997 2.88378 8.99334 3.11529 7.82946C3.3468 6.66557 3.91825 5.59647 4.75736 4.75736C5.59648 3.91824 6.66558 3.3468 7.82946 3.11529C8.99335 2.88378 10.1997 3.0026 11.2961 3.45672C12.3925 3.91085 13.3295 4.67988 13.9888 5.66658C14.6481 6.65327 15 7.81331 15 9C14.9982 10.5907 14.3655 12.1158 13.2406 13.2406C12.1158 14.3655 10.5907 14.9982 9 15V15Z" fill="#808080"/>
</svg>
