<svg width="18" height="18" viewBox="0 0 18 18" fill="none" xmlns="http://www.w3.org/2000/svg">
<path d="M10.7175 12.9675L9.75 13.9425V9.75001C9.75 9.5511 9.67098 9.36034 9.53033 9.21968C9.38968 9.07903 9.19891 9.00001 9 9.00001C8.80109 9.00001 8.61032 9.07903 8.46967 9.21968C8.32902 9.36034 8.25 9.5511 8.25 9.75001V13.9425L7.2825 12.9675C7.21257 12.8976 7.12955 12.8421 7.03819 12.8043C6.94682 12.7664 6.84889 12.7469 6.75 12.7469C6.65111 12.7469 6.55318 12.7664 6.46181 12.8043C6.37045 12.8421 6.28743 12.8976 6.2175 12.9675C6.14757 13.0374 6.0921 13.1205 6.05425 13.2118C6.01641 13.3032 5.99693 13.4011 5.99693 13.5C5.99693 13.5989 6.01641 13.6968 6.05425 13.7882C6.0921 13.8796 6.14757 13.9626 6.2175 14.0325L8.4675 16.2825C8.53883 16.3508 8.62294 16.4043 8.715 16.44C8.80478 16.4797 8.90185 16.5002 9 16.5002C9.09815 16.5002 9.19522 16.4797 9.285 16.44C9.37706 16.4043 9.46117 16.3508 9.5325 16.2825L11.7825 14.0325C11.9237 13.8913 12.0031 13.6997 12.0031 13.5C12.0031 13.3003 11.9237 13.1087 11.7825 12.9675C11.6413 12.8263 11.4497 12.7469 11.25 12.7469C11.0503 12.7469 10.8587 12.8263 10.7175 12.9675ZM13.815 4.66501C13.3567 3.61202 12.5659 2.73832 11.5636 2.17781C10.5612 1.6173 9.40279 1.40089 8.26572 1.56174C7.12866 1.7226 6.07569 2.25185 5.26819 3.06839C4.46069 3.88494 3.94319 4.94372 3.795 6.08251C3.07994 6.25375 2.45267 6.68164 2.0323 7.2849C1.61194 7.88817 1.42776 8.62481 1.51475 9.35492C1.60173 10.085 1.95382 10.7578 2.50415 11.2454C3.05448 11.733 3.76472 12.0016 4.5 12C4.69891 12 4.88968 11.921 5.03033 11.7803C5.17098 11.6397 5.25 11.4489 5.25 11.25C5.25 11.0511 5.17098 10.8603 5.03033 10.7197C4.88968 10.579 4.69891 10.5 4.5 10.5C4.10217 10.5 3.72064 10.342 3.43934 10.0607C3.15803 9.77937 3 9.39784 3 9.00001C3 8.60219 3.15803 8.22066 3.43934 7.93935C3.72064 7.65805 4.10217 7.50001 4.5 7.50001C4.69891 7.50001 4.88968 7.42099 5.03033 7.28034C5.17098 7.13969 5.25 6.94893 5.25 6.75001C5.25192 5.86297 5.56821 5.00533 6.1427 4.32945C6.71719 3.65357 7.51267 3.20323 8.38781 3.05842C9.26296 2.91361 10.1611 3.08372 10.9227 3.53852C11.6843 3.99332 12.26 4.70337 12.5475 5.54251C12.5904 5.67139 12.6674 5.78621 12.7705 5.87471C12.8735 5.96321 12.9986 6.02208 13.1325 6.04501C13.632 6.13942 14.0849 6.40022 14.4173 6.78491C14.7496 7.16961 14.9419 7.65553 14.9628 8.16349C14.9837 8.67145 14.8319 9.17151 14.5322 9.58219C14.2325 9.99286 13.8026 10.2899 13.3125 10.425C13.217 10.4496 13.1272 10.4928 13.0484 10.5521C12.9695 10.6115 12.9031 10.6857 12.853 10.7707C12.8029 10.8556 12.7699 10.9497 12.7561 11.0473C12.7423 11.145 12.7479 11.2445 12.7725 11.34C12.7971 11.4355 12.8403 11.5253 12.8996 11.6041C12.9589 11.683 13.0332 11.7494 13.1182 11.7995C13.2031 11.8497 13.2971 11.8826 13.3948 11.8964C13.4925 11.9102 13.592 11.9046 13.6875 11.88C14.4768 11.6714 15.1765 11.211 15.6803 10.5686C16.1841 9.92622 16.4645 9.13697 16.4789 8.32071C16.4933 7.50446 16.241 6.70579 15.7602 6.046C15.2794 5.38621 14.5964 4.90134 13.815 4.66501Z" fill="black"/>
</svg>
