<svg width="18" height="18" viewBox="0 0 18 18" fill="none" xmlns="http://www.w3.org/2000/svg">
<path d="M6.5489 6.05768C6.6403 6.09576 6.72325 6.15155 6.79297 6.22185C6.86327 6.29157 6.91906 6.37452 6.95714 6.46592C6.99521 6.55731 7.01482 6.65534 7.01482 6.75435C7.01482 6.85336 6.99521 6.95139 6.95714 7.04278C6.91906 7.13418 6.86327 7.21713 6.79297 7.28685L4.60482 9.46752L6.79297 11.6482C6.86327 11.7179 6.91906 11.8008 6.95714 11.8922C6.99521 11.9836 7.01482 12.0816 7.01482 12.1807C7.01482 12.2797 6.99521 12.3777 6.95714 12.4691C6.91906 12.5605 6.86327 12.6434 6.79297 12.7132C6.72325 12.7835 6.6403 12.8392 6.5489 12.8773C6.45751 12.9154 6.35948 12.935 6.26047 12.935C6.16146 12.935 6.06343 12.9154 5.97204 12.8773C5.88064 12.8392 5.79769 12.7835 5.72797 12.7132L3.01482 10C2.94452 9.9303 2.88873 9.84735 2.85065 9.75595C2.81257 9.66456 2.79297 9.56653 2.79297 9.46752C2.79297 9.36851 2.81257 9.27048 2.85065 9.17909C2.88873 9.08769 2.94452 9.00474 3.01482 8.93502L5.72797 6.22185C5.79769 6.15155 5.88064 6.09576 5.97204 6.05768C6.06343 6.0196 6.16146 6 6.26047 6C6.35948 6 6.45751 6.0196 6.5489 6.05768Z" fill="#808080"/>
<path d="M11.4882 6.05768C11.3968 6.09576 11.3139 6.15155 11.2441 6.22185C11.1738 6.29157 11.118 6.37452 11.08 6.46592C11.0419 6.55731 11.0223 6.65534 11.0223 6.75435C11.0223 6.85336 11.0419 6.95139 11.08 7.04278C11.118 7.13418 11.1738 7.21713 11.2441 7.28685L13.4323 9.46752L11.2441 11.6482C11.1738 11.7179 11.118 11.8008 11.08 11.8922C11.0419 11.9836 11.0223 12.0816 11.0223 12.1807C11.0223 12.2797 11.0419 12.3777 11.08 12.4691C11.118 12.5605 11.1738 12.6434 11.2441 12.7132C11.3139 12.7835 11.3968 12.8392 11.4882 12.8773C11.5796 12.9154 11.6776 12.935 11.7766 12.935C11.8756 12.935 11.9737 12.9154 12.0651 12.8773C12.1565 12.8392 12.2394 12.7835 12.3091 12.7132L15.0223 10C15.0926 9.9303 15.1484 9.84735 15.1865 9.75595C15.2245 9.66456 15.2441 9.56653 15.2441 9.46752C15.2441 9.36851 15.2245 9.27048 15.1865 9.17909C15.1484 9.08769 15.0926 9.00474 15.0223 8.93502L12.3091 6.22185C12.2394 6.15155 12.1565 6.09576 12.0651 6.05768C11.9737 6.0196 11.8756 6 11.7766 6C11.6776 6 11.5796 6.0196 11.4882 6.05768Z" fill="#808080"/>
<path d="M7.49051 13.8719L9.13492 4.54601C9.16607 4.36934 9.27377 4.21362 9.43431 4.11312C9.59485 4.01262 9.79509 3.97557 9.99098 4.01011C10.1869 4.04465 10.3624 4.14795 10.4789 4.2973C10.5953 4.44665 10.6433 4.62981 10.6121 4.80648L8.96772 14.1324C8.93656 14.3091 8.82887 14.4648 8.66833 14.5653C8.50779 14.6658 8.30754 14.7029 8.11165 14.6683C7.91576 14.6338 7.74027 14.5305 7.62378 14.3811C7.50729 14.2318 7.45935 14.0486 7.49051 13.8719Z" fill="#808080"/>
</svg>
