<svg width="18" height="18" viewBox="0 0 18 18" fill="none" xmlns="http://www.w3.org/2000/svg">
<path d="M3.75 1.5L14.25 1.5C14.8467 1.5 15.419 1.73705 15.841 2.15901C16.2629 2.58097 16.5 3.15326 16.5 3.75V15.75C16.4993 15.8981 16.4547 16.0426 16.372 16.1654C16.2892 16.2882 16.172 16.3837 16.035 16.44C15.946 16.482 15.8484 16.5025 15.75 16.5C15.6513 16.5006 15.5534 16.4817 15.4621 16.4443C15.3707 16.407 15.2876 16.352 15.2175 16.2825L12.4425 13.5H3.75C3.15326 13.5 2.58097 13.2629 2.15901 12.841C1.73705 12.419 1.5 11.8467 1.5 11.25L1.5 3.75C1.5 3.15326 1.73705 2.58097 2.15901 2.15901C2.58097 1.73705 3.15326 1.5 3.75 1.5Z" fill="black"/>
</svg>
