<svg width="18" height="18" viewBox="0 0 18 18" fill="none" xmlns="http://www.w3.org/2000/svg">
<path d="M12.75 6.75H5.24999C5.05108 6.75 4.86031 6.82902 4.71966 6.96967C4.57901 7.11032 4.49999 7.30109 4.49999 7.5C4.49999 7.69891 4.57901 7.88968 4.71966 8.03033C4.86031 8.17098 5.05108 8.25 5.24999 8.25H12.75C12.9489 8.25 13.1397 8.17098 13.2803 8.03033C13.421 7.88968 13.5 7.69891 13.5 7.5C13.5 7.30109 13.421 7.11032 13.2803 6.96967C13.1397 6.82902 12.9489 6.75 12.75 6.75ZM9.74999 9.75H5.24999C5.05108 9.75 4.86031 9.82902 4.71966 9.96967C4.57901 10.1103 4.49999 10.3011 4.49999 10.5C4.49999 10.6989 4.57901 10.8897 4.71966 11.0303C4.86031 11.171 5.05108 11.25 5.24999 11.25H9.74999C9.9489 11.25 10.1397 11.171 10.2803 11.0303C10.421 10.8897 10.5 10.6989 10.5 10.5C10.5 10.3011 10.421 10.1103 10.2803 9.96967C10.1397 9.82902 9.9489 9.75 9.74999 9.75ZM8.99999 1.5C8.01508 1.5 7.03981 1.69399 6.12986 2.0709C5.21992 2.44781 4.39313 3.00026 3.69669 3.6967C2.29017 5.10322 1.49999 7.01088 1.49999 9C1.49343 10.7319 2.09309 12.4114 3.19499 13.7475L1.69499 15.2475C1.59092 15.353 1.52043 15.4869 1.4924 15.6324C1.46436 15.7779 1.48006 15.9284 1.53749 16.065C1.59978 16.1999 1.70077 16.3133 1.82763 16.3908C1.95448 16.4682 2.10149 16.5063 2.24999 16.5H8.99999C10.9891 16.5 12.8968 15.7098 14.3033 14.3033C15.7098 12.8968 16.5 10.9891 16.5 9C16.5 7.01088 15.7098 5.10322 14.3033 3.6967C12.8968 2.29018 10.9891 1.5 8.99999 1.5ZM8.99999 15H4.05749L4.75499 14.3025C4.89468 14.162 4.97309 13.9719 4.97309 13.7738C4.97309 13.5756 4.89468 13.3855 4.75499 13.245C3.77293 12.264 3.16137 10.9729 3.02451 9.59159C2.88765 8.21029 3.23395 6.82425 4.00441 5.66964C4.77487 4.51503 5.92183 3.66327 7.24988 3.25948C8.57792 2.85569 10.0049 2.92485 11.2877 3.45519C12.5704 3.98552 13.6296 4.94421 14.2848 6.16792C14.94 7.39163 15.1506 8.80466 14.8808 10.1663C14.611 11.5279 13.8775 12.7538 12.8051 13.6352C11.7328 14.5166 10.3881 14.9989 8.99999 15Z" fill="black"/>
</svg>
