<svg width="18" height="18" viewBox="0 0 18 18" fill="none" xmlns="http://www.w3.org/2000/svg">
<path d="M12.7497 6.75H5.24966C5.05074 6.75 4.85998 6.82902 4.71933 6.96967C4.57867 7.11032 4.49966 7.30109 4.49966 7.5C4.49966 7.69891 4.57867 7.88968 4.71933 8.03033C4.85998 8.17098 5.05074 8.25 5.24966 8.25H12.7497C12.9486 8.25 13.1393 8.17098 13.28 8.03033C13.4206 7.88968 13.4997 7.69891 13.4997 7.5C13.4997 7.30109 13.4206 7.11032 13.28 6.96967C13.1393 6.82902 12.9486 6.75 12.7497 6.75ZM9.74965 9.75H5.24966C5.05074 9.75 4.85998 9.82902 4.71933 9.96967C4.57867 10.1103 4.49966 10.3011 4.49966 10.5C4.49966 10.6989 4.57867 10.8897 4.71933 11.0303C4.85998 11.171 5.05074 11.25 5.24966 11.25H9.74965C9.94857 11.25 10.1393 11.171 10.28 11.0303C10.4206 10.8897 10.4997 10.6989 10.4997 10.5C10.4997 10.3011 10.4206 10.1103 10.28 9.96967C10.1393 9.82902 9.94857 9.75 9.74965 9.75ZM8.99966 1.5C8.01474 1.5 7.03947 1.69399 6.12953 2.0709C5.21959 2.44781 4.39279 3.00026 3.69635 3.6967C2.28983 5.10322 1.49966 7.01088 1.49966 9C1.4931 10.7319 2.09275 12.4114 3.19466 13.7475L1.69466 15.2475C1.59059 15.353 1.52009 15.4869 1.49206 15.6324C1.46403 15.7779 1.47972 15.9284 1.53716 16.065C1.59945 16.1999 1.70043 16.3133 1.82729 16.3908C1.95415 16.4682 2.10116 16.5063 2.24966 16.5H8.99966C10.9888 16.5 12.8964 15.7098 14.303 14.3033C15.7095 12.8968 16.4997 10.9891 16.4997 9C16.4997 7.01088 15.7095 5.10322 14.303 3.6967C12.8964 2.29018 10.9888 1.5 8.99966 1.5ZM8.99966 15H4.05716L4.75466 14.3025C4.89434 14.162 4.97275 13.9719 4.97275 13.7738C4.97275 13.5756 4.89434 13.3855 4.75466 13.245C3.77259 12.264 3.16104 10.9729 3.02417 9.59159C2.88731 8.21029 3.23361 6.82425 4.00408 5.66964C4.77454 4.51503 5.9215 3.66327 7.24954 3.25948C8.57758 2.85569 10.0045 2.92485 11.2873 3.45519C12.5701 3.98552 13.6293 4.94421 14.2845 6.16792C14.9397 7.39163 15.1503 8.80466 14.8805 10.1663C14.6107 11.5279 13.8771 12.7538 12.8048 13.6352C11.7325 14.5166 10.3877 14.9989 8.99966 15Z" fill="#808080"/>
</svg>
