<svg width="18" height="18" viewBox="0 0 18 18" fill="none" xmlns="http://www.w3.org/2000/svg">
<path d="M9.75 8.25H5.25C5.05109 8.25 4.86032 8.32902 4.71967 8.46967C4.57902 8.61032 4.5 8.80109 4.5 9C4.5 9.19891 4.57902 9.38968 4.71967 9.53033C4.86032 9.67098 5.05109 9.75 5.25 9.75H9.75C9.94891 9.75 10.1397 9.67098 10.2803 9.53033C10.421 9.38968 10.5 9.19891 10.5 9C10.5 8.80109 10.421 8.61032 10.2803 8.46967C10.1397 8.32902 9.94891 8.25 9.75 8.25ZM12.75 5.25H5.25C5.05109 5.25 4.86032 5.32902 4.71967 5.46967C4.57902 5.61032 4.5 5.80109 4.5 6C4.5 6.19891 4.57902 6.38968 4.71967 6.53033C4.86032 6.67098 5.05109 6.75 5.25 6.75H12.75C12.9489 6.75 13.1397 6.67098 13.2803 6.53033C13.421 6.38968 13.5 6.19891 13.5 6C13.5 5.80109 13.421 5.61032 13.2803 5.46967C13.1397 5.32902 12.9489 5.25 12.75 5.25ZM14.25 1.5H3.75C3.15326 1.5 2.58097 1.73705 2.15901 2.15901C1.73705 2.58097 1.5 3.15326 1.5 3.75V11.25C1.5 11.8467 1.73705 12.419 2.15901 12.841C2.58097 13.2629 3.15326 13.5 3.75 13.5H12.4425L15.2175 16.2825C15.2876 16.352 15.3707 16.407 15.4621 16.4443C15.5534 16.4817 15.6513 16.5006 15.75 16.5C15.8484 16.5025 15.946 16.482 16.035 16.44C16.172 16.3837 16.2892 16.2882 16.372 16.1654C16.4547 16.0426 16.4993 15.8981 16.5 15.75V3.75C16.5 3.15326 16.2629 2.58097 15.841 2.15901C15.419 1.73705 14.8467 1.5 14.25 1.5ZM15 13.9425L13.2825 12.2175C13.2124 12.148 13.1293 12.093 13.0379 12.0557C12.9466 12.0183 12.8487 11.9994 12.75 12H3.75C3.55109 12 3.36032 11.921 3.21967 11.7803C3.07902 11.6397 3 11.4489 3 11.25V3.75C3 3.55109 3.07902 3.36032 3.21967 3.21967C3.36032 3.07902 3.55109 3 3.75 3H14.25C14.4489 3 14.6397 3.07902 14.7803 3.21967C14.921 3.36032 15 3.55109 15 3.75V13.9425Z" fill="black"/>
</svg>
