<svg width="18" height="18" viewBox="0 0 18 18" fill="none" xmlns="http://www.w3.org/2000/svg">
<path d="M16.2825 1.71752C16.2128 1.64722 16.1298 1.59142 16.0384 1.55335C15.9471 1.51527 15.849 1.49567 15.75 1.49567C15.651 1.49567 15.553 1.51527 15.4616 1.55335C15.3702 1.59142 15.2872 1.64722 15.2175 1.71752L10.875 6.06752V4.87502C10.875 4.6761 10.796 4.48534 10.6553 4.34469C10.5147 4.20403 10.3239 4.12502 10.125 4.12502C9.9261 4.12502 9.73534 4.20403 9.59469 4.34469C9.45403 4.48534 9.37502 4.6761 9.37502 4.87502V7.87502C9.3762 7.97302 9.39658 8.06985 9.43502 8.16002C9.51112 8.34328 9.65675 8.48891 9.84002 8.56502C9.93018 8.60345 10.027 8.62383 10.125 8.62502H13.125C13.3239 8.62502 13.5147 8.546 13.6553 8.40534C13.796 8.26469 13.875 8.07393 13.875 7.87502C13.875 7.6761 13.796 7.48534 13.6553 7.34469C13.5147 7.20403 13.3239 7.12502 13.125 7.12502H11.9325L16.2825 2.78252C16.3528 2.71279 16.4086 2.62984 16.4467 2.53845C16.4848 2.44705 16.5044 2.34902 16.5044 2.25002C16.5044 2.15101 16.4848 2.05298 16.4467 1.96158C16.4086 1.87019 16.3528 1.78724 16.2825 1.71752ZM8.16002 9.43502C8.06985 9.39658 7.97302 9.3762 7.87502 9.37502H4.87502C4.6761 9.37502 4.48534 9.45403 4.34469 9.59469C4.20403 9.73534 4.12502 9.9261 4.12502 10.125C4.12502 10.3239 4.20403 10.5147 4.34469 10.6553C4.48534 10.796 4.6761 10.875 4.87502 10.875H6.06752L1.71752 15.2175C1.64722 15.2872 1.59142 15.3702 1.55335 15.4616C1.51527 15.553 1.49567 15.651 1.49567 15.75C1.49567 15.849 1.51527 15.9471 1.55335 16.0384C1.59142 16.1298 1.64722 16.2128 1.71752 16.2825C1.78724 16.3528 1.87019 16.4086 1.96158 16.4467C2.05298 16.4848 2.15101 16.5044 2.25002 16.5044C2.34902 16.5044 2.44705 16.4848 2.53845 16.4467C2.62984 16.4086 2.71279 16.3528 2.78252 16.2825L7.12502 11.9325V13.125C7.12502 13.3239 7.20403 13.5147 7.34469 13.6553C7.48534 13.796 7.6761 13.875 7.87502 13.875C8.07393 13.875 8.26469 13.796 8.40534 13.6553C8.546 13.5147 8.62502 13.3239 8.62502 13.125V10.125C8.62383 10.027 8.60345 9.93018 8.56502 9.84002C8.48891 9.65675 8.34328 9.51112 8.16002 9.43502Z" fill="black"/>
</svg>
