<svg width="18" height="18" viewBox="0 0 18 18" fill="none" xmlns="http://www.w3.org/2000/svg">
<path fill-rule="evenodd" clip-rule="evenodd" d="M14.25 2.75H12.75V2C12.75 1.80109 12.671 1.61032 12.5303 1.46967C12.3897 1.32902 12.1989 1.25 12 1.25C11.8011 1.25 11.6103 1.32902 11.4697 1.46967C11.329 1.61032 11.25 1.80109 11.25 2V2.75H6.75V2C6.75 1.80109 6.67098 1.61032 6.53033 1.46967C6.38968 1.32902 6.19891 1.25 6 1.25C5.80109 1.25 5.61032 1.32902 5.46967 1.46967C5.32902 1.61032 5.25 1.80109 5.25 2V2.75H3.75C3.15326 2.75 2.58097 2.98705 2.15901 3.40901C1.73705 3.83097 1.5 4.40326 1.5 5L1.5 14.5C1.5 15.0967 1.73705 15.669 2.15901 16.091C2.58097 16.5129 3.15326 16.75 3.75 16.75H14.25C14.8467 16.75 15.419 16.5129 15.841 16.091C16.2629 15.669 16.5 15.0967 16.5 14.5V5C16.5 4.40326 16.2629 3.83097 15.841 3.40901C15.419 2.98705 14.8467 2.75 14.25 2.75ZM15 14.5C15 14.6989 14.921 14.8897 14.7803 15.0303C14.6397 15.171 14.4489 15.25 14.25 15.25H3.75C3.55109 15.25 3.36032 15.171 3.21967 15.0303C3.07902 14.8897 3 14.6989 3 14.5V10.25V9.25V7.75V7.25V5C3 4.80109 3.07902 4.61032 3.21967 4.46967C3.36032 4.32902 3.55109 4.25 3.75 4.25H5.25H5.5H6H6.5H6.75H11.25H11.4697H12H12.5303H12.75H14.25C14.4489 4.25 14.6397 4.32902 14.7803 4.46967C14.921 4.61032 15 4.80109 15 5V7.25V7.75V9.25V10.25V14.5ZM11.5428 6.86083C11.6342 6.89891 11.7171 6.9547 11.7868 7.025C11.8571 7.09472 11.9129 7.17767 11.951 7.26907C11.9891 7.36046 12.0087 7.45849 12.0087 7.5575C12.0087 7.65651 11.9891 7.75454 11.951 7.84593C11.9129 7.93733 11.8571 8.02028 11.7868 8.09L10.0618 9.8075L11.7868 11.525C11.8571 11.5947 11.9129 11.6777 11.951 11.7691C11.9891 11.8605 12.0087 11.9585 12.0087 12.0575C12.0087 12.1565 11.9891 12.2545 11.951 12.3459C11.9129 12.4373 11.8571 12.5203 11.7868 12.59C11.7171 12.6603 11.6342 12.7161 11.5428 12.7542C11.4514 12.7922 11.3534 12.8118 11.2543 12.8118C11.1553 12.8118 11.0573 12.7922 10.9659 12.7542C10.8745 12.7161 10.7916 12.6603 10.7218 12.59L9.00435 10.865L7.28685 12.59C7.21713 12.6603 7.13418 12.7161 7.04278 12.7542C6.95139 12.7922 6.85336 12.8118 6.75435 12.8118C6.65534 12.8118 6.55731 12.7922 6.46592 12.7542C6.37452 12.7161 6.29157 12.6603 6.22185 12.59C6.15155 12.5203 6.09576 12.4373 6.05768 12.3459C6.0196 12.2545 6 12.1565 6 12.0575C6 11.9585 6.0196 11.8605 6.05768 11.7691C6.09576 11.6777 6.15155 11.5947 6.22185 11.525L7.94685 9.8075L6.22185 8.09C6.08062 7.94877 6.00128 7.75723 6.00128 7.5575C6.00128 7.35777 6.08062 7.16623 6.22185 7.025C6.36308 6.88377 6.55462 6.80443 6.75435 6.80443C6.95407 6.80443 7.14562 6.88377 7.28685 7.025L9.00435 8.75L10.7218 7.025C10.7916 6.9547 10.8745 6.89891 10.9659 6.86083C11.0573 6.82276 11.1553 6.80315 11.2543 6.80315C11.3534 6.80315 11.4514 6.82276 11.5428 6.86083Z" fill="#808080"/>
</svg>
