<svg width="16" height="16" viewBox="0 0 16 16" fill="none" xmlns="http://www.w3.org/2000/svg">
<path d="M13.2672 8.43961C13.1604 8.31795 13.1014 8.16154 13.1014 7.99961C13.1014 7.83767 13.1604 7.68126 13.2672 7.55961L14.1206 6.59961C14.2146 6.49472 14.273 6.36274 14.2874 6.22261C14.3017 6.08248 14.2714 5.9414 14.2006 5.8196L12.8672 3.51294C12.7972 3.39129 12.6905 3.29486 12.5624 3.2374C12.4343 3.17994 12.2914 3.16438 12.1539 3.19294L10.9006 3.44627C10.7411 3.47922 10.5751 3.45266 10.4338 3.3716C10.2926 3.29055 10.1859 3.16059 10.1339 3.00627L9.72725 1.78627C9.68252 1.65386 9.59732 1.53885 9.48367 1.4575C9.37002 1.37615 9.23368 1.33258 9.09391 1.33294H6.42725C6.28187 1.32535 6.138 1.36556 6.01762 1.44741C5.89724 1.52927 5.80697 1.64828 5.76058 1.78627L5.38725 3.00627C5.33525 3.16059 5.22856 3.29055 5.08732 3.3716C4.94608 3.45266 4.78006 3.47922 4.62058 3.44627L3.33391 3.19294C3.20362 3.17453 3.07078 3.19509 2.95215 3.25203C2.83351 3.30898 2.73438 3.39976 2.66725 3.51294L1.33392 5.8196C1.26136 5.94004 1.22873 6.08033 1.2407 6.22042C1.25268 6.36051 1.30864 6.49323 1.40058 6.59961L2.24725 7.55961C2.35413 7.68126 2.41307 7.83767 2.41307 7.99961C2.41307 8.16154 2.35413 8.31795 2.24725 8.43961L1.40058 9.39961C1.30864 9.50598 1.25268 9.6387 1.2407 9.77879C1.22873 9.91888 1.26136 10.0592 1.33392 10.1796L2.66725 12.4863C2.73731 12.6079 2.84399 12.7044 2.97208 12.7618C3.10017 12.8193 3.24313 12.8348 3.38058 12.8063L4.63391 12.5529C4.79339 12.52 4.95942 12.5465 5.10066 12.6276C5.2419 12.7087 5.34858 12.8386 5.40058 12.9929L5.80725 14.2129C5.85363 14.3509 5.94391 14.4699 6.06429 14.5518C6.18467 14.6337 6.32854 14.6739 6.47391 14.6663H9.14058C9.28034 14.6666 9.41669 14.6231 9.53033 14.5417C9.64398 14.4604 9.72919 14.3454 9.77391 14.2129L10.1806 12.9929C10.2326 12.8386 10.3393 12.7087 10.4805 12.6276C10.6217 12.5465 10.7878 12.52 10.9472 12.5529L12.2006 12.8063C12.338 12.8348 12.481 12.8193 12.6091 12.7618C12.7372 12.7044 12.8439 12.6079 12.9139 12.4863L14.2472 10.1796C14.318 10.0578 14.3484 9.91673 14.334 9.7766C14.3197 9.63647 14.2613 9.50449 14.1672 9.39961L13.2672 8.43961ZM12.2739 9.33294L12.8072 9.93294L11.9539 11.4129L11.1672 11.2529C10.6871 11.1548 10.1876 11.2364 9.76364 11.4821C9.33966 11.7279 9.02068 12.1208 8.86725 12.5863L8.61391 13.3329H6.90725L6.66725 12.5729C6.51382 12.1075 6.19484 11.7146 5.77085 11.4688C5.34687 11.223 4.8474 11.1415 4.36725 11.2396L3.58058 11.3996L2.71392 9.92627L3.24725 9.32627C3.57522 8.95959 3.75654 8.48489 3.75654 7.99294C3.75654 7.50098 3.57522 7.02629 3.24725 6.65961L2.71392 6.05961L3.56725 4.59294L4.35391 4.75294C4.83406 4.85109 5.33353 4.76953 5.75752 4.52374C6.1815 4.27795 6.50048 3.88504 6.65391 3.4196L6.90725 2.66627H8.61391L8.86725 3.42627C9.02068 3.89171 9.33966 4.28462 9.76364 4.5304C10.1876 4.77619 10.6871 4.85775 11.1672 4.7596L11.9539 4.59961L12.8072 6.07961L12.2739 6.67961C11.9496 7.04545 11.7706 7.51739 11.7706 8.00627C11.7706 8.49515 11.9496 8.9671 12.2739 9.33294ZM7.76058 5.33294C7.23316 5.33294 6.71759 5.48934 6.27906 5.78235C5.84053 6.07537 5.49874 6.49185 5.2969 6.97912C5.09507 7.46639 5.04226 8.00256 5.14515 8.51985C5.24805 9.03713 5.50202 9.51228 5.87496 9.88522C6.2479 10.2582 6.72306 10.5121 7.24034 10.615C7.75762 10.7179 8.2938 10.6651 8.78107 10.4633C9.26834 10.2615 9.68482 9.91966 9.97783 9.48113C10.2709 9.04259 10.4272 8.52702 10.4272 7.99961C10.4272 7.29236 10.1463 6.61408 9.6462 6.11399C9.1461 5.61389 8.46783 5.33294 7.76058 5.33294ZM7.76058 9.33294C7.49687 9.33294 7.23909 9.25474 7.01982 9.10823C6.80056 8.96172 6.62966 8.75348 6.52874 8.50985C6.42783 8.26621 6.40142 7.99813 6.45287 7.73948C6.50431 7.48084 6.6313 7.24327 6.81777 7.0568C7.00424 6.87033 7.24182 6.74334 7.50046 6.69189C7.7591 6.64044 8.02719 6.66685 8.27083 6.76777C8.51446 6.86868 8.7227 7.03958 8.86921 7.25884C9.01572 7.47811 9.09391 7.7359 9.09391 7.99961C9.09391 8.35323 8.95344 8.69237 8.70339 8.94241C8.45334 9.19246 8.1142 9.33294 7.76058 9.33294Z" fill="#808080"/>
</svg>
