<svg width="18" height="18" viewBox="0 0 18 18" fill="none" xmlns="http://www.w3.org/2000/svg">
<path d="M14.25 2.25H3.75C3.15326 2.25 2.58097 2.48705 2.15901 2.90901C1.73705 3.33097 1.5 3.90326 1.5 4.5V10.5C1.5 11.0967 1.73705 11.669 2.15901 12.091C2.58097 12.5129 3.15326 12.75 3.75 12.75H8.25V14.25H5.25C5.05109 14.25 4.86032 14.329 4.71967 14.4697C4.57902 14.6103 4.5 14.8011 4.5 15C4.5 15.1989 4.57902 15.3897 4.71967 15.5303C4.86032 15.671 5.05109 15.75 5.25 15.75H12.75C12.9489 15.75 13.1397 15.671 13.2803 15.5303C13.421 15.3897 13.5 15.1989 13.5 15C13.5 14.8011 13.421 14.6103 13.2803 14.4697C13.1397 14.329 12.9489 14.25 12.75 14.25H9.75V12.75H14.25C14.8467 12.75 15.419 12.5129 15.841 12.091C16.2629 11.669 16.5 11.0967 16.5 10.5V4.5C16.5 3.90326 16.2629 3.33097 15.841 2.90901C15.419 2.48705 14.8467 2.25 14.25 2.25ZM15 10.5C15 10.6989 14.921 10.8897 14.7803 11.0303C14.6397 11.171 14.4489 11.25 14.25 11.25H3.75C3.55109 11.25 3.36032 11.171 3.21967 11.0303C3.07902 10.8897 3 10.6989 3 10.5V4.5C3 4.30109 3.07902 4.11032 3.21967 3.96967C3.36032 3.82902 3.55109 3.75 3.75 3.75H14.25C14.4489 3.75 14.6397 3.82902 14.7803 3.96967C14.921 4.11032 15 4.30109 15 4.5V10.5Z" fill="black"/>
</svg>
