<svg width="18" height="18" viewBox="0 0 18 18" fill="none" xmlns="http://www.w3.org/2000/svg">
<path d="M7.995 4.49999H13.5C13.6989 4.49999 13.8897 4.579 14.0303 4.71966C14.171 4.86031 14.25 5.05107 14.25 5.24999V9.74999C14.2509 9.88237 14.2145 10.0123 14.145 10.125C14.0923 10.2082 14.0565 10.301 14.0397 10.3981C14.0228 10.4951 14.0253 10.5945 14.0469 10.6906C14.0684 10.7868 14.1088 10.8777 14.1655 10.9582C14.2222 11.0387 14.2943 11.1073 14.3775 11.16C14.495 11.239 14.6335 11.2808 14.775 11.28C14.9005 11.2798 15.0239 11.2481 15.134 11.1878C15.2441 11.1275 15.3372 11.0406 15.405 10.935C15.6305 10.5809 15.7501 10.1698 15.75 9.74999V5.24999C15.75 4.65325 15.5129 4.08095 15.091 3.659C14.669 3.23704 14.0967 2.99999 13.5 2.99999H7.995C7.79609 2.99999 7.60532 3.079 7.46467 3.21966C7.32402 3.36031 7.245 3.55107 7.245 3.74999C7.245 3.9489 7.32402 4.13966 7.46467 4.28032C7.60532 4.42097 7.79609 4.49999 7.995 4.49999ZM16.2825 15.2175L4.395 3.33749L2.7825 1.71749C2.71257 1.64756 2.62956 1.59209 2.53819 1.55424C2.44682 1.5164 2.3489 1.49692 2.25 1.49692C2.15111 1.49692 2.05318 1.5164 1.96181 1.55424C1.87045 1.59209 1.78743 1.64756 1.7175 1.71749C1.57627 1.85871 1.49693 2.05026 1.49693 2.24999C1.49693 2.44971 1.57627 2.64126 1.7175 2.78249L2.7675 3.82499C2.43535 4.22582 2.25246 4.72942 2.25 5.24999V9.74999C2.25 10.3467 2.48705 10.919 2.90901 11.341C3.33097 11.7629 3.90326 12 4.5 12H8.25V13.5H5.25C5.05109 13.5 4.86032 13.579 4.71967 13.7197C4.57902 13.8603 4.5 14.0511 4.5 14.25C4.5 14.4489 4.57902 14.6397 4.71967 14.7803C4.86032 14.921 5.05109 15 5.25 15H12.75C12.9029 14.9984 13.0516 14.9501 13.1762 14.8617C13.3009 14.7732 13.3955 14.6487 13.4475 14.505L15.2175 16.2825C15.2872 16.3528 15.3702 16.4086 15.4616 16.4467C15.553 16.4847 15.651 16.5043 15.75 16.5043C15.849 16.5043 15.947 16.4847 16.0384 16.4467C16.1298 16.4086 16.2128 16.3528 16.2825 16.2825C16.3528 16.2128 16.4086 16.1298 16.4467 16.0384C16.4847 15.947 16.5044 15.849 16.5044 15.75C16.5044 15.651 16.4847 15.5529 16.4467 15.4616C16.4086 15.3702 16.3528 15.2872 16.2825 15.2175ZM4.5 10.5C4.30109 10.5 4.11032 10.421 3.96967 10.2803C3.82902 10.1397 3.75 9.9489 3.75 9.74999V5.24999C3.75183 5.12942 3.78271 5.01108 3.84 4.90499L9.4425 10.5H4.5ZM9.75 13.5V12H10.9425L12.4425 13.5H9.75Z" fill="black"/>
</svg>
