<svg width="18" height="18" viewBox="0 0 18 18" fill="none" xmlns="http://www.w3.org/2000/svg">
<path d="M3.75 6.9375C3.34208 6.9375 2.94331 7.05847 2.60414 7.2851C2.26496 7.51173 2.00061 7.83384 1.8445 8.21072C1.68839 8.58759 1.64755 9.00229 1.72713 9.40237C1.80671 9.80246 2.00315 10.17 2.29159 10.4584C2.58004 10.7469 2.94754 10.9433 3.34763 11.0229C3.74771 11.1025 4.16241 11.0616 4.53929 10.9055C4.91616 10.7494 5.23828 10.485 5.46491 10.1459C5.69154 9.80669 5.8125 9.40792 5.8125 9C5.8125 8.45299 5.5952 7.92839 5.20841 7.54159C4.82162 7.1548 4.29701 6.9375 3.75 6.9375ZM3.75 9.9375C3.56458 9.9375 3.38332 9.88252 3.22915 9.7795C3.07498 9.67649 2.95482 9.53007 2.88386 9.35877C2.81291 9.18746 2.79434 8.99896 2.83051 8.8171C2.86669 8.63525 2.95598 8.4682 3.08709 8.33709C3.2182 8.20598 3.38525 8.11669 3.5671 8.08051C3.74896 8.04434 3.93746 8.06291 4.10877 8.13386C4.28007 8.20482 4.42649 8.32498 4.5295 8.47915C4.63252 8.63332 4.6875 8.81458 4.6875 9C4.6875 9.24864 4.58873 9.4871 4.41291 9.66291C4.2371 9.83873 3.99864 9.9375 3.75 9.9375ZM9 6.9375C8.59208 6.9375 8.19331 7.05847 7.85414 7.2851C7.51496 7.51173 7.25061 7.83384 7.0945 8.21072C6.93839 8.58759 6.89755 9.00229 6.97713 9.40237C7.05671 9.80246 7.25315 10.17 7.54159 10.4584C7.83004 10.7469 8.19754 10.9433 8.59763 11.0229C8.99771 11.1025 9.41241 11.0616 9.78929 10.9055C10.1662 10.7494 10.4883 10.485 10.7149 10.1459C10.9415 9.80669 11.0625 9.40792 11.0625 9C11.0625 8.45299 10.8452 7.92839 10.4584 7.54159C10.0716 7.1548 9.54701 6.9375 9 6.9375ZM9 9.9375C8.81458 9.9375 8.63332 9.88252 8.47915 9.7795C8.32498 9.67649 8.20482 9.53007 8.13386 9.35877C8.06291 9.18746 8.04434 8.99896 8.08051 8.8171C8.11669 8.63525 8.20598 8.4682 8.33709 8.33709C8.4682 8.20598 8.63525 8.11669 8.8171 8.08051C8.99896 8.04434 9.18746 8.06291 9.35877 8.13386C9.53007 8.20482 9.67649 8.32498 9.7795 8.47915C9.88252 8.63332 9.9375 8.81458 9.9375 9C9.9375 9.24864 9.83873 9.4871 9.66291 9.66291C9.4871 9.83873 9.24864 9.9375 9 9.9375ZM14.25 5.8125C14.6579 5.8125 15.0567 5.69154 15.3959 5.46491C15.735 5.23828 15.9994 4.91616 16.1555 4.53929C16.3116 4.16241 16.3525 3.74771 16.2729 3.34763C16.1933 2.94754 15.9969 2.58004 15.7084 2.29159C15.42 2.00315 15.0525 1.80671 14.6524 1.72713C14.2523 1.64755 13.8376 1.68839 13.4607 1.8445C13.0838 2.00061 12.7617 2.26496 12.5351 2.60414C12.3085 2.94331 12.1875 3.34208 12.1875 3.75C12.1875 4.29701 12.4048 4.82162 12.7916 5.20841C13.1784 5.5952 13.703 5.8125 14.25 5.8125ZM14.25 2.8125C14.4354 2.8125 14.6167 2.86748 14.7708 2.9705C14.925 3.07351 15.0452 3.21993 15.1161 3.39124C15.1871 3.56254 15.2057 3.75104 15.1695 3.9329C15.1333 4.11476 15.044 4.2818 14.9129 4.41291C14.7818 4.54403 14.6148 4.63331 14.4329 4.66949C14.251 4.70566 14.0625 4.6871 13.8912 4.61614C13.7199 4.54518 13.5735 4.42502 13.4705 4.27085C13.3675 4.11668 13.3125 3.93542 13.3125 3.75C13.3125 3.50136 13.4113 3.2629 13.5871 3.08709C13.7629 2.91127 14.0014 2.8125 14.25 2.8125ZM14.25 6.9375C13.8421 6.9375 13.4433 7.05847 13.1041 7.2851C12.765 7.51173 12.5006 7.83384 12.3445 8.21072C12.1884 8.58759 12.1475 9.00229 12.2271 9.40237C12.3067 9.80246 12.5031 10.17 12.7916 10.4584C13.08 10.7469 13.4475 10.9433 13.8476 11.0229C14.2477 11.1025 14.6624 11.0616 15.0393 10.9055C15.4162 10.7494 15.7383 10.485 15.9649 10.1459C16.1915 9.80669 16.3125 9.40792 16.3125 9C16.3125 8.45299 16.0952 7.92839 15.7084 7.54159C15.3216 7.1548 14.797 6.9375 14.25 6.9375ZM14.25 9.9375C14.0646 9.9375 13.8833 9.88252 13.7292 9.7795C13.575 9.67649 13.4548 9.53007 13.3839 9.35877C13.3129 9.18746 13.2943 8.99896 13.3305 8.8171C13.3667 8.63525 13.456 8.4682 13.5871 8.33709C13.7182 8.20598 13.8852 8.11669 14.0671 8.08051C14.249 8.04434 14.4375 8.06291 14.6088 8.13386C14.7801 8.20482 14.9265 8.32498 15.0295 8.47915C15.1325 8.63332 15.1875 8.81458 15.1875 9C15.1875 9.24864 15.0887 9.4871 14.9129 9.66291C14.7371 9.83873 14.4986 9.9375 14.25 9.9375ZM3.75 1.6875C3.34208 1.6875 2.94331 1.80846 2.60414 2.03509C2.26496 2.26173 2.00061 2.58384 1.8445 2.96072C1.68839 3.33759 1.64755 3.75229 1.72713 4.15237C1.80671 4.55246 2.00315 4.91996 2.29159 5.20841C2.58004 5.49685 2.94754 5.69329 3.34763 5.77287C3.74771 5.85245 4.16241 5.81161 4.53929 5.6555C4.91616 5.4994 5.23828 5.23504 5.46491 4.89586C5.69154 4.55669 5.8125 4.15792 5.8125 3.75C5.8125 3.20299 5.5952 2.67839 5.20841 2.29159C4.82162 1.9048 4.29701 1.6875 3.75 1.6875ZM3.75 4.6875C3.56458 4.6875 3.38332 4.63252 3.22915 4.5295C3.07498 4.42649 2.95482 4.28007 2.88386 4.10877C2.81291 3.93746 2.79434 3.74896 2.83051 3.5671C2.86669 3.38525 2.95598 3.2182 3.08709 3.08709C3.2182 2.95598 3.38525 2.86669 3.5671 2.83051C3.74896 2.79434 3.93746 2.81291 4.10877 2.88386C4.28007 2.95482 4.42649 3.07498 4.5295 3.22915C4.63252 3.38332 4.6875 3.56458 4.6875 3.75C4.6875 3.99864 4.58873 4.2371 4.41291 4.41291C4.2371 4.58873 3.99864 4.6875 3.75 4.6875ZM9 12.1875C8.59208 12.1875 8.19331 12.3085 7.85414 12.5351C7.51496 12.7617 7.25061 13.0838 7.0945 13.4607C6.93839 13.8376 6.89755 14.2523 6.97713 14.6524C7.05671 15.0525 7.25315 15.42 7.54159 15.7084C7.83004 15.9969 8.19754 16.1933 8.59763 16.2729C8.99771 16.3525 9.41241 16.3116 9.78929 16.1555C10.1662 15.9994 10.4883 15.735 10.7149 15.3959C10.9415 15.0567 11.0625 14.6579 11.0625 14.25C11.0625 13.703 10.8452 13.1784 10.4584 12.7916C10.0716 12.4048 9.54701 12.1875 9 12.1875ZM9 15.1875C8.81458 15.1875 8.63332 15.1325 8.47915 15.0295C8.32498 14.9265 8.20482 14.7801 8.13386 14.6088C8.06291 14.4375 8.04434 14.249 8.08051 14.0671C8.11669 13.8852 8.20598 13.7182 8.33709 13.5871C8.4682 13.456 8.63525 13.3667 8.8171 13.3305C8.99896 13.2943 9.18746 13.3129 9.35877 13.3839C9.53007 13.4548 9.67649 13.575 9.7795 13.7292C9.88252 13.8833 9.9375 14.0646 9.9375 14.25C9.9375 14.4986 9.83873 14.7371 9.66291 14.9129C9.4871 15.0887 9.24864 15.1875 9 15.1875ZM9 1.6875C8.59208 1.6875 8.19331 1.80846 7.85414 2.03509C7.51496 2.26173 7.25061 2.58384 7.0945 2.96072C6.93839 3.33759 6.89755 3.75229 6.97713 4.15237C7.05671 4.55246 7.25315 4.91996 7.54159 5.20841C7.83004 5.49685 8.19754 5.69329 8.59763 5.77287C8.99771 5.85245 9.41241 5.81161 9.78929 5.6555C10.1662 5.4994 10.4883 5.23504 10.7149 4.89586C10.9415 4.55669 11.0625 4.15792 11.0625 3.75C11.0625 3.20299 10.8452 2.67839 10.4584 2.29159C10.0716 1.9048 9.54701 1.6875 9 1.6875ZM9 4.6875C8.81458 4.6875 8.63332 4.63252 8.47915 4.5295C8.32498 4.42649 8.20482 4.28007 8.13386 4.10877C8.06291 3.93746 8.04434 3.74896 8.08051 3.5671C8.11669 3.38525 8.20598 3.2182 8.33709 3.08709C8.4682 2.95598 8.63525 2.86669 8.8171 2.83051C8.99896 2.79434 9.18746 2.81291 9.35877 2.88386C9.53007 2.95482 9.67649 3.07498 9.7795 3.22915C9.88252 3.38332 9.9375 3.56458 9.9375 3.75C9.9375 3.99864 9.83873 4.2371 9.66291 4.41291C9.4871 4.58873 9.24864 4.6875 9 4.6875Z" fill="black"/>
</svg>
