<svg width="18" height="18" viewBox="0 0 18 18" fill="none" xmlns="http://www.w3.org/2000/svg">
<path d="M6.375 7.5C6.07833 7.5 5.78832 7.58797 5.54165 7.7528C5.29497 7.91762 5.10271 8.15189 4.98918 8.42598C4.87565 8.70007 4.84594 9.00166 4.90382 9.29264C4.9617 9.58361 5.10456 9.85088 5.31434 10.0607C5.52412 10.2704 5.79139 10.4133 6.08237 10.4712C6.37334 10.5291 6.67494 10.4994 6.94903 10.3858C7.22312 10.2723 7.45738 10.08 7.62221 9.83336C7.78703 9.58668 7.875 9.29667 7.875 9C7.875 8.60218 7.71697 8.22065 7.43566 7.93934C7.15436 7.65804 6.77283 7.5 6.375 7.5ZM6.375 12.75C6.07833 12.75 5.78832 12.838 5.54165 13.0028C5.29497 13.1676 5.10271 13.4019 4.98918 13.676C4.87565 13.9501 4.84594 14.2517 4.90382 14.5426C4.9617 14.8336 5.10456 15.1009 5.31434 15.3107C5.52412 15.5204 5.79139 15.6633 6.08237 15.7212C6.37334 15.7791 6.67494 15.7494 6.94903 15.6358C7.22312 15.5223 7.45738 15.33 7.62221 15.0834C7.78703 14.8367 7.875 14.5467 7.875 14.25C7.875 13.8522 7.71697 13.4706 7.43566 13.1893C7.15436 12.908 6.77283 12.75 6.375 12.75ZM11.625 5.25C11.9217 5.25 12.2117 5.16203 12.4584 4.99721C12.705 4.83238 12.8973 4.59812 13.0108 4.32403C13.1244 4.04994 13.1541 3.74834 13.0962 3.45737C13.0383 3.16639 12.8954 2.89912 12.6857 2.68934C12.4759 2.47956 12.2086 2.3367 11.9176 2.27882C11.6267 2.22094 11.3251 2.25065 11.051 2.36418C10.7769 2.47771 10.5426 2.66997 10.3778 2.91665C10.213 3.16332 10.125 3.45333 10.125 3.75C10.125 4.14783 10.283 4.52936 10.5643 4.81066C10.8456 5.09197 11.2272 5.25 11.625 5.25ZM6.375 2.25C6.07833 2.25 5.78832 2.33797 5.54165 2.5028C5.29497 2.66762 5.10271 2.90189 4.98918 3.17598C4.87565 3.45006 4.84594 3.75166 4.90382 4.04264C4.9617 4.33361 5.10456 4.60088 5.31434 4.81066C5.52412 5.02044 5.79139 5.1633 6.08237 5.22118C6.37334 5.27906 6.67494 5.24935 6.94903 5.13582C7.22312 5.02229 7.45738 4.83003 7.62221 4.58336C7.78703 4.33668 7.875 4.04667 7.875 3.75C7.875 3.35218 7.71697 2.97064 7.43566 2.68934C7.15436 2.40804 6.77283 2.25 6.375 2.25ZM11.625 12.75C11.3283 12.75 11.0383 12.838 10.7916 13.0028C10.545 13.1676 10.3527 13.4019 10.2392 13.676C10.1257 13.9501 10.0959 14.2517 10.1538 14.5426C10.2117 14.8336 10.3546 15.1009 10.5643 15.3107C10.7741 15.5204 11.0414 15.6633 11.3324 15.7212C11.6233 15.7791 11.9249 15.7494 12.199 15.6358C12.4731 15.5223 12.7074 15.33 12.8722 15.0834C13.037 14.8367 13.125 14.5467 13.125 14.25C13.125 13.8522 12.967 13.4706 12.6857 13.1893C12.4044 12.908 12.0228 12.75 11.625 12.75ZM11.625 7.5C11.3283 7.5 11.0383 7.58797 10.7916 7.7528C10.545 7.91762 10.3527 8.15189 10.2392 8.42598C10.1257 8.70007 10.0959 9.00166 10.1538 9.29264C10.2117 9.58361 10.3546 9.85088 10.5643 10.0607C10.7741 10.2704 11.0414 10.4133 11.3324 10.4712C11.6233 10.5291 11.9249 10.4994 12.199 10.3858C12.4731 10.2723 12.7074 10.08 12.8722 9.83336C13.037 9.58668 13.125 9.29667 13.125 9C13.125 8.60218 12.967 8.22065 12.6857 7.93934C12.4044 7.65804 12.0228 7.5 11.625 7.5Z" fill="#B3B3B3"/>
</svg>
