<svg width="18" height="18" viewBox="0 0 18 18" fill="none" xmlns="http://www.w3.org/2000/svg">
<path d="M9.00001 12C8.85167 12 8.70667 12.044 8.58333 12.1264C8.45999 12.2088 8.36386 12.3259 8.3071 12.463C8.25033 12.6 8.23548 12.7508 8.26442 12.8963C8.29336 13.0418 8.36479 13.1754 8.46968 13.2803C8.57457 13.3852 8.7082 13.4566 8.85369 13.4856C8.99917 13.5145 9.14997 13.4997 9.28702 13.4429C9.42406 13.3861 9.5412 13.29 9.62361 13.1667C9.70602 13.0433 9.75001 12.8983 9.75001 12.75C9.75001 12.5511 9.67099 12.3603 9.53034 12.2197C9.38968 12.079 9.19892 12 9.00001 12ZM17.0025 13.1025L10.965 2.60249C10.7699 2.25263 10.4848 1.96121 10.1394 1.75834C9.79396 1.55547 9.40061 1.44852 9.00001 1.44852C8.5994 1.44852 8.20606 1.55547 7.86061 1.75834C7.51517 1.96121 7.23015 2.25263 7.03501 2.60249L1.03501 13.1025C0.833103 13.443 0.724613 13.8308 0.72049 14.2266C0.716366 14.6225 0.816755 15.0124 1.01152 15.357C1.20629 15.7017 1.48853 15.9888 1.82977 16.1895C2.171 16.3902 2.55915 16.4973 2.95501 16.5H15.045C15.444 16.5039 15.837 16.4017 16.1834 16.2037C16.5299 16.0057 16.8175 15.7191 17.0167 15.3734C17.216 15.0276 17.3196 14.635 17.3171 14.236C17.3146 13.8369 17.206 13.4457 17.0025 13.1025ZM15.705 14.6025C15.6393 14.7195 15.5434 14.8166 15.4273 14.8839C15.3112 14.9512 15.1792 14.9861 15.045 14.985H2.95501C2.82084 14.9861 2.68883 14.9512 2.57274 14.8839C2.45666 14.8166 2.36075 14.7195 2.29501 14.6025C2.22918 14.4885 2.19453 14.3591 2.19453 14.2275C2.19453 14.0958 2.22918 13.9665 2.29501 13.8525L8.29501 3.35249C8.35794 3.22964 8.45357 3.12654 8.57134 3.05455C8.68911 2.98255 8.82447 2.94446 8.96251 2.94446C9.10054 2.94446 9.2359 2.98255 9.35367 3.05455C9.47145 3.12654 9.56707 3.22964 9.63001 3.35249L15.6675 13.8525C15.7419 13.9649 15.7847 14.0952 15.7913 14.2298C15.7979 14.3645 15.7681 14.4984 15.705 14.6175V14.6025ZM9.00001 5.99999C8.80109 5.99999 8.61033 6.07901 8.46968 6.21966C8.32902 6.36031 8.25001 6.55108 8.25001 6.74999V9.74999C8.25001 9.9489 8.32902 10.1397 8.46968 10.2803C8.61033 10.421 8.80109 10.5 9.00001 10.5C9.19892 10.5 9.38968 10.421 9.53034 10.2803C9.67099 10.1397 9.75001 9.9489 9.75001 9.74999V6.74999C9.75001 6.55108 9.67099 6.36031 9.53034 6.21966C9.38968 6.07901 9.19892 5.99999 9.00001 5.99999Z" fill="black"/>
</svg>
