<svg width="18" height="18" viewBox="0 0 18 18" fill="none" xmlns="http://www.w3.org/2000/svg">
<path d="M8.20499 4.55999C8.46806 4.51966 8.73384 4.4996 8.99999 4.49999C11.385 4.49999 13.6275 6.21749 14.9325 8.99999C14.7329 9.42343 14.5075 9.83421 14.2575 10.23C14.1781 10.3528 14.1364 10.4962 14.1375 10.6425C14.1392 10.8062 14.1943 10.9648 14.2946 11.0942C14.3948 11.2236 14.5347 11.3166 14.6927 11.3591C14.8508 11.4016 15.0185 11.3912 15.1701 11.3295C15.3217 11.2679 15.449 11.1583 15.5325 11.0175C15.8819 10.4684 16.1855 9.89148 16.44 9.29249C16.4802 9.1989 16.501 9.0981 16.501 8.99624C16.501 8.89437 16.4802 8.79357 16.44 8.69999C14.925 5.18249 12.075 2.99999 8.99999 2.99999C8.64799 2.99821 8.29655 3.02834 7.94999 3.08999C7.8515 3.10673 7.75727 3.14271 7.67268 3.19587C7.58809 3.24903 7.5148 3.31833 7.457 3.39981C7.3992 3.4813 7.35801 3.57337 7.33578 3.67077C7.31356 3.76817 7.31074 3.869 7.32749 3.96749C7.34423 4.06598 7.38021 4.16021 7.43337 4.24479C7.48653 4.32938 7.55583 4.40267 7.63731 4.46047C7.7188 4.51828 7.81087 4.55947 7.90827 4.58169C8.00567 4.60391 8.10649 4.60673 8.20499 4.58999V4.55999ZM2.78249 1.71749C2.71256 1.64756 2.62954 1.59209 2.53817 1.55424C2.44681 1.5164 2.34888 1.49692 2.24999 1.49692C2.15109 1.49692 2.05317 1.5164 1.9618 1.55424C1.87043 1.59209 1.78742 1.64756 1.71749 1.71749C1.57626 1.85871 1.49692 2.05026 1.49692 2.24999C1.49692 2.44971 1.57626 2.64126 1.71749 2.78249L4.04249 5.09999C2.98167 6.12113 2.13738 7.34548 1.55999 8.69999C1.51869 8.79461 1.49737 8.89674 1.49737 8.99999C1.49737 9.10323 1.51869 9.20536 1.55999 9.29999C3.07499 12.8175 5.92499 15 8.99999 15C10.3478 14.9907 11.6638 14.5894 12.7875 13.845L15.2175 16.2825C15.2872 16.3528 15.3702 16.4086 15.4616 16.4467C15.5529 16.4847 15.651 16.5043 15.75 16.5043C15.849 16.5043 15.947 16.4847 16.0384 16.4467C16.1298 16.4086 16.2128 16.3528 16.2825 16.2825C16.3528 16.2128 16.4086 16.1298 16.4467 16.0384C16.4847 15.947 16.5043 15.849 16.5043 15.75C16.5043 15.651 16.4847 15.5529 16.4467 15.4616C16.4086 15.3702 16.3528 15.2872 16.2825 15.2175L2.78249 1.71749ZM7.55249 8.60999L9.38999 10.4475C9.26323 10.4838 9.13185 10.5015 8.99999 10.5C8.60216 10.5 8.22063 10.342 7.93933 10.0606C7.65802 9.77934 7.49999 9.39781 7.49999 8.99999C7.49845 8.86813 7.51614 8.73675 7.55249 8.60999ZM8.99999 13.5C6.61499 13.5 4.37249 11.7825 3.07499 8.99999C3.55955 7.9303 4.24729 6.96492 5.09999 6.15749L6.42749 7.49999C6.11567 8.06908 5.99679 8.72394 6.08868 9.36633C6.18057 10.0087 6.47827 10.604 6.93713 11.0628C7.39599 11.5217 7.99126 11.8194 8.63364 11.9113C9.27603 12.0032 9.93089 11.8843 10.5 11.5725L11.6925 12.75C10.8758 13.2306 9.94755 13.4892 8.99999 13.5Z" fill="black"/>
</svg>
