<svg width="18" height="18" viewBox="0 0 18 18" fill="none" xmlns="http://www.w3.org/2000/svg">
<path d="M16.44 8.7C14.925 5.1825 12.075 3 9 3C5.925 3 3.075 5.1825 1.56 8.7C1.5187 8.79462 1.49738 8.89676 1.49738 9C1.49738 9.10324 1.5187 9.20538 1.56 9.3C3.075 12.8175 5.925 15 9 15C12.075 15 14.925 12.8175 16.44 9.3C16.4813 9.20538 16.5026 9.10324 16.5026 9C16.5026 8.89676 16.4813 8.79462 16.44 8.7ZM9 13.5C6.6225 13.5 4.3725 11.7825 3.075 9C4.3725 6.2175 6.6225 4.5 9 4.5C11.3775 4.5 13.6275 6.2175 14.925 9C13.6275 11.7825 11.3775 13.5 9 13.5ZM9 6C8.40665 6 7.82663 6.17595 7.33329 6.50559C6.83994 6.83524 6.45542 7.30377 6.22836 7.85195C6.0013 8.40013 5.94188 9.00333 6.05764 9.58527C6.1734 10.1672 6.45912 10.7018 6.87868 11.1213C7.29823 11.5409 7.83278 11.8266 8.41473 11.9424C8.99667 12.0581 9.59987 11.9987 10.148 11.7716C10.6962 11.5446 11.1648 11.1601 11.4944 10.6667C11.824 10.1734 12 9.59334 12 9C12 8.20435 11.6839 7.44129 11.1213 6.87868C10.5587 6.31607 9.79565 6 9 6ZM9 10.5C8.70332 10.5 8.41332 10.412 8.16664 10.2472C7.91997 10.0824 7.72771 9.84811 7.61418 9.57403C7.50065 9.29994 7.47094 8.99834 7.52882 8.70736C7.5867 8.41639 7.72956 8.14912 7.93934 7.93934C8.14912 7.72956 8.41639 7.5867 8.70736 7.52882C8.99833 7.47094 9.29993 7.50065 9.57402 7.61418C9.84811 7.72771 10.0824 7.91997 10.2472 8.16665C10.412 8.41332 10.5 8.70333 10.5 9C10.5 9.39782 10.342 9.77936 10.0607 10.0607C9.77935 10.342 9.39782 10.5 9 10.5Z" fill="black"/>
</svg>
