<svg width="18" height="18" viewBox="0 0 18 18" fill="none" xmlns="http://www.w3.org/2000/svg">
<path d="M17.56 12.7596C17.3201 12.7596 17.1201 12.9595 17.1201 13.1995V15.0393C17.1201 16.1792 16.2002 17.0991 15.0603 17.0991H13.0606C12.8206 17.0991 12.6206 17.299 12.6206 17.539C12.6206 17.779 12.8206 17.979 13.0606 17.979H15.0603C16.6801 17.979 18 16.6591 18 15.0393V13.1995C18 12.9595 17.8 12.7596 17.56 12.7596Z" fill="black"/>
<path d="M15.0603 0.0209961H13.0606C12.8206 0.0209961 12.6206 0.220973 12.6206 0.460946C12.6206 0.700919 12.8206 0.900896 13.0606 0.900896H15.0603C16.2002 0.900896 17.1201 1.82079 17.1201 2.96066V5.10042C17.1201 5.34039 17.3201 5.54037 17.56 5.54037C17.8 5.54037 18 5.34039 18 5.10042V2.96066C18 1.34085 16.6801 0.0209961 15.0603 0.0209961Z" fill="black"/>
<path d="M12.8006 8.77998C13.1006 8.77998 13.3405 8.54 13.3605 8.24004V6.8002C13.3605 6.48024 13.1206 6.24026 12.8006 6.24026C12.4806 6.24026 12.2407 6.50024 12.2407 6.8002V8.22004C12.2407 8.54 12.5006 8.77998 12.8006 8.77998Z" fill="black"/>
<path d="M11.7607 12.6596C11.0407 13.3795 10.0808 13.7794 9.10096 13.7794H8.94098C7.94109 13.7794 7.0012 13.3795 6.28128 12.6596C6.1213 12.4796 5.84133 12.4796 5.66135 12.6596C5.48137 12.8195 5.48137 13.0995 5.66135 13.2795C6.56125 14.1794 7.72112 14.6593 8.94098 14.6593H9.10096C10.3208 14.6593 11.5007 14.1794 12.3806 13.2795C12.5606 13.1195 12.5606 12.8395 12.3806 12.6596C12.2206 12.4796 11.9406 12.4796 11.7607 12.6596Z" fill="black"/>
<path d="M7.92115 11.4397H8.02114C8.92104 11.4397 9.64096 10.7198 9.64096 9.83986V6.80021C9.64096 6.56024 9.44098 6.36026 9.20101 6.36026C8.96103 6.36026 8.76106 6.56024 8.76106 6.80021V9.81987C8.76106 10.2398 8.42109 10.5598 8.02114 10.5598H7.92115C7.68118 10.5598 7.4812 10.7598 7.4812 10.9997C7.4812 11.2397 7.68118 11.4397 7.92115 11.4397Z" fill="black"/>
<path d="M4.96146 6.24026C4.64149 6.24026 4.40152 6.50024 4.40152 6.8002V8.22004C4.40152 8.54 4.66149 8.77998 4.96146 8.77998C5.28142 8.77998 5.52139 8.54 5.52139 8.24004V6.8002C5.52139 6.48024 5.26142 6.24026 4.96146 6.24026Z" fill="black"/>
<path d="M0.482003 5.54037C0.721976 5.54037 0.921953 5.34039 0.921953 5.10042V2.96066C0.921953 1.82079 1.84185 0.900896 2.98172 0.900896H4.98149C5.22146 0.900896 5.42144 0.700919 5.42144 0.460946C5.42144 0.220973 5.22146 0.0209961 4.98149 0.0209961H2.98172C1.3619 0.0209961 0.0420532 1.34085 0.0420532 2.96066V5.10042C0.0420532 5.34039 0.24203 5.54037 0.482003 5.54037Z" fill="black"/>
<path d="M4.96147 17.0991H2.9617C1.82183 17.0991 0.901933 16.1792 0.901933 15.0393V13.1995C0.901933 12.9595 0.701956 12.7596 0.461984 12.7596C0.222011 12.7596 0.0220337 12.9595 0.0220337 13.1995V15.0393C0.0220337 16.6591 1.34188 17.979 2.9617 17.979H4.96147C5.22144 17.979 5.40142 17.779 5.40142 17.539C5.40142 17.299 5.20144 17.0991 4.96147 17.0991Z" fill="black"/>
</svg>
