<svg width="41" height="40" viewBox="0 0 41 40" fill="none" xmlns="http://www.w3.org/2000/svg">
<path d="M39.4343 25.0245C39.1136 25.0245 38.8463 25.2918 38.8463 25.6125V28.0713C38.8463 29.5947 37.6169 30.8241 36.0935 30.8241H33.4209C33.1002 30.8241 32.8329 31.0913 32.8329 31.412C32.8329 31.7327 33.1002 32 33.4209 32H36.0935C38.2583 32 40.0223 30.2361 40.0223 28.0713V25.6125C40.0223 25.2918 39.755 25.0245 39.4343 25.0245Z" fill="black"/>
<path d="M36.0935 8H33.4209C33.1002 8 32.8329 8.26726 32.8329 8.58797C32.8329 8.90869 33.1002 9.17595 33.4209 9.17595H36.0935C37.6169 9.17595 38.8463 10.4053 38.8463 11.9287V14.7884C38.8463 15.1091 39.1136 15.3764 39.4343 15.3764C39.755 15.3764 40.0223 15.1091 40.0223 14.7884V11.9287C40.0223 9.76392 38.2583 8 36.0935 8Z" fill="black"/>
<path d="M33.0735 19.706C33.4744 19.706 33.7951 19.3853 33.8219 18.9844V17.0601C33.8219 16.6325 33.5011 16.3118 33.0735 16.3118C32.6459 16.3118 32.3252 16.6592 32.3252 17.0601V18.9577C32.3252 19.3853 32.6726 19.706 33.0735 19.706Z" fill="black"/>
<path d="M31.6837 24.8908C30.7216 25.853 29.4387 26.3875 28.1291 26.3875H27.9153C26.579 26.3875 25.3229 25.853 24.3608 24.8908C24.147 24.6503 23.7728 24.6503 23.5323 24.8908C23.2917 25.1047 23.2917 25.4788 23.5323 25.7194C24.7349 26.922 26.285 27.5635 27.9153 27.5635H28.1291C29.7594 27.5635 31.3363 26.922 32.5122 25.7194C32.7528 25.5055 32.7528 25.1314 32.5122 24.8908C32.2984 24.6503 31.9242 24.6503 31.6837 24.8908Z" fill="black"/>
<path d="M26.5523 23.2606H26.686C27.8886 23.2606 28.8508 22.2984 28.8508 21.1225V17.0601C28.8508 16.7394 28.5835 16.4721 28.2628 16.4721C27.9421 16.4721 27.6748 16.7394 27.6748 17.0601V21.0957C27.6748 21.657 27.2205 22.0846 26.686 22.0846H26.5523C26.2316 22.0846 25.9644 22.3519 25.9644 22.6726C25.9644 22.9933 26.2316 23.2606 26.5523 23.2606Z" fill="black"/>
<path d="M22.5968 16.3118C22.1692 16.3118 21.8485 16.6592 21.8485 17.0601V18.9577C21.8485 19.3853 22.1959 19.706 22.5968 19.706C23.0245 19.706 23.3452 19.3853 23.3452 18.9844V17.0601C23.3452 16.6325 22.9977 16.3118 22.5968 16.3118Z" fill="black"/>
<path d="M16.6103 15.3764C16.931 15.3764 17.1983 15.1091 17.1983 14.7884V11.9287C17.1983 10.4053 18.4277 9.17595 19.951 9.17595H22.6236C22.9444 9.17595 23.2116 8.90869 23.2116 8.58797C23.2116 8.26726 22.9444 8 22.6236 8H19.951C17.7862 8 16.0223 9.76392 16.0223 11.9287V14.7884C16.0223 15.1091 16.2896 15.3764 16.6103 15.3764Z" fill="black"/>
<path d="M22.5969 30.8241H19.9243C18.4009 30.8241 17.1715 29.5947 17.1715 28.0713V25.6125C17.1715 25.2918 16.9043 25.0245 16.5835 25.0245C16.2628 25.0245 15.9956 25.2918 15.9956 25.6125V28.0713C15.9956 30.2361 17.7595 32 19.9243 32H22.5969C22.9443 32 23.1849 31.7327 23.1849 31.412C23.1849 31.0913 22.9176 30.8241 22.5969 30.8241Z" fill="black"/>
</svg>
