<svg width="40" height="40" viewBox="0 0 40 40" fill="none" xmlns="http://www.w3.org/2000/svg">
<path d="M39.0223 28.3546C38.489 28.3546 38.0446 28.799 38.0446 29.3323V33.4207C38.0446 35.9537 36.0004 37.998 33.4674 37.998H29.0234C28.4902 37.998 28.0458 38.4424 28.0458 38.9756C28.0458 39.5089 28.4902 39.9533 29.0234 39.9533H33.4674C37.067 39.9533 40 37.0203 40 33.4207V29.3323C40 28.799 39.5556 28.3546 39.0223 28.3546Z" fill="black"/>
<path d="M33.4674 0.0466919H29.0234C28.4902 0.0466919 28.0458 0.491086 28.0458 1.02436C28.0458 1.55763 28.4902 2.00203 29.0234 2.00203H33.4674C36.0004 2.00203 38.0446 4.04624 38.0446 6.57928V11.3343C38.0446 11.8676 38.489 12.312 39.0223 12.312C39.5556 12.312 40 11.8676 40 11.3343V6.57928C40 2.97969 37.067 0.0466919 33.4674 0.0466919Z" fill="black"/>
<path d="M28.4457 19.5111C29.1123 19.5111 29.6456 18.9778 29.69 18.3112V15.1116C29.69 14.4006 29.1568 13.8673 28.4457 13.8673C27.7347 13.8673 27.2014 14.445 27.2014 15.1116V18.2668C27.2014 18.9778 27.7791 19.5111 28.4457 19.5111Z" fill="black"/>
<path d="M26.1348 28.1324C24.535 29.7322 22.4019 30.621 20.2244 30.621H19.8688C17.6469 30.621 15.5582 29.7322 13.9584 28.1324C13.6029 27.7324 12.9807 27.7324 12.5808 28.1324C12.1808 28.4879 12.1808 29.11 12.5808 29.51C14.5806 31.5098 17.158 32.5763 19.8688 32.5763H20.2244C22.9352 32.5763 25.5571 31.5098 27.5124 29.51C27.9124 29.1545 27.9124 28.5323 27.5124 28.1324C27.1569 27.7324 26.5348 27.7324 26.1348 28.1324Z" fill="black"/>
<path d="M17.6025 25.4216H17.8247C19.8245 25.4216 21.4243 23.8218 21.4243 21.8664V15.1116C21.4243 14.5784 20.9799 14.134 20.4467 14.134C19.9134 14.134 19.469 14.5784 19.469 15.1116V21.822C19.469 22.7552 18.7135 23.4662 17.8247 23.4662H17.6025C17.0693 23.4662 16.6249 23.9106 16.6249 24.4439C16.6249 24.9772 17.0693 25.4216 17.6025 25.4216Z" fill="black"/>
<path d="M11.0254 13.8673C10.3144 13.8673 9.78113 14.445 9.78113 15.1116V18.2668C9.78113 18.9778 10.3588 19.5111 11.0254 19.5111C11.7365 19.5111 12.2697 18.9778 12.2697 18.3112V15.1116C12.2697 14.4006 11.692 13.8673 11.0254 13.8673Z" fill="black"/>
<path d="M1.07105 12.312C1.60432 12.312 2.04872 11.8676 2.04872 11.3343V6.57928C2.04872 4.04624 4.09293 2.00203 6.62597 2.00203H11.0699C11.6032 2.00203 12.0476 1.55763 12.0476 1.02436C12.0476 0.491086 11.6032 0.0466919 11.0699 0.0466919H6.62597C3.02638 0.0466919 0.0933838 2.97969 0.0933838 6.57928V11.3343C0.0933838 11.8676 0.537778 12.312 1.07105 12.312Z" fill="black"/>
<path d="M11.0255 37.998H6.58154C4.0485 37.998 2.00428 35.9537 2.00428 33.4207V29.3323C2.00428 28.799 1.55989 28.3546 1.02662 28.3546C0.493344 28.3546 0.0489502 28.799 0.0489502 29.3323V33.4207C0.0489502 37.0203 2.98195 39.9533 6.58154 39.9533H11.0255C11.6032 39.9533 12.0031 39.5089 12.0031 38.9756C12.0031 38.4424 11.5588 37.998 11.0255 37.998Z" fill="black"/>
</svg>
