<svg width="10" height="12" viewBox="0 0 10 12" fill="none" xmlns="http://www.w3.org/2000/svg">
<path d="M9.66671 4.21533C9.66063 4.16174 9.6489 4.10894 9.63171 4.05783V4.00533C9.60366 3.94535 9.56625 3.89021 9.52087 3.84199L6.02087 0.341992C5.97265 0.296618 5.91752 0.259206 5.85754 0.231159C5.84013 0.228686 5.82245 0.228686 5.80504 0.231159C5.74578 0.197175 5.68034 0.17536 5.61254 0.166992H2.08337C1.61925 0.166992 1.17413 0.351367 0.845937 0.679555C0.517749 1.00774 0.333374 1.45286 0.333374 1.91699V10.0837C0.333374 10.5478 0.517749 10.9929 0.845937 11.3211C1.17413 11.6493 1.61925 11.8337 2.08337 11.8337H7.91671C8.38084 11.8337 8.82596 11.6493 9.15415 11.3211C9.48233 10.9929 9.66671 10.5478 9.66671 10.0837V4.25033C9.66671 4.25033 9.66671 4.25033 9.66671 4.21533ZM6.16671 2.15616L7.67754 3.66699H6.75004C6.59533 3.66699 6.44696 3.60553 6.33756 3.49614C6.22817 3.38674 6.16671 3.23837 6.16671 3.08366V2.15616ZM8.50004 10.0837C8.50004 10.2384 8.43858 10.3867 8.32919 10.4961C8.21979 10.6055 8.07142 10.667 7.91671 10.667H2.08337C1.92866 10.667 1.78029 10.6055 1.6709 10.4961C1.5615 10.3867 1.50004 10.2384 1.50004 10.0837V1.91699C1.50004 1.76228 1.5615 1.61391 1.6709 1.50451C1.78029 1.39512 1.92866 1.33366 2.08337 1.33366H5.00004V3.08366C5.00004 3.54779 5.18442 3.99291 5.5126 4.3211C5.84079 4.64928 6.28591 4.83366 6.75004 4.83366H8.50004V10.0837ZM6.33587 6.16949L4.41671 8.09449L3.66421 7.33616C3.55436 7.22631 3.40538 7.16461 3.25004 7.16461C3.0947 7.16461 2.94572 7.22631 2.83587 7.33616C2.72603 7.446 2.66432 7.59498 2.66432 7.75033C2.66432 7.90567 2.72603 8.05465 2.83587 8.16449L4.00254 9.33116C4.05677 9.38583 4.12129 9.42923 4.19237 9.45885C4.26346 9.48846 4.3397 9.50371 4.41671 9.50371C4.49371 9.50371 4.56996 9.48846 4.64104 9.45885C4.71213 9.42923 4.77665 9.38583 4.83087 9.33116L7.16421 6.99783C7.27405 6.88798 7.33576 6.739 7.33576 6.58366C7.33576 6.42832 7.27405 6.27934 7.16421 6.16949C7.05436 6.05965 6.90538 5.99794 6.75004 5.99794C6.5947 5.99794 6.44572 6.05965 6.33587 6.16949Z" fill="#808080"/>
</svg>
