<svg width="16" height="16" viewBox="0 0 16 16" fill="none" xmlns="http://www.w3.org/2000/svg">
<path d="M14.2948 7.36629L8.16816 13.493C7.4176 14.2435 6.39962 14.6652 5.33816 14.6652C4.27671 14.6652 3.25872 14.2435 2.50816 13.493C1.7576 12.7424 1.33594 11.7244 1.33594 10.663C1.33594 9.6015 1.7576 8.58352 2.50816 7.83295L8.63483 1.70629C9.1352 1.20591 9.81386 0.924805 10.5215 0.924805C11.2291 0.924805 11.9078 1.20591 12.4082 1.70629C12.9085 2.20666 13.1896 2.88532 13.1896 3.59295C13.1896 4.30059 12.9085 4.97925 12.4082 5.47962L6.27483 11.6063C6.02464 11.8565 5.68531 11.997 5.3315 11.997C4.97768 11.997 4.63835 11.8565 4.38816 11.6063C4.13797 11.3561 3.99742 11.0168 3.99742 10.663C3.99742 10.3091 4.13797 9.96981 4.38816 9.71962L10.0482 4.06629" stroke="#808080" stroke-width="1.33333" stroke-linecap="round" stroke-linejoin="round"/>
</svg>
