<svg width="12" height="16" viewBox="0 0 12 16" fill="none" xmlns="http://www.w3.org/2000/svg">
<path d="M11.9175 6.16296C11.8552 6.03927 11.7598 5.93526 11.642 5.86245C11.5242 5.78964 11.3885 5.75088 11.25 5.75046H7.50002V1.25046C7.50807 1.08597 7.46175 0.923408 7.36822 0.78786C7.2747 0.652311 7.13915 0.551315 6.98252 0.50046C6.83194 0.450917 6.66953 0.45036 6.51861 0.498869C6.3677 0.547378 6.23603 0.642458 6.14252 0.77046L0.142518 9.02046C0.0673425 9.12911 0.0222022 9.25569 0.0116661 9.38739C0.00113003 9.51909 0.0255721 9.65124 0.0825183 9.77046C0.13496 9.90677 0.226059 10.0248 0.344636 10.1101C0.463212 10.1953 0.604104 10.2441 0.750018 10.2505H4.50002V14.7505C4.50013 14.9086 4.55025 15.0627 4.64319 15.1907C4.73613 15.3186 4.86715 15.4139 5.01752 15.463C5.09287 15.4863 5.17114 15.4989 5.25002 15.5005C5.36836 15.5008 5.48509 15.4731 5.59067 15.4196C5.69626 15.3662 5.7877 15.2885 5.85752 15.193L11.8575 6.94296C11.9383 6.83106 11.9867 6.69902 11.9973 6.5614C12.0079 6.42378 11.9803 6.2859 11.9175 6.16296ZM6.00002 12.4405V9.50046C6.00002 9.30155 5.921 9.11078 5.78035 8.97013C5.6397 8.82948 5.44893 8.75046 5.25002 8.75046H2.25002L6.00002 3.56046V6.50046C6.00002 6.69937 6.07904 6.89014 6.21969 7.03079C6.36034 7.17144 6.55111 7.25046 6.75002 7.25046H9.75002L6.00002 12.4405Z" fill="#3C85E8"/>
</svg>
