<svg width="18" height="18" viewBox="0 0 18 18" fill="none" xmlns="http://www.w3.org/2000/svg">
<path d="M6 1.5H2.25C2.05109 1.5 1.86032 1.57902 1.71967 1.71967C1.57902 1.86032 1.5 2.05109 1.5 2.25V6C1.5 6.19891 1.57902 6.38968 1.71967 6.53033C1.86032 6.67098 2.05109 6.75 2.25 6.75C2.44891 6.75 2.63968 6.67098 2.78033 6.53033C2.92098 6.38968 3 6.19891 3 6V3H6C6.19891 3 6.38968 2.92098 6.53033 2.78033C6.67098 2.63968 6.75 2.44891 6.75 2.25C6.75 2.05109 6.67098 1.86032 6.53033 1.71967C6.38968 1.57902 6.19891 1.5 6 1.5ZM6 15H3V12C3 11.8011 2.92098 11.6103 2.78033 11.4697C2.63968 11.329 2.44891 11.25 2.25 11.25C2.05109 11.25 1.86032 11.329 1.71967 11.4697C1.57902 11.6103 1.5 11.8011 1.5 12V15.75C1.5 15.9489 1.57902 16.1397 1.71967 16.2803C1.86032 16.421 2.05109 16.5 2.25 16.5H6C6.19891 16.5 6.38968 16.421 6.53033 16.2803C6.67098 16.1397 6.75 15.9489 6.75 15.75C6.75 15.5511 6.67098 15.3603 6.53033 15.2197C6.38968 15.079 6.19891 15 6 15ZM15.75 1.5H12C11.8011 1.5 11.6103 1.57902 11.4697 1.71967C11.329 1.86032 11.25 2.05109 11.25 2.25C11.25 2.44891 11.329 2.63968 11.4697 2.78033C11.6103 2.92098 11.8011 3 12 3H15V6C15 6.19891 15.079 6.38968 15.2197 6.53033C15.3603 6.67098 15.5511 6.75 15.75 6.75C15.9489 6.75 16.1397 6.67098 16.2803 6.53033C16.421 6.38968 16.5 6.19891 16.5 6V2.25C16.5 2.05109 16.421 1.86032 16.2803 1.71967C16.1397 1.57902 15.9489 1.5 15.75 1.5ZM15.75 11.25C15.5511 11.25 15.3603 11.329 15.2197 11.4697C15.079 11.6103 15 11.8011 15 12V15H12C11.8011 15 11.6103 15.079 11.4697 15.2197C11.329 15.3603 11.25 15.5511 11.25 15.75C11.25 15.9489 11.329 16.1397 11.4697 16.2803C11.6103 16.421 11.8011 16.5 12 16.5H15.75C15.9489 16.5 16.1397 16.421 16.2803 16.2803C16.421 16.1397 16.5 15.9489 16.5 15.75V12C16.5 11.8011 16.421 11.6103 16.2803 11.4697C16.1397 11.329 15.9489 11.25 15.75 11.25Z" fill="black"/>
</svg>
