<svg width="18" height="18" viewBox="0 0 18 18" fill="none" xmlns="http://www.w3.org/2000/svg">
<path fill-rule="evenodd" clip-rule="evenodd" d="M12.7333 10.9667C11.7576 10.9667 10.9667 11.7576 10.9667 12.7333C10.9667 13.709 11.7576 14.5 12.7333 14.5C13.709 14.5 14.5 13.709 14.5 12.7333C14.5 11.7576 13.709 10.9667 12.7333 10.9667ZM9.46667 12.7333C9.46667 11.1876 10.5402 9.89264 11.9824 9.55339L11.9824 7.13338C11.9824 6.98174 11.9181 6.70156 11.7083 6.46844C11.5201 6.25933 11.1509 6.01671 10.3991 6.01671L8.44668 6.01671C8.10774 7.45932 6.81256 8.53333 5.26654 8.53333C3.46241 8.53333 1.99987 7.07079 1.99987 5.26666C1.99987 3.46253 3.4624 1.99999 5.26654 1.99999C6.8126 1.99999 8.10781 3.07405 8.44671 4.51671L10.3991 4.51671C11.5139 4.51671 12.3114 4.89632 12.8232 5.46499C13.3134 6.00964 13.4824 6.66279 13.4824 7.13338L13.4824 9.55296C14.9255 9.89155 16 11.187 16 12.7333C16 14.5375 14.5375 16 12.7333 16C10.9292 16 9.46667 14.5375 9.46667 12.7333ZM3.49987 5.26666C3.49987 4.29096 4.29083 3.49999 5.26654 3.49999C6.24224 3.49999 7.0332 4.29096 7.0332 5.26666C7.0332 6.24236 6.24224 7.03333 5.26654 7.03333C4.29083 7.03333 3.49987 6.24236 3.49987 5.26666Z" fill="#808080"/>
</svg>
