<svg width="18" height="18" viewBox="0 0 18 18" fill="none" xmlns="http://www.w3.org/2000/svg">
<path d="M12.75 4.5H8.25C8.05109 4.5 7.86032 4.57902 7.71967 4.71967C7.57902 4.86032 7.5 5.05109 7.5 5.25C7.5 5.44891 7.57902 5.63968 7.71967 5.78033C7.86032 5.92098 8.05109 6 8.25 6H9.39L6.99 12H5.25C5.05109 12 4.86032 12.079 4.71967 12.2197C4.57902 12.3603 4.5 12.5511 4.5 12.75C4.5 12.9489 4.57902 13.1397 4.71967 13.2803C4.86032 13.421 5.05109 13.5 5.25 13.5H9.75C9.94891 13.5 10.1397 13.421 10.2803 13.2803C10.421 13.1397 10.5 12.9489 10.5 12.75C10.5 12.5511 10.421 12.3603 10.2803 12.2197C10.1397 12.079 9.94891 12 9.75 12H8.61L11.01 6H12.75C12.9489 6 13.1397 5.92098 13.2803 5.78033C13.421 5.63968 13.5 5.44891 13.5 5.25C13.5 5.05109 13.421 4.86032 13.2803 4.71967C13.1397 4.57902 12.9489 4.5 12.75 4.5Z" fill="#808080"/>
</svg>
