<svg width="18" height="18" viewBox="0 0 18 18" fill="none" xmlns="http://www.w3.org/2000/svg">
<path d="M5.25017 5.99985H12.2502C12.4491 5.99985 12.6399 5.92083 12.7805 5.78018C12.9212 5.63953 13.0002 5.44876 13.0002 5.24985C13.0002 5.05094 12.9212 4.86017 12.7805 4.71952C12.6399 4.57887 12.4491 4.49985 12.2502 4.49985H5.25017C5.05126 4.49985 4.8605 4.57887 4.71984 4.71952C4.57919 4.86017 4.50017 5.05094 4.50017 5.24985C4.50017 5.44876 4.57919 5.63953 4.71984 5.78018C4.8605 5.92083 5.05126 5.99985 5.25017 5.99985ZM15.7502 8.24985H5.25017C5.05126 8.24985 4.8605 8.32887 4.71984 8.46952C4.57919 8.61017 4.50017 8.80093 4.50017 8.99985C4.50017 9.19876 4.57919 9.38952 4.71984 9.53018C4.8605 9.67083 5.05126 9.74985 5.25017 9.74985H15.7502C15.9491 9.74985 16.1399 9.67083 16.2805 9.53018C16.4212 9.38952 16.5002 9.19876 16.5002 8.99985C16.5002 8.80093 16.4212 8.61017 16.2805 8.46952C16.1399 8.32887 15.9491 8.24985 15.7502 8.24985ZM2.78267 3.20247C2.71135 3.13419 2.62724 3.08066 2.53517 3.04497C2.39859 2.98753 2.24806 2.97184 2.10256 2.99987C1.95707 3.0279 1.82314 3.0984 1.71767 3.20247C1.65143 3.27537 1.59816 3.35908 1.56017 3.44997C1.5205 3.53974 1.5 3.63681 1.5 3.73497C1.5 3.83312 1.5205 14.46 1.56017 14.5498C1.59816 14.6407 1.65143 14.7244 1.71767 14.7973C1.79058 14.8635 1.87429 14.9168 1.96517 14.9548C2.10176 15.0122 2.25229 15.0279 2.39778 14.9999C2.54328 14.9718 2.67721 14.9014 2.78267 14.7973C2.84892 14.7244 2.90219 14.6407 2.94017 14.5498C2.97985 14.46 3.00035 3.83312 3.00035 3.73497C3.00035 3.63681 2.97985 3.53974 2.94017 3.44997C2.90219 3.35908 2.84892 3.27537 2.78267 3.20247ZM12.2502 11.9998H5.25017C5.05126 11.9998 4.8605 12.0789 4.71984 12.2195C4.57919 12.3602 4.50017 12.5509 4.50017 12.7499C4.50017 12.9488 4.57919 13.1395 4.71984 13.2802C4.8605 13.4208 5.05126 13.4999 5.25017 13.4999H12.2502C12.4491 13.4999 12.6399 13.4208 12.7805 13.2802C12.9212 13.1395 13.0002 12.9488 13.0002 12.7499C13.0002 12.5509 12.9212 12.3602 12.7805 12.2195C12.6399 12.0789 12.4491 11.9998 12.2502 11.9998Z" fill="#808080"/>
</svg>
