<svg width="18" height="18" viewBox="0 0 18 18" fill="none" xmlns="http://www.w3.org/2000/svg">
<path d="M14.25 1.5H3.75C3.15326 1.5 2.58097 1.73705 2.15901 2.15901C1.73705 2.58097 1.5 3.15326 1.5 3.75V14.25C1.5 14.8467 1.73705 15.419 2.15901 15.841C2.58097 16.2629 3.15326 16.5 3.75 16.5H14.25C14.3734 16.4983 14.4963 16.4857 14.6175 16.4625L14.8425 16.41H14.895H14.9325L15.21 16.305L15.3075 16.2525C15.3825 16.2075 15.465 16.17 15.54 16.1175C15.6401 16.0438 15.7354 15.9636 15.825 15.8775L15.8775 15.81C15.9511 15.7354 16.0188 15.6551 16.08 15.57L16.1475 15.4725C16.1999 15.389 16.245 15.3012 16.2825 15.21C16.3031 15.174 16.3206 15.1364 16.335 15.0975C16.3725 15.0075 16.395 14.91 16.425 14.8125V14.7C16.4675 14.5535 16.4927 14.4024 16.5 14.25V3.75C16.5 3.15326 16.2629 2.58097 15.841 2.15901C15.419 1.73705 14.8467 1.5 14.25 1.5ZM3.75 15C3.55109 15 3.36032 14.921 3.21967 14.7803C3.07902 14.6397 3 14.4489 3 14.25V11.0175L5.4675 8.5425C5.53722 8.4722 5.62017 8.41641 5.71157 8.37833C5.80296 8.34025 5.90099 8.32065 6 8.32065C6.09901 8.32065 6.19704 8.34025 6.28843 8.37833C6.37983 8.41641 6.46278 8.4722 6.5325 8.5425L12.9825 15H3.75ZM15 14.25C14.9993 14.3425 14.9815 14.434 14.9475 14.52C14.9304 14.5566 14.9103 14.5917 14.8875 14.625C14.8674 14.6567 14.8449 14.6868 14.82 14.715L10.8075 10.7025L11.4675 10.0425C11.5372 9.9722 11.6202 9.91641 11.7116 9.87833C11.803 9.84025 11.901 9.82065 12 9.82065C12.099 9.82065 12.197 9.84025 12.2884 9.87833C12.3798 9.91641 12.4628 9.9722 12.5325 10.0425L15 12.5175V14.25ZM15 10.395L13.59 9C13.1608 8.59274 12.5917 8.36571 12 8.36571C11.4083 8.36571 10.8392 8.59274 10.41 9L9.75 9.66L7.59 7.5C7.16079 7.09274 6.59167 6.86571 6 6.86571C5.40833 6.86571 4.83921 7.09274 4.41 7.5L3 8.895V3.75C3 3.55109 3.07902 3.36032 3.21967 3.21967C3.36032 3.07902 3.55109 3 3.75 3H14.25C14.4489 3 14.6397 3.07902 14.7803 3.21967C14.921 3.36032 15 3.55109 15 3.75V10.395Z" fill="black"/>
</svg>
