<svg width="18" height="18" viewBox="0 0 18 18" fill="none" xmlns="http://www.w3.org/2000/svg">
<path d="M5.25 15H3V14.925C3 14.55 3.3 14.25 3.675 14.25C4.725 14.25 5.625 13.575 5.925 12.6C6.225 11.4 5.55 10.125 4.35 9.825C3.375 9.525 2.325 9.975 1.8 10.875C1.575 11.25 1.725 11.7 2.1 11.925C2.475 12.15 2.925 12 3.15 11.625C3.375 11.25 3.825 11.175 4.2 11.4C4.275 11.475 4.35 11.475 4.35 11.55C4.5 11.775 4.5 12 4.5 12.225C4.35 12.525 4.05 12.75 3.75 12.75C2.475 12.75 1.5 13.725 1.5 14.925V15.75C1.5 16.2 1.8 16.5 2.25 16.5H5.25C5.7 16.5 6 16.2 6 15.75C6 15.3 5.7 15 5.25 15ZM8.25 5.25H15.75C16.2 5.25 16.5 4.95 16.5 4.5C16.5 4.05 16.2 3.75 15.75 3.75H8.25C7.8 3.75 7.5 4.05 7.5 4.5C7.5 4.95 7.8 5.25 8.25 5.25ZM5.25 6.75H4.5V2.25C4.5 1.8 4.2 1.5 3.75 1.5C3.3 1.5 3 1.8 3 2.25V3H2.25C1.8 3 1.5 3.3 1.5 3.75C1.5 4.2 1.8 4.5 2.25 4.5H3V6.75H2.25C1.8 6.75 1.5 7.05 1.5 7.5C1.5 7.95 1.8 8.25 2.25 8.25H5.25C5.7 8.25 6 7.95 6 7.5C6 7.05 5.7 6.75 5.25 6.75ZM15.75 12H8.25C7.8 12 7.5 12.3 7.5 12.75C7.5 13.2 7.8 13.5 8.25 13.5H15.75C16.2 13.5 16.5 13.2 16.5 12.75C16.5 12.3 16.2 12 15.75 12Z" fill="#808080"/>
</svg>
