<svg width="18" height="18" viewBox="0 0 18 18" fill="none" xmlns="http://www.w3.org/2000/svg">
<path d="M7.50085 13.1628L6.17335 14.4528C5.82526 14.8009 5.35314 14.9965 4.86085 14.9965C4.36857 14.9965 3.89645 14.8009 3.54835 14.4528C3.20026 14.1047 3.0047 13.6326 3.0047 13.1403C3.0047 12.648 3.20026 12.1759 3.54835 11.8278L6.95335 8.41532C7.28756 8.08002 7.73787 7.88602 8.21111 7.87346C8.68436 7.8609 9.14433 8.03073 9.49585 8.34782L9.58585 8.42281C9.72808 8.56205 9.91979 8.63909 10.1188 8.63698C10.3178 8.63487 10.5079 8.55379 10.6471 8.41156C10.7863 8.26934 10.8634 8.07763 10.8613 7.87861C10.8592 7.67959 10.7781 7.48955 10.6359 7.35032C10.5935 7.29558 10.5485 7.24302 10.5009 7.19281C9.86062 6.6358 9.0326 6.34295 8.18453 6.37359C7.33646 6.40422 6.53173 6.75606 5.93335 7.35782L2.48335 10.7703C1.89712 11.4084 1.58007 12.2483 1.59841 13.1146C1.61675 13.9809 1.96907 14.8067 2.58178 15.4194C3.19449 16.0321 4.02023 16.3844 4.88654 16.4028C5.75285 16.4211 6.59276 16.104 7.23085 15.5178L8.52835 14.2503C8.65647 14.1106 8.72689 13.9275 8.72546 13.7379C8.72403 13.5483 8.65085 13.3663 8.52064 13.2285C8.39043 13.0906 8.21286 13.0073 8.02365 12.9951C7.83445 12.9829 7.64765 13.0428 7.50085 13.1628ZM15.5184 2.48282C14.8874 1.85582 14.0341 1.50391 13.1446 1.50391C12.2551 1.50391 11.4018 1.85582 10.7709 2.48282L9.47335 3.75032C9.34524 3.89008 9.27482 4.07317 9.27625 4.26276C9.27768 4.45235 9.35086 4.63437 9.48107 4.77218C9.61128 4.90999 9.78885 4.99338 9.97805 5.00555C10.1673 5.01773 10.3541 4.9578 10.5009 4.83781L11.7984 3.54782C12.1465 3.19972 12.6186 3.00416 13.1109 3.00416C13.6031 3.00416 14.0753 3.19972 14.4234 3.54782C14.7715 3.89591 14.967 4.36803 14.967 4.86032C14.967 5.3526 14.7715 5.82472 14.4234 6.17281L11.0184 9.58531C10.6841 9.92061 10.2338 10.1146 9.76059 10.1272C9.28735 10.1397 8.82738 9.9699 8.47585 9.65281L8.38585 9.57782C8.24363 9.43858 8.05192 9.36154 7.8529 9.36365C7.65388 9.36576 7.46384 9.44684 7.3246 9.58906C7.18537 9.73129 7.10833 9.923 7.11044 10.122C7.11255 10.321 7.19363 10.5111 7.33585 10.6503C7.39033 10.706 7.44793 10.7586 7.50835 10.8078C8.14936 11.3632 8.97702 11.6549 9.82458 11.6243C10.6721 11.5937 11.4766 11.243 12.0759 10.6428L15.4884 7.23032C16.1194 6.60337 16.4767 5.75224 16.4823 4.86275C16.4879 3.97327 16.1414 3.11768 15.5184 2.48282Z" fill="#808080"/>
</svg>
