<svg width="18" height="18" viewBox="0 0 18 18" fill="none" xmlns="http://www.w3.org/2000/svg">
<path d="M2.78249 12.2175C2.71116 12.1492 2.62705 12.0957 2.53499 12.06C2.3524 11.985 2.14759 11.985 1.96499 12.06C1.87293 12.0957 1.78882 12.1492 1.71749 12.2175C1.64921 12.2888 1.59569 12.3729 1.55999 12.465C1.50256 12.6016 1.48686 12.7521 1.5149 12.8976C1.54293 13.0431 1.61342 13.177 1.71749 13.2825C1.79039 13.3487 1.8741 13.402 1.96499 13.44C2.05477 13.4797 2.15184 13.5002 2.24999 13.5002C2.34814 13.5002 2.44522 13.4797 2.53499 13.44C2.62588 13.402 2.70959 13.3487 2.78249 13.2825C2.88656 13.177 2.95706 13.0431 2.98509 12.8976C3.01312 12.7521 2.99743 12.6016 2.93999 12.465C2.9043 12.3729 2.85077 12.2888 2.78249 12.2175ZM5.24999 6H15.75C15.9489 6 16.1397 5.92098 16.2803 5.78033C16.421 5.63968 16.5 5.44891 16.5 5.25C16.5 5.05109 16.421 4.86032 16.2803 4.71967C16.1397 4.57902 15.9489 4.5 15.75 4.5H5.24999C5.05108 4.5 4.86031 4.57902 4.71966 4.71967C4.57901 4.86032 4.49999 5.05109 4.49999 5.25C4.49999 5.44891 4.57901 5.63968 4.71966 5.78033C4.86031 5.92098 5.05108 6 5.24999 6ZM2.78249 8.4675C2.67702 8.36343 2.54309 8.29293 2.3976 8.2649C2.25211 8.23687 2.10157 8.25257 1.96499 8.31C1.8741 8.34798 1.79039 8.40125 1.71749 8.4675C1.64921 8.53883 1.59569 8.62294 1.55999 8.715C1.52031 8.80478 1.49982 8.90185 1.49982 9C1.49982 9.09815 1.52031 9.19523 1.55999 9.285C1.59797 9.37589 1.65124 9.4596 1.71749 9.5325C1.79039 9.59875 1.8741 9.65202 1.96499 9.69C2.05477 9.72968 2.15184 9.75017 2.24999 9.75017C2.34814 9.75017 2.44522 9.72968 2.53499 9.69C2.62588 9.65202 2.70959 9.59875 2.78249 9.5325C2.84874 9.4596 2.90201 9.37589 2.93999 9.285C2.97967 9.19523 3.00017 9.09815 3.00017 9C3.00017 8.90185 2.97967 8.80478 2.93999 8.715C2.9043 8.62294 2.85077 8.53883 2.78249 8.4675ZM15.75 8.25H5.24999C5.05108 8.25 4.86031 8.32902 4.71966 8.46967C4.57901 8.61032 4.49999 8.80109 4.49999 9C4.49999 9.19891 4.57901 9.38968 4.71966 9.53033C4.86031 9.67098 5.05108 9.75 5.24999 9.75H15.75C15.9489 9.75 16.1397 9.67098 16.2803 9.53033C16.421 9.38968 16.5 9.19891 16.5 9C16.5 8.80109 16.421 8.61032 16.2803 8.46967C16.1397 8.32902 15.9489 8.25 15.75 8.25ZM2.78249 4.7175C2.71116 4.64922 2.62705 4.5957 2.53499 4.56C2.39841 4.50257 2.24787 4.48687 2.10238 4.5149C1.95689 4.54293 1.82296 4.61343 1.71749 4.7175C1.65124 4.7904 1.59797 4.87411 1.55999 4.965C1.52031 5.05478 1.49982 5.15185 1.49982 5.25C1.49982 5.34815 1.52031 5.44522 1.55999 5.535C1.59797 5.62589 1.65124 5.7096 1.71749 5.7825C1.79039 5.84875 1.8741 5.90202 1.96499 5.94C2.10157 5.99743 2.25211 6.01313 2.3976 5.9851C2.54309 5.95707 2.67702 5.88657 2.78249 5.7825C2.84874 5.7096 2.90201 5.62589 2.93999 5.535C2.97967 5.44522 3.00017 5.34815 3.00017 5.25C3.00017 5.15185 2.97967 5.05478 2.93999 4.965C2.90201 4.87411 2.84874 4.7904 2.78249 4.7175ZM15.75 12H5.24999C5.05108 12 4.86031 12.079 4.71966 12.2197C4.57901 12.3603 4.49999 12.5511 4.49999 12.75C4.49999 12.9489 4.57901 13.1397 4.71966 13.2803C4.86031 13.421 5.05108 13.5 5.24999 13.5H15.75C15.9489 13.5 16.1397 13.421 16.2803 13.2803C16.421 13.1397 16.5 12.9489 16.5 12.75C16.5 12.5511 16.421 12.3603 16.2803 12.2197C16.1397 12.079 15.9489 12 15.75 12Z" fill="black"/>
</svg>
