<svg width="19" height="18" viewBox="0 0 19 18" fill="none" xmlns="http://www.w3.org/2000/svg">
<path d="M3.28267 12.2175C3.21135 12.1492 3.12724 12.0957 3.03517 12.06C2.85258 11.985 2.64777 11.985 2.46517 12.06C2.37311 12.0957 2.289 12.1492 2.21767 12.2175C2.14939 12.2888 2.09587 12.3729 2.06017 12.465C2.00274 12.6016 1.98705 12.7521 2.01508 12.8976C2.04311 13.0431 2.11361 13.177 2.21767 13.2825C2.29058 13.3487 2.37429 13.402 2.46517 13.44C2.55495 13.4797 2.65202 13.5002 2.75017 13.5002C2.84833 13.5002 2.9454 13.4797 3.03517 13.44C3.12606 13.402 3.20977 13.3487 3.28267 13.2825C3.38674 13.177 3.45724 13.0431 3.48527 12.8976C3.5133 12.7521 3.49761 12.6016 3.44017 12.465C3.40448 12.3729 3.35095 12.2888 3.28267 12.2175ZM5.75017 6H16.2502C16.4491 6 16.6399 5.92098 16.7805 5.78033C16.9212 5.63968 17.0002 5.44891 17.0002 5.25C17.0002 5.05109 16.9212 4.86032 16.7805 4.71967C16.6399 4.57902 16.4491 4.5 16.2502 4.5H5.75017C5.55126 4.5 5.3605 4.57902 5.21984 4.71967C5.07919 4.86032 5.00017 5.05109 5.00017 5.25C5.00017 5.44891 5.07919 5.63968 5.21984 5.78033C5.3605 5.92098 5.55126 6 5.75017 6ZM3.28267 8.4675C3.17721 8.36343 3.04328 8.29293 2.89778 8.2649C2.75229 8.23687 2.60176 8.25257 2.46517 8.31C2.37429 8.34798 2.29058 8.40125 2.21767 8.4675C2.14939 8.53883 2.09587 8.62294 2.06017 8.715C2.0205 8.80478 2 8.90185 2 9C2 9.09815 2.0205 9.19523 2.06017 9.285C2.09816 9.37589 2.15143 9.4596 2.21767 9.5325C2.29058 9.59875 2.37429 9.65202 2.46517 9.69C2.55495 9.72968 2.65202 9.75017 2.75017 9.75017C2.84833 9.75017 2.9454 9.72968 3.03517 9.69C3.12606 9.65202 3.20977 9.59875 3.28267 9.5325C3.34892 9.4596 3.40219 9.37589 3.44017 9.285C3.47985 9.19523 3.50035 9.09815 3.50035 9C3.50035 8.90185 3.47985 8.80478 3.44017 8.715C3.40448 8.62294 3.35095 8.53883 3.28267 8.4675ZM16.2502 8.25H5.75017C5.55126 8.25 5.3605 8.32902 5.21984 8.46967C5.07919 8.61032 5.00017 8.80109 5.00017 9C5.00017 9.19891 5.07919 9.38968 5.21984 9.53033C5.3605 9.67098 5.55126 9.75 5.75017 9.75H16.2502C16.4491 9.75 16.6399 9.67098 16.7805 9.53033C16.9212 9.38968 17.0002 9.19891 17.0002 9C17.0002 8.80109 16.9212 8.61032 16.7805 8.46967C16.6399 8.32902 16.4491 8.25 16.2502 8.25ZM3.28267 4.7175C3.21135 4.64922 3.12724 4.5957 3.03517 4.56C2.89859 4.50257 2.74806 4.48687 2.60256 4.5149C2.45707 4.54293 2.32314 4.61343 2.21767 4.7175C2.15143 4.7904 2.09816 4.87411 2.06017 4.965C2.0205 5.05478 2 5.15185 2 5.25C2 5.34815 2.0205 5.44522 2.06017 5.535C2.09816 5.62589 2.15143 5.7096 2.21767 5.7825C2.29058 5.84875 2.37429 5.90202 2.46517 5.94C2.60176 5.99743 2.75229 6.01313 2.89778 5.9851C3.04328 5.95707 3.17721 5.88657 3.28267 5.7825C3.34892 5.7096 3.40219 5.62589 3.44017 5.535C3.47985 5.44522 3.50035 5.34815 3.50035 5.25C3.50035 5.15185 3.47985 5.05478 3.44017 4.965C3.40219 4.87411 3.34892 4.7904 3.28267 4.7175ZM16.2502 12H5.75017C5.55126 12 5.3605 12.079 5.21984 12.2197C5.07919 12.3603 5.00017 12.5511 5.00017 12.75C5.00017 12.9489 5.07919 13.1397 5.21984 13.2803C5.3605 13.421 5.55126 13.5 5.75017 13.5H16.2502C16.4491 13.5 16.6399 13.421 16.7805 13.2803C16.9212 13.1397 17.0002 12.9489 17.0002 12.75C17.0002 12.5511 16.9212 12.3603 16.7805 12.2197C16.6399 12.079 16.4491 12 16.2502 12Z" fill="black"/>
</svg>
