<svg width="19" height="18" viewBox="0 0 19 18" fill="none" xmlns="http://www.w3.org/2000/svg">
<path fill-rule="evenodd" clip-rule="evenodd" d="M11.6516 9.85017H15.6016V3.50018H11.6516V9.85017ZM3.40156 14.5002H7.35156V3.5002H3.40156V14.5002ZM11.0016 2.20018H16.2516C16.424 2.20018 16.5893 2.26867 16.7112 2.39056C16.8331 2.51246 16.9016 2.67779 16.9016 2.85018V10.5002C16.9016 10.6726 16.8331 10.8379 16.7112 10.9598C16.5893 11.0817 16.424 11.1502 16.2516 11.1502H11.0016C10.8292 11.1502 10.6638 11.0817 10.5419 10.9598C10.42 10.8379 10.3516 10.6726 10.3516 10.5002V2.85018C10.3516 2.67779 10.42 2.51246 10.5419 2.39056C10.6638 2.26867 10.8292 2.20018 11.0016 2.20018ZM2.75156 2.2002H8.00156C8.17395 2.2002 8.33928 2.26868 8.46118 2.39058C8.58308 2.51247 8.65156 2.6778 8.65156 2.8502V15.1502C8.65156 15.3226 8.58308 15.4879 8.46118 15.6098C8.33928 15.7317 8.00156 15.6098 8.00156 15.8002H2.75156C2.57917 15.8002 2.41384 15.7317 2.29194 15.6098C2.17004 15.4879 2.10156 15.3226 2.10156 15.1502V2.8502C2.10156 2.6778 2.17004 2.51247 2.29194 2.39058C2.41384 2.26868 2.57917 2.2002 2.75156 2.2002Z" fill="#808080"/>
</svg>
