<svg width="18" height="18" viewBox="0 0 18 18" fill="none" xmlns="http://www.w3.org/2000/svg">
<path d="M15.255 6.99L4.755 1.74C4.34062 1.53376 3.87271 1.46034 3.41508 1.52974C2.95744 1.59915 2.53235 1.80801 2.19775 2.12784C1.86316 2.44768 1.63534 2.86292 1.54537 3.31696C1.4554 3.771 1.50765 4.24174 1.695 4.665L3.495 8.6925C3.53584 8.78988 3.55688 8.89441 3.55688 9C3.55688 9.1056 3.53584 9.21013 3.495 9.3075L1.695 13.335C1.54253 13.6775 1.47807 14.0527 1.50749 14.4265C1.5369 14.8003 1.65926 15.1608 1.86344 15.4753C2.06762 15.7898 2.34715 16.0482 2.67662 16.2272C3.00609 16.4061 3.37506 16.4999 3.75 16.5C4.10118 16.4965 4.44712 16.4145 4.7625 16.26L15.2625 11.01C15.635 10.8226 15.948 10.5355 16.1668 10.1806C16.3855 9.82564 16.5014 9.41692 16.5014 9C16.5014 8.58309 16.3855 8.17437 16.1668 7.81945C15.948 7.46453 15.635 7.17737 15.2625 6.99H15.255ZM14.5875 9.66751L4.0875 14.9175C3.94962 14.9837 3.7948 15.0062 3.64379 14.9819C3.49278 14.9576 3.35281 14.8877 3.24264 14.7816C3.13246 14.6756 3.05736 14.5383 3.0274 14.3883C2.99744 14.2383 3.01405 14.0828 3.075 13.9425L4.8675 9.915C4.89071 9.86122 4.91074 9.80613 4.9275 9.75H10.095C10.2939 9.75 10.4847 9.67099 10.6253 9.53033C10.766 9.38968 10.845 9.19892 10.845 9C10.845 8.80109 10.766 8.61033 10.6253 8.46968C10.4847 8.32902 10.2939 8.25 10.095 8.25H4.9275C4.91074 8.19388 4.89071 8.13879 4.8675 8.085L3.075 4.0575C3.01405 3.91723 2.99744 3.76167 3.0274 3.61168C3.05736 3.4617 3.13246 3.32446 3.24264 3.21837C3.35281 3.11227 3.49278 3.0424 3.64379 3.01812C3.7948 2.99384 3.94962 3.0163 4.0875 3.0825L14.5875 8.3325C14.7104 8.39544 14.8135 8.49107 14.8854 8.60884C14.9574 8.72661 14.9955 8.86197 14.9955 9C14.9955 9.13804 14.9574 9.2734 14.8854 9.39117C14.8135 9.50895 14.7104 9.60457 14.5875 9.66751Z" fill="black"/>
</svg>
