<svg width="18" height="18" viewBox="0 0 18 18" fill="none" xmlns="http://www.w3.org/2000/svg">
<path d="M7.87501 2.79751C8.00811 2.63716 8.17316 2.5063 8.35964 2.41327C8.54612 2.32025 8.74994 2.2671 8.95811 2.25722C9.16627 2.24734 9.37421 2.28095 9.56866 2.35589C9.76311 2.43084 9.93982 2.54548 10.0875 2.69251C10.3582 2.97737 10.5063 3.35709 10.5 3.75001V6.30751C10.5 6.50643 10.579 6.69719 10.7197 6.83784C10.8603 6.9785 11.0511 7.05751 11.25 7.05751C11.4489 7.05751 11.6397 6.9785 11.7803 6.83784C11.921 6.69719 12 6.50643 12 6.30751V3.75001C11.9829 3.14802 11.7849 2.56513 11.432 2.07717C11.079 1.58921 10.5873 1.21878 10.0209 1.01407C9.45457 0.809366 8.83969 0.779863 8.25631 0.9294C7.67294 1.07894 7.14807 1.40059 6.75001 1.85251C6.66271 1.92157 6.59187 2.0092 6.54264 2.10903C6.49341 2.20886 6.46702 2.3184 6.46539 2.4297C6.46375 2.541 6.48691 2.65127 6.53318 2.75251C6.57945 2.85374 6.64768 2.94341 6.73291 3.01501C6.81814 3.0866 6.91824 3.13833 7.02595 3.16643C7.13365 3.19453 7.24626 3.19831 7.35561 3.17749C7.46496 3.15666 7.5683 3.11176 7.65813 3.04604C7.74797 2.98032 7.82205 2.89542 7.87501 2.79751ZM14.04 9.95251H14.19C14.3665 9.95572 14.5385 9.89656 14.6757 9.78544C14.8129 9.67431 14.9065 9.51835 14.94 9.34501C14.9938 8.98265 15.0139 8.61608 15 8.25001C15 8.0511 14.921 7.86034 14.7803 7.71968C14.6397 7.57903 14.4489 7.50001 14.25 7.50001C14.0511 7.50001 13.8603 7.57903 13.7197 7.71968C13.579 7.86034 13.5 8.0511 13.5 8.25001C13.5001 8.52708 13.4724 8.80345 13.4175 9.07501C13.3993 9.17366 13.401 9.27496 13.4226 9.37292C13.4442 9.47088 13.4853 9.56351 13.5433 9.64533C13.6013 9.72715 13.6752 9.79649 13.7605 9.84926C13.8458 9.90202 13.9409 9.93713 14.04 9.95251ZM16.29 14.4975L2.79001 0.997514C2.72028 0.927218 2.63733 0.871422 2.54594 0.833345C2.45454 0.795269 2.35652 0.775665 2.25751 0.775665C2.1585 0.775665 2.06047 0.795269 1.96907 0.833345C1.87768 0.871422 1.79473 0.927218 1.72501 0.997514C1.58532 1.13804 1.50691 1.32812 1.50691 1.52626C1.50691 1.7244 1.58532 1.91449 1.72501 2.05501L6.00001 6.36001V8.25001C6.00055 8.77636 6.13956 9.29331 6.40308 9.74894C6.66661 10.2046 7.04537 10.5828 7.50134 10.8458C7.9573 11.1087 8.47443 11.2471 9.00078 11.2469C9.52712 11.2468 10.0442 11.1082 10.5 10.845L11.595 11.94C10.9203 12.4162 10.1276 12.6976 9.30365 12.7534C8.4797 12.8091 7.6563 12.637 6.92363 12.256C6.19097 11.8749 5.57729 11.2996 5.1498 10.593C4.72231 9.88643 4.49751 9.07584 4.50001 8.25001C4.50001 8.0511 4.42099 7.86034 4.28034 7.71968C4.13968 7.57903 3.94892 7.50001 3.75001 7.50001C3.55109 7.50001 3.36033 7.57903 3.21968 7.71968C3.07902 7.86034 3.00001 8.0511 3.00001 8.25001C3.00133 9.71048 3.5353 11.1203 4.5018 12.2152C5.46831 13.3102 6.80099 14.015 8.25001 14.1975V15.75H6.75001C6.55109 15.75 6.36033 15.829 6.21968 15.9697C6.07902 16.1103 6.00001 16.3011 6.00001 16.5C6.00001 16.6989 6.07902 16.8897 6.21968 17.0303C6.36033 17.171 6.55109 17.25 6.75001 17.25H11.25C11.4489 17.25 11.6397 17.171 11.7803 17.0303C11.921 16.8897 12 16.6989 12 16.5C12 16.3011 11.921 16.1103 11.7803 15.9697C11.6397 15.829 11.4489 15.75 11.25 15.75H9.75001V14.1975C10.8021 14.0666 11.7996 13.6546 12.6375 13.005L15.1875 15.555C15.3277 15.6962 15.5183 15.776 15.7174 15.7767C15.9164 15.7774 16.1075 15.699 16.2488 15.5588C16.39 15.4185 16.4697 15.2279 16.4704 15.0289C16.4711 14.8299 16.3927 14.6387 16.2525 14.4975H16.29ZM9.00001 9.75001C8.60218 9.75001 8.22065 9.59198 7.93935 9.31067C7.65804 9.02937 7.50001 8.64784 7.50001 8.25001V7.86001L9.33751 9.70501C9.22745 9.73469 9.11399 9.74982 9.00001 9.75001Z" fill="black"/>
</svg>
