<svg width="16" height="16" viewBox="0 0 16 16" fill="none" xmlns="http://www.w3.org/2000/svg">
<path d="M14.6144 7.73268C13.2677 4.60602 10.7344 2.66602 8.00102 2.66602C5.26769 2.66602 2.73435 4.60602 1.38769 7.73268C1.35098 7.81679 1.33203 7.90758 1.33203 7.99935C1.33203 8.09112 1.35098 8.1819 1.38769 8.26602C2.73435 11.3927 5.26769 13.3327 8.00102 13.3327C10.7344 13.3327 13.2677 11.3927 14.6144 8.26602C14.6511 8.1819 14.67 8.09112 14.67 7.99935C14.67 7.90758 14.6511 7.81679 14.6144 7.73268ZM8.00102 11.9993C5.88769 11.9993 3.88769 10.4727 2.73435 7.99935C3.88769 5.52602 5.88769 3.99935 8.00102 3.99935C10.1144 3.99935 12.1144 5.52602 13.2677 7.99935C12.1144 10.4727 10.1144 11.9993 8.00102 11.9993ZM8.00102 5.33268C7.4736 5.33268 6.95803 5.48908 6.5195 5.7821C6.08097 6.07511 5.73918 6.49159 5.53734 6.97886C5.33551 7.46613 5.2827 8.00231 5.38559 8.51959C5.48849 9.03687 5.74246 9.51203 6.1154 9.88497C6.48834 10.2579 6.9635 10.5119 7.48078 10.6148C7.99806 10.7177 8.53424 10.6649 9.02151 10.463C9.50878 10.2612 9.92526 9.9194 10.2183 9.48087C10.5113 9.04234 10.6677 8.52677 10.6677 7.99935C10.6677 7.2921 10.3867 6.61383 9.88664 6.11373C9.38654 5.61363 8.70827 5.33268 8.00102 5.33268ZM8.00102 9.33268C7.73731 9.33268 7.47953 9.25448 7.26026 9.10797C7.041 8.96147 6.8701 8.75323 6.76918 8.50959C6.66826 8.26596 6.64186 7.99787 6.69331 7.73923C6.74475 7.48059 6.87174 7.24301 7.05821 7.05654C7.24468 6.87007 7.48226 6.74308 7.7409 6.69163C7.99954 6.64019 8.26763 6.66659 8.51127 6.76751C8.7549 6.86843 8.96314 7.03932 9.10965 7.25859C9.25616 7.47785 9.33435 7.73564 9.33435 7.99935C9.33435 8.35297 9.19388 8.69211 8.94383 8.94216C8.69378 9.19221 8.35464 9.33268 8.00102 9.33268Z" fill="#808080"/>
</svg>
