<svg width="18" height="18" viewBox="0 0 18 18" fill="none" xmlns="http://www.w3.org/2000/svg">
<path d="M16.2803 8.46969L10.2802 2.46969C10.1754 2.3648 10.0417 2.29336 9.89627 2.26442C9.7508 2.23547 9.60001 2.25032 9.46297 2.30708C9.32593 2.36383 9.2088 2.45996 9.12639 2.58328C9.04398 2.70661 9 2.85161 9 2.99994V5.65863C6.95122 5.84826 5.04694 6.79558 3.6598 8.31521C2.27265 9.83484 1.50248 11.8174 1.5 13.8749V14.9999C1.49999 15.1557 1.54847 15.3076 1.63871 15.4345C1.72896 15.5615 1.85649 15.6572 2.0036 15.7084C2.15071 15.7595 2.31011 15.7636 2.45965 15.7201C2.6092 15.6766 2.74148 15.5875 2.83814 15.4654C3.57287 14.5916 4.47437 13.873 5.48997 13.3515C6.50558 12.8301 7.61492 12.5163 8.75318 12.4284C8.79053 12.4236 8.88427 12.4163 9 12.409V14.9999C9 15.1483 9.04398 15.2933 9.12639 15.4166C9.2088 15.5399 9.32593 15.636 9.46297 15.6928C9.60001 15.7496 9.7508 15.7644 9.89627 15.7355C10.0417 15.7065 10.1754 15.6351 10.2802 15.5302L16.2803 9.53019C16.3499 9.46056 16.4052 9.3779 16.4429 9.28692C16.4806 9.19594 16.5 9.09842 16.5 8.99994C16.5 8.90145 16.4806 8.80394 16.4429 8.71295C16.4052 8.62197 16.3499 8.53931 16.2803 8.46969ZM10.5 13.1894V11.6249C10.5 11.5264 10.4806 11.4289 10.443 11.3379C10.4053 11.2469 10.35 11.1642 10.2804 11.0945C10.2107 11.0249 10.128 10.9697 10.037 10.932C9.94604 10.8943 9.8485 10.8749 9.75 10.8749C9.55884 10.8749 8.77808 10.9119 8.57886 10.9387C6.5573 11.1249 4.63302 11.8929 3.03882 13.1498C3.21967 11.4956 4.00438 9.96617 5.2427 8.85449C6.48101 7.7428 8.08589 7.12697 9.75 7.12494C9.8485 7.12496 9.94604 7.10558 10.037 7.0679C10.128 7.03022 10.2107 6.97497 10.2804 6.90532C10.35 6.83567 10.4053 6.75298 10.443 6.66198C10.4806 6.57097 10.5 6.47343 10.5 6.37494V4.81048L14.6895 8.99994L10.5 13.1894Z" fill="#808080"/>
</svg>
