<svg width="18" height="18" viewBox="0 0 18 18" fill="none" xmlns="http://www.w3.org/2000/svg">
<path d="M10.0579 9.00014L13.2829 5.78264C13.4242 5.64141 13.5035 5.44987 13.5035 5.25014C13.5035 5.05041 13.4242 4.85887 13.2829 4.71764C13.1417 4.57641 12.9502 4.49707 12.7504 4.49707C12.5507 4.49707 12.3592 4.57641 12.2179 4.71764L9.00044 7.94264L5.78294 4.71764C5.64171 4.57641 5.45017 4.49707 5.25044 4.49707C5.05072 4.49707 4.85917 4.57641 4.71794 4.71764C4.57671 4.85887 4.49737 5.05041 4.49737 5.25014C4.49737 5.44987 4.57671 5.64141 4.71794 5.78264L7.94294 9.00014L4.71794 12.2176C4.64765 12.2874 4.59185 12.3703 4.55377 12.4617C4.5157 12.5531 4.49609 12.6511 4.49609 12.7501C4.49609 12.8491 4.5157 12.9472 4.55377 13.0386C4.59185 13.13 4.64765 13.2129 4.71794 13.2826C4.78766 13.3529 4.87062 13.4087 4.96201 13.4468C5.0534 13.4849 5.15143 13.5045 5.25044 13.5045C5.34945 13.5045 5.44748 13.4849 5.53888 13.4468C5.63027 13.4087 5.71322 13.3529 5.78294 13.2826L9.00044 10.0576L12.2179 13.2826C12.2877 13.3529 12.3706 13.4087 12.462 13.4468C12.5534 13.4849 12.6514 13.5045 12.7504 13.5045C12.8495 13.5045 12.9475 13.4849 13.0389 13.4468C13.1303 13.4087 13.2132 13.3529 13.2829 13.2826C13.3532 13.2129 13.409 13.13 13.4471 13.0386C13.4852 12.9472 13.5048 12.8491 13.5048 12.7501C13.5048 12.6511 13.4852 12.5531 13.4471 12.4617C13.409 12.3703 13.3532 12.2874 13.2829 12.2176L10.0579 9.00014Z" fill="#808080"/>
</svg>
