<svg width="18" height="18" viewBox="0 0 18 18" fill="none" xmlns="http://www.w3.org/2000/svg">
<path d="M13.56 9.31501L8.925 13.9575C8.31736 14.4975 7.52636 14.785 6.71379 14.761C5.90122 14.7371 5.1285 14.4036 4.55368 13.8288C3.97886 13.254 3.64538 12.4813 3.62146 11.6687C3.59754 10.8561 3.88499 10.0651 4.425 9.45751L10.425 3.45751C10.7832 3.11723 11.2584 2.9275 11.7525 2.9275C12.2466 2.9275 12.7218 3.11723 13.08 3.45751C13.429 3.8112 13.6247 4.28811 13.6247 4.78501C13.6247 5.2819 13.429 5.75881 13.08 6.11251L7.905 11.28C7.85378 11.3352 7.7922 11.3797 7.72378 11.411C7.65536 11.4424 7.58143 11.46 7.50621 11.4628C7.431 11.4655 7.35597 11.4535 7.28541 11.4273C7.21486 11.4011 7.15015 11.3612 7.095 11.31C7.03984 11.2588 6.99532 11.1972 6.96396 11.1288C6.9326 11.0604 6.91503 10.9864 6.91224 10.9112C6.90946 10.836 6.92151 10.761 6.94772 10.6904C6.97393 10.6199 7.01378 10.5552 7.065 10.5L10.9125 6.66001C11.0537 6.51878 11.1331 6.32723 11.1331 6.12751C11.1331 5.92778 11.0537 5.73623 10.9125 5.59501C10.7713 5.45378 10.5797 5.37444 10.38 5.37444C10.1803 5.37444 9.98873 5.45378 9.8475 5.59501L6 9.45001C5.80748 9.64104 5.65467 9.86828 5.5504 10.1186C5.44612 10.369 5.39243 10.6375 5.39243 10.9088C5.39243 11.18 5.44612 11.4485 5.5504 11.6989C5.65467 11.9492 5.80748 12.1765 6 12.3675C6.39328 12.7421 6.9156 12.9511 7.45875 12.9511C8.00189 12.9511 8.52422 12.7421 8.9175 12.3675L14.085 7.19251C14.6812 6.55272 15.0057 5.70651 14.9903 4.83216C14.9749 3.9578 14.6207 3.12357 14.0023 2.50521C13.3839 1.88685 12.5497 1.53265 11.6753 1.51722C10.801 1.50179 9.95479 1.82635 9.315 2.42251L3.315 8.42251C2.5059 9.31863 2.07377 10.4924 2.10865 11.6992C2.14353 12.9061 2.64272 14.0529 3.50223 14.9008C4.36173 15.7487 5.51526 16.2323 6.72246 16.2508C7.92967 16.2692 9.09745 15.8212 9.9825 15L14.625 10.365C14.6949 10.2951 14.7504 10.2121 14.7882 10.1207C14.8261 10.0293 14.8456 9.9314 14.8456 9.83251C14.8456 9.73361 14.8261 9.63569 14.7882 9.54432C14.7504 9.45295 14.6949 9.36994 14.625 9.30001C14.5551 9.23008 14.4721 9.17461 14.3807 9.13676C14.2893 9.09892 14.1914 9.07944 14.0925 9.07944C13.9936 9.07944 13.8957 9.09892 13.8043 9.13676C13.7129 9.17461 13.6299 9.23008 13.56 9.30001V9.31501Z" fill="black"/>
</svg>
