<svg width="18" height="18" viewBox="0 0 18 18" fill="none" xmlns="http://www.w3.org/2000/svg">
<path d="M12 1.5C11.4033 1.5 10.831 1.73705 10.409 2.15901C9.98705 2.58097 9.75 3.15326 9.75 3.75V14.25C9.75 14.8467 9.98705 15.419 10.409 15.841C10.831 16.2629 11.4033 16.5 12 16.5C12.5967 16.5 13.169 16.2629 13.591 15.841C14.0129 15.419 14.25 14.8467 14.25 14.25V3.75C14.25 3.15326 14.0129 2.58097 13.591 2.15901C13.169 1.73705 12.5967 1.5 12 1.5ZM12.75 14.25C12.75 14.4489 12.671 14.6397 12.5303 14.7803C12.3897 14.921 12.1989 15 12 15C11.8011 15 11.6103 14.921 11.4697 14.7803C11.329 14.6397 11.25 14.4489 11.25 14.25V3.75C11.25 3.55109 11.329 3.36032 11.4697 3.21967C11.6103 3.07902 11.8011 3 12 3C12.1989 3 12.3897 3.07902 12.5303 3.21967C12.671 3.36032 12.75 3.55109 12.75 3.75V14.25ZM6 1.5C5.40326 1.5 4.83097 1.73705 4.40901 2.15901C3.98705 2.58097 3.75 3.15326 3.75 3.75V14.25C3.75 14.8467 3.98705 15.419 4.40901 15.841C4.83097 16.2629 5.40326 16.5 6 16.5C6.59674 16.5 7.16903 16.2629 7.59099 15.841C8.01295 15.419 8.25 14.8467 8.25 14.25V3.75C8.25 3.15326 8.01295 2.58097 7.59099 2.15901C7.16903 1.73705 6.59674 1.5 6 1.5ZM6.75 14.25C6.75 14.4489 6.67098 14.6397 6.53033 14.7803C6.38968 14.921 6.19891 15 6 15C5.80109 15 5.61032 14.921 5.46967 14.7803C5.32902 14.6397 5.25 14.4489 5.25 14.25V3.75C5.25 3.55109 5.32902 3.36032 5.46967 3.21967C5.61032 3.07902 5.80109 3 6 3C6.19891 3 6.38968 3.07902 6.53033 3.21967C6.67098 3.36032 6.75 3.55109 6.75 3.75V14.25Z" fill="black"/>
</svg>
