<svg width="18" height="18" viewBox="0 0 18 18" fill="none" xmlns="http://www.w3.org/2000/svg">
<path d="M13.2921 1.87602C12.9016 1.4855 12.2684 1.4855 11.8779 1.87602L11.1717 2.58223C10.7811 2.97276 10.7811 3.60592 11.1717 3.99645L13.9938 6.81856C14.3843 7.20909 15.0175 7.20909 15.408 6.81856L16.1142 6.11235C16.5047 5.72183 16.5047 5.08866 16.1142 4.69814L13.2921 1.87602Z" fill="black"/>
<path d="M10.4654 4.70369C10.0749 4.31316 9.4417 4.31316 9.05118 4.70369L2.21889 11.536C2.06602 11.6888 1.96681 11.8871 1.93612 12.1011L1.46376 15.3956C1.36908 16.056 1.93523 16.6221 2.59557 16.5274L5.89004 16.0551C6.10405 16.0244 6.30235 15.9252 6.45522 15.7723L13.2875 8.94001C13.678 8.54949 13.678 7.91632 13.2875 7.5258L10.4654 4.70369Z" fill="black"/>
</svg>
