<svg width="14" height="14" viewBox="0 0 14 14" fill="none" xmlns="http://www.w3.org/2000/svg">
<path d="M12.8327 4.22269C12.8331 4.14592 12.8184 4.06982 12.7894 3.99875C12.7604 3.92767 12.7176 3.86303 12.6635 3.80853L10.1902 1.33519C10.1357 1.28113 10.071 1.23835 9.99997 1.20933C9.9289 1.1803 9.8528 1.16558 9.77603 1.16603C9.69926 1.16558 9.62315 1.1803 9.55208 1.20933C9.48101 1.23835 9.41637 1.28113 9.36186 1.33519L7.71103 2.98603L1.33519 9.36186C1.28113 9.41636 1.23835 9.48101 1.20933 9.55208C1.1803 9.62315 1.16558 9.69925 1.16603 9.77603V12.2494C1.16603 12.4041 1.22748 12.5524 1.33688 12.6618C1.44628 12.7712 1.59465 12.8327 1.74936 12.8327H4.22269C4.30432 12.8371 4.38596 12.8244 4.46234 12.7952C4.53871 12.7661 4.60811 12.7212 4.66603 12.6635L11.0069 6.28769L12.6635 4.66603C12.7168 4.60949 12.7602 4.54442 12.7919 4.47353C12.7975 4.42703 12.7975 4.38002 12.7919 4.33353C12.7946 4.30637 12.7946 4.27901 12.7919 4.25186L12.8327 4.22269ZM3.98353 11.666H2.33269V10.0152L8.12519 4.22269L9.77603 5.87353L3.98353 11.666ZM10.5985 5.05103L8.94769 3.40019L9.77603 2.57769L11.421 4.22269L10.5985 5.05103Z" fill="#808080"/>
</svg>
