<svg width="18" height="18" viewBox="0 0 18 18" fill="none" xmlns="http://www.w3.org/2000/svg">
<path d="M14.8875 4.17L16.23 2.8275C16.3085 2.76027 16.3723 2.67753 16.4173 2.58448C16.4623 2.49143 16.4876 2.39008 16.4916 2.28679C16.4956 2.1835 16.4782 2.0805 16.4405 1.98426C16.4028 1.88801 16.3456 1.8006 16.2725 1.72751C16.1994 1.65442 16.112 1.59723 16.0158 1.55952C15.9195 1.52182 15.8165 1.50441 15.7132 1.5084C15.6099 1.51239 15.5086 1.53769 15.4155 1.58271C15.3225 1.62772 15.2397 1.69149 15.1725 1.77L13.83 3.1125L12.48 1.77C12.3365 1.64713 12.152 1.58293 11.9632 1.59022C11.7745 1.59751 11.5954 1.67576 11.4618 1.80933C11.3283 1.9429 11.25 2.12195 11.2427 2.31071C11.2354 2.49947 11.2996 2.68402 11.4225 2.8275L12.75 4.17L11.4075 5.52C11.2678 5.66052 11.1894 5.85061 11.1894 6.04875C11.1894 6.24689 11.2678 6.43698 11.4075 6.5775C11.548 6.71719 11.7381 6.7956 11.9363 6.7956C12.1344 6.7956 12.3245 6.71719 12.465 6.5775L13.83 5.25L15.1725 6.5925C15.313 6.73219 15.5031 6.8106 15.7013 6.8106C15.8994 6.8106 16.0895 6.73219 16.23 6.5925C16.3697 6.45198 16.4481 6.26189 16.4481 6.06375C16.4481 5.86561 16.3697 5.67552 16.23 5.535L14.8875 4.17ZM14.58 9.75C14.415 9.75 14.2425 9.6975 14.0775 9.66C13.7434 9.58637 13.415 9.48861 13.095 9.3675C12.7471 9.24092 12.3646 9.2475 12.0212 9.38596C11.6779 9.52442 11.3978 9.78498 11.235 10.1175L11.07 10.455C10.3395 10.0486 9.66825 9.54392 9.07502 8.955C8.48609 8.36176 7.98138 7.6905 7.57502 6.96L7.89002 6.75C8.22254 6.58719 8.4831 6.30715 8.62156 5.96377C8.76002 5.62039 8.76659 5.23793 8.64002 4.89C8.52093 4.56932 8.42322 4.2411 8.34752 3.9075C8.31001 3.7425 8.28001 3.57 8.25751 3.3975C8.16644 2.86922 7.88973 2.39081 7.47723 2.04843C7.06473 1.70605 6.54354 1.52221 6.00751 1.53H3.75751C3.43429 1.52697 3.1142 1.59361 2.81905 1.7254C2.52389 1.85719 2.2606 2.05102 2.04709 2.29371C1.83358 2.5364 1.67487 2.82225 1.58176 3.13179C1.48865 3.44133 1.46332 3.76729 1.50751 4.0875C1.90707 7.22954 3.34204 10.1489 5.58575 12.3845C7.82947 14.62 10.754 16.0444 13.8975 16.4325H14.1825C14.7356 16.4333 15.2696 16.2304 15.6825 15.8625C15.9198 15.6503 16.1093 15.3901 16.2386 15.0992C16.3679 14.8083 16.434 14.4933 16.4325 14.175V11.925C16.4233 11.404 16.2336 10.9024 15.8958 10.5058C15.5579 10.1091 15.0929 9.84197 14.58 9.75ZM14.955 14.25C14.9549 14.3565 14.9321 14.4617 14.8881 14.5587C14.8441 14.6557 14.78 14.7422 14.7 14.8125C14.6162 14.8849 14.5182 14.9389 14.4123 14.9712C14.3064 15.0035 14.1949 15.0133 14.085 15C11.2762 14.6399 8.66719 13.3549 6.66955 11.3477C4.67191 9.34057 3.39932 6.7255 3.05251 3.915C3.04058 3.80514 3.05104 3.694 3.08327 3.58829C3.11549 3.48259 3.16882 3.38452 3.24001 3.3C3.3103 3.22 3.39681 3.15588 3.4938 3.11191C3.59079 3.06795 3.69603 3.04514 3.80251 3.045H6.05251C6.22692 3.04112 6.39723 3.09816 6.53412 3.2063C6.67101 3.31445 6.76592 3.46693 6.80251 3.6375C6.83251 3.8425 6.87001 4.045 6.91501 4.245C7.00165 4.64036 7.11696 5.02889 7.26001 5.4075L6.21001 5.895C6.12024 5.93619 6.03948 5.99471 5.97238 6.0672C5.90528 6.13968 5.85317 6.22471 5.81902 6.3174C5.78487 6.41008 5.76937 6.5086 5.7734 6.60729C5.77743 6.70599 5.80092 6.80291 5.84251 6.8925C6.92192 9.20457 8.78045 11.0631 11.0925 12.1425C11.2751 12.2175 11.4799 12.2175 11.6625 12.1425C11.756 12.109 11.842 12.0573 11.9154 11.9904C11.9888 11.9234 12.0481 11.8426 12.09 11.7525L12.555 10.7025C12.9427 10.8412 13.3385 10.9564 13.74 11.0475C13.94 11.0925 14.1425 11.13 14.3475 11.16C14.5181 11.1966 14.6706 11.2915 14.7787 11.4284C14.8869 11.5653 14.9439 11.7356 14.94 11.91L14.955 14.25Z" fill="black"/>
</svg>
