<svg width="18" height="18" viewBox="0 0 18 18" fill="none" xmlns="http://www.w3.org/2000/svg">
<path d="M14.0775 9.66002C14.2425 9.69752 14.415 9.75002 14.58 9.75002C15.0929 9.84199 15.5579 10.1091 15.8958 10.5058C16.2336 10.9024 16.4233 11.4041 16.4325 11.925V14.175C16.434 14.4934 16.3679 14.8084 16.2386 15.0993C16.1093 15.3902 15.9198 15.6503 15.6825 15.8625C15.2696 16.2304 14.7356 16.4333 14.1825 16.4325H13.8975C10.754 16.0444 7.82947 14.6201 5.58575 12.3845C3.34204 10.1489 1.90707 7.22956 1.50751 4.08752C1.46332 3.76732 1.48865 3.44135 1.58176 3.13181C1.67487 2.82227 1.83358 2.53642 2.04709 2.29373C2.2606 2.05105 2.52389 1.85721 2.81905 1.72542C3.1142 1.59363 3.43429 1.52699 3.75751 1.53002H6.00751C6.54354 1.52223 7.06473 1.70608 7.47723 2.04845C7.88973 2.39083 8.16644 2.86924 8.25751 3.39752C8.28001 3.57002 8.31002 3.74252 8.34752 3.90752C8.42322 4.24112 8.52093 4.56934 8.64002 4.89002C8.76659 5.23796 8.76002 5.62041 8.62156 5.96379C8.4831 6.30717 8.22254 6.58721 7.89002 6.75002L7.57502 6.96002C7.98138 7.69052 8.48609 8.36179 9.07502 8.95502C9.66825 9.54395 10.3395 10.0487 11.07 10.455L11.235 10.1175C11.3978 9.785 11.6779 9.52444 12.0212 9.38598C12.3646 9.24752 12.7471 9.24095 13.095 9.36752C13.415 9.48864 13.7434 9.58639 14.0775 9.66002Z" fill="black"/>
</svg>
