<svg width="18" height="18" viewBox="0 0 18 18" fill="none" xmlns="http://www.w3.org/2000/svg">
<path d="M12 3L6 3C5.20435 3 4.44129 3.31607 3.87868 3.87868C3.31607 4.44129 3 5.20435 3 6L3 12C3 12.7956 3.31607 13.5587 3.87868 14.1213C4.44129 14.6839 5.20435 15 6 15L12 15C12.7956 15 13.5587 14.6839 14.1213 14.1213C14.6839 13.5587 15 12.7956 15 12L15 6C15 5.20435 14.6839 4.44129 14.1213 3.87868C13.5587 3.31607 12.7956 3 12 3ZM13.8 12C13.8 12.4774 13.6104 12.9352 13.2728 13.2728C12.9352 13.6104 12.4774 13.8 12 13.8L6 13.8C5.52261 13.8 5.06477 13.6104 4.72721 13.2728C4.38964 12.9352 4.2 12.4774 4.2 12L4.2 6C4.2 5.52261 4.38964 5.06477 4.72721 4.72721C5.06477 4.38964 5.52261 4.2 6 4.2L12 4.2C12.4774 4.2 12.9352 4.38964 13.2728 4.72721C13.6104 5.06477 13.8 5.52261 13.8 6L13.8 12Z" fill="white"/>
<path fill-rule="evenodd" clip-rule="evenodd" d="M5.9998 2.80005L11.9998 2.80005C12.8485 2.80005 13.6624 3.13719 14.2625 3.73731C14.8627 4.33742 15.1998 5.15136 15.1998 6.00005L15.1998 12C15.1998 12.8487 14.8627 13.6627 14.2625 14.2628C13.6624 14.8629 12.8485 15.2 11.9998 15.2L5.9998 15.2C5.15111 15.2 4.33718 14.8629 3.73706 14.2628C3.13695 13.6627 2.7998 12.8487 2.7998 12L2.7998 6.00005C2.7998 5.15136 3.13695 4.33742 3.73706 3.73731C4.33718 3.13719 5.15111 2.80005 5.9998 2.80005ZM13.1312 13.1314C13.4312 12.8314 13.5998 12.4244 13.5998 12L13.5998 6.00005C13.5998 5.5757 13.4312 5.16874 13.1312 4.86868C12.8311 4.56862 12.4242 4.40005 11.9998 4.40005L5.9998 4.40005C5.57546 4.40005 5.16849 4.56862 4.86843 4.86868C4.56838 5.16874 4.3998 5.5757 4.3998 6.00005L4.3998 12C4.3998 12.4244 4.56838 12.8314 4.86843 13.1314C5.16849 13.4315 5.57546 13.6 5.9998 13.6L11.9998 13.6C12.4242 13.6 12.8311 13.4315 13.1312 13.1314ZM5.9998 3.00005L11.9998 3.00005C12.7955 3.00005 13.5585 3.31612 14.1211 3.87873C14.6837 4.44134 14.9998 5.2044 14.9998 6.00005L14.9998 12C14.9998 12.7957 14.6837 13.5588 14.1211 14.1214C13.5585 14.684 12.7955 15 11.9998 15L5.9998 15C5.20416 15 4.44109 14.684 3.87848 14.1214C3.31588 13.5588 2.9998 12.7957 2.9998 12L2.9998 6.00005C2.9998 5.2044 3.31588 4.44134 3.87848 3.87873C4.44109 3.31612 5.20416 3.00005 5.9998 3.00005ZM13.2726 13.2728C13.6102 12.9353 13.7998 12.4774 13.7998 12L13.7998 6.00005C13.7998 5.52266 13.6102 5.06482 13.2726 4.72726C12.935 4.38969 12.4772 4.20005 11.9998 4.20005L5.9998 4.20005C5.52242 4.20005 5.06458 4.38969 4.72701 4.72726C4.38945 5.06482 4.1998 5.52266 4.1998 6.00005L4.1998 12C4.1998 12.4774 4.38945 12.9353 4.72701 13.2728C5.06458 13.6104 5.52242 13.8 5.9998 13.8L11.9998 13.8C12.4772 13.8 12.935 13.6104 13.2726 13.2728Z" fill="white"/>
</svg>
