<svg width="18" height="18" viewBox="0 0 18 18" fill="none" xmlns="http://www.w3.org/2000/svg">
<path d="M15.0927 6.74971L7.84766 2.59471C7.45562 2.36833 7.01066 2.24974 6.55796 2.25099C6.10525 2.25223 5.66094 2.37326 5.27016 2.60179C4.87937 2.83032 4.55603 3.15821 4.33297 3.55215C4.10991 3.94608 3.99509 4.39204 4.00016 4.84471L4.00016 13.1847C4.00016 13.865 4.2704 14.5174 4.75143 14.9984C5.23246 15.4795 5.88488 15.7497 6.56516 15.7497C7.01549 15.749 7.45773 15.63 7.84766 15.4047L15.0927 11.2497C15.482 11.0244 15.8052 10.7007 16.0298 10.311C16.2545 9.92139 16.3728 9.47951 16.3728 9.02971C16.3728 8.57992 16.2545 8.13804 16.0298 7.74839C15.8052 7.35874 15.482 7.03502 15.0927 6.80971V6.74971ZM14.3427 9.89221L7.09766 14.1072C6.93528 14.1992 6.75181 14.2476 6.56516 14.2476C6.37851 14.2476 6.19505 14.1992 6.03266 14.1072C5.87073 14.0137 5.73627 13.8793 5.6428 13.7173C5.54932 13.5554 5.50013 13.3717 5.50016 13.1847L5.50016 4.81471C5.50013 4.62774 5.54932 4.44405 5.6428 4.28211C5.73627 4.12018 5.87073 3.9857 6.03266 3.89221C6.19572 3.80158 6.37863 3.75263 6.56516 3.74971C6.75156 3.75354 6.93426 3.80243 7.09766 3.89221L14.3427 8.07721C14.5046 8.17066 14.6392 8.30512 14.7327 8.46706C14.8262 8.62899 14.8755 8.81271 14.8755 8.99971C14.8755 9.18672 14.8262 9.37043 14.7327 9.53237C14.6392 9.69431 14.5046 9.82877 14.3427 9.92221V9.89221Z" fill="white"/>
</svg>
