<svg width="18" height="18" viewBox="0 0 18 18" fill="none" xmlns="http://www.w3.org/2000/svg">
<path d="M14.58 9.74999C14.415 9.74999 14.2425 9.69749 14.0775 9.65999C13.7434 9.58636 13.415 9.48861 13.095 9.36749C12.7471 9.24091 12.3646 9.24749 12.0212 9.38595C11.6779 9.52441 11.3978 9.78497 11.235 10.1175L11.07 10.455C10.3395 10.0486 9.66825 9.54392 9.07502 8.95499C8.48609 8.36176 7.98138 7.69049 7.57502 6.95999L7.89002 6.74999C8.22254 6.58718 8.4831 6.30714 8.62156 5.96376C8.76002 5.62038 8.76659 5.23793 8.64002 4.88999C8.52093 4.56931 8.42322 4.24109 8.34752 3.90749C8.31001 3.74249 8.28001 3.56999 8.25751 3.39749C8.16644 2.86921 7.88973 2.3908 7.47723 2.04842C7.06473 1.70605 6.54354 1.5222 6.00751 1.52999H3.75751C3.43429 1.52696 3.1142 1.5936 2.81905 1.72539C2.52389 1.85718 2.2606 2.05101 2.04709 2.2937C1.83358 2.53639 1.67487 2.82224 1.58176 3.13178C1.48865 3.44132 1.46332 3.76729 1.50751 4.08749C1.90707 7.22953 3.34204 10.1489 5.58575 12.3845C7.82947 14.62 10.754 16.0444 13.8975 16.4325H14.1825C14.7356 16.4333 15.2696 16.2304 15.6825 15.8625C15.9198 15.6503 16.1093 15.3901 16.2386 15.0992C16.3679 14.8083 16.434 14.4933 16.4325 14.175V11.925C16.4233 11.404 16.2336 10.9024 15.8958 10.5057C15.5579 10.1091 15.0929 9.84196 14.58 9.74999ZM14.955 14.25C14.9549 14.3565 14.9321 14.4617 14.8881 14.5587C14.8441 14.6557 14.78 14.7422 14.7 14.8125C14.6165 14.8852 14.5185 14.9396 14.4125 14.9719C14.3065 15.0042 14.1949 15.0138 14.085 15C11.2762 14.6398 8.66719 13.3549 6.66955 11.3477C4.67191 9.34056 3.39932 6.7255 3.05251 3.91499C3.04058 3.80513 3.05104 3.69399 3.08327 3.58829C3.11549 3.48258 3.16882 3.38451 3.24001 3.29999C3.3103 3.21999 3.39681 3.15587 3.4938 3.11191C3.59079 3.06794 3.69603 3.04513 3.80251 3.04499H6.05251C6.22692 3.04111 6.39723 3.09815 6.53412 3.2063C6.67101 3.31444 6.76592 3.46692 6.80251 3.63749C6.83251 3.84249 6.87001 4.04499 6.91501 4.24499C7.00165 4.64035 7.11696 5.02888 7.26001 5.40749L6.21001 5.89499C6.12024 5.93618 6.03948 5.9947 5.97238 6.06719C5.90528 6.13968 5.85317 6.2247 5.81902 6.31739C5.78487 6.41007 5.76937 6.50859 5.7734 6.60728C5.77743 6.70598 5.80092 6.8029 5.84251 6.89249C6.92192 9.20456 8.78045 11.0631 11.0925 12.1425C11.2751 12.2175 11.4799 12.2175 11.6625 12.1425C11.756 12.109 11.842 12.0573 11.9154 11.9904C11.9888 11.9234 12.0481 11.8426 12.09 11.7525L12.555 10.7025C12.9427 10.8412 13.3385 10.9564 13.74 11.0475C13.94 11.0925 14.1425 11.13 14.3475 11.16C14.5181 11.1966 14.6706 11.2915 14.7787 11.4284C14.8869 11.5653 14.9439 11.7356 14.94 11.91L14.955 14.25Z" fill="black"/>
</svg>
