<svg width="18" height="18" viewBox="0 0 18 18" fill="none" xmlns="http://www.w3.org/2000/svg">
<path d="M15.0927 6.75002L7.84766 2.59502C7.45562 2.36864 7.01066 2.25005 6.55796 2.25129C6.10525 2.25253 5.66094 2.37357 5.27016 2.6021C4.87937 2.83063 4.55603 3.15852 4.33297 3.55245C4.10991 3.94639 3.99509 4.39234 4.00016 4.84502V13.185C4.00016 13.8653 4.2704 14.5177 4.75143 14.9987C5.23246 15.4798 5.88488 15.75 6.56516 15.75C7.01549 15.7493 7.45773 15.6303 7.84766 15.405L15.0927 11.25C15.482 11.0247 15.8052 10.701 16.0298 10.3113C16.2545 9.9217 16.3728 9.47981 16.3728 9.03002C16.3728 8.58023 16.2545 8.13834 16.0298 7.74869C15.8052 7.35904 15.482 7.03533 15.0927 6.81002V6.75002ZM14.3427 9.89252L7.09766 14.1075C6.93528 14.1995 6.75181 14.2479 6.56516 14.2479C6.37851 14.2479 6.19505 14.1995 6.03266 14.1075C5.87073 14.014 5.73627 13.8796 5.6428 13.7176C5.54932 13.5557 5.50013 13.372 5.50016 13.185V4.81502C5.50013 4.62804 5.54932 4.44435 5.6428 4.28242C5.73627 4.12048 5.87073 3.98601 6.03266 3.89252C6.19572 3.80189 6.37863 3.75294 6.56516 3.75002C6.75156 3.75385 6.93426 3.80274 7.09766 3.89252L14.3427 8.07752C14.5046 8.17097 14.6392 8.30542 14.7327 8.46736C14.8262 8.6293 14.8755 8.81301 14.8755 9.00002C14.8755 9.18703 14.8262 9.37074 14.7327 9.53268C14.6392 9.69462 14.5046 9.82907 14.3427 9.92252V9.89252Z" fill="black"/>
</svg>
