<svg width="18" height="18" viewBox="0 0 18 18" fill="none" xmlns="http://www.w3.org/2000/svg">
<path d="M7.3425 9.5925L3 13.9425V12.75C3 12.5511 2.92098 12.3603 2.78033 12.2197C2.63968 12.079 2.44891 12 2.25 12C2.05109 12 1.86032 12.079 1.71967 12.2197C1.57902 12.3603 1.5 12.5511 1.5 12.75V15.75C1.50118 15.848 1.52157 15.9448 1.56 16.035C1.63611 16.2183 1.78174 16.3639 1.965 16.44C2.05517 16.4784 2.15199 16.4988 2.25 16.5H5.25C5.44891 16.5 5.63968 16.421 5.78033 16.2803C5.92098 16.1397 6 15.9489 6 15.75C6 15.5511 5.92098 15.3603 5.78033 15.2197C5.63968 15.079 5.44891 15 5.25 15H4.0575L8.4075 10.6575C8.54873 10.5163 8.62807 10.3247 8.62807 10.125C8.62807 9.92527 8.54873 9.73373 8.4075 9.5925C8.26627 9.45127 8.07473 9.37193 7.875 9.37193C7.67527 9.37193 7.48373 9.45127 7.3425 9.5925V9.5925ZM16.44 1.965C16.3639 1.78174 16.2183 1.63611 16.035 1.56C15.9448 1.52157 15.848 1.50118 15.75 1.5H12.75C12.5511 1.5 12.3603 1.57902 12.2197 1.71967C12.079 1.86032 12 2.05109 12 2.25C12 2.44891 12.079 2.63968 12.2197 2.78033C12.3603 2.92098 12.5511 3 12.75 3H13.9425L9.5925 7.3425C9.5222 7.41222 9.46641 7.49517 9.42833 7.58657C9.39026 7.67796 9.37065 7.77599 9.37065 7.875C9.37065 7.97401 9.39026 8.07204 9.42833 8.16343C9.46641 8.25483 9.5222 8.33778 9.5925 8.4075C9.66222 8.4778 9.74517 8.53359 9.83657 8.57167C9.92796 8.60974 10.026 8.62935 10.125 8.62935C10.224 8.62935 10.322 8.60974 10.4134 8.57167C10.5048 8.53359 10.5878 8.4778 10.6575 8.4075L15 4.0575V5.25C15 5.44891 15.079 5.63968 15.2197 5.78033C15.3603 5.92098 15.5511 6 15.75 6C15.9489 6 16.1397 5.92098 16.2803 5.78033C16.421 5.63968 16.5 5.44891 16.5 5.25V2.25C16.4988 2.15199 16.4784 2.05517 16.44 1.965Z" fill="black"/>
</svg>
