<svg width="18" height="18" viewBox="0 0 18 18" fill="none" xmlns="http://www.w3.org/2000/svg">
<path d="M16.2825 1.71745C16.2127 1.64716 16.1298 1.59136 16.0384 1.55329C15.947 1.51521 15.849 1.49561 15.75 1.49561C15.6509 1.49561 15.5529 1.51521 15.4615 1.55329C15.3701 1.59136 15.2872 1.64716 15.2175 1.71745L10.875 6.06745V4.87495C10.875 4.67604 10.7959 4.48528 10.6553 4.34462C10.5146 4.20397 10.3239 4.12495 10.125 4.12495C9.92604 4.12495 9.73528 4.20397 9.59462 4.34462C9.45397 4.48528 9.37495 4.67604 9.37495 4.87495V7.87495C9.37614 7.97296 9.39652 8.06979 9.43495 8.15995C9.51106 8.34322 9.65669 8.48885 9.83995 8.56495C9.93012 8.60339 10.0269 8.62377 10.125 8.62495H13.125C13.3239 8.62495 13.5146 8.54594 13.6553 8.40528C13.7959 8.26463 13.875 8.07387 13.875 7.87495C13.875 7.67604 13.7959 7.48528 13.6553 7.34462C13.5146 7.20397 13.3239 7.12495 13.125 7.12495H11.9325L16.2825 2.78245C16.3527 2.71273 16.4085 2.62978 16.4466 2.53839C16.4847 2.44699 16.5043 2.34896 16.5043 2.24995C16.5043 2.15095 16.4847 2.05292 16.4466 1.96152C16.4085 1.87013 16.3527 1.78718 16.2825 1.71745V1.71745ZM8.15995 9.43495C8.06979 9.39652 7.97296 9.37614 7.87495 9.37495H4.87495C4.67604 9.37495 4.48528 9.45397 4.34462 9.59462C4.20397 9.73528 4.12495 9.92604 4.12495 10.125C4.12495 10.3239 4.20397 10.5146 4.34462 10.6553C4.48528 10.7959 4.67604 10.875 4.87495 10.875H6.06745L1.71745 15.2175C1.64716 15.2872 1.59136 15.3701 1.55329 15.4615C1.51521 15.5529 1.49561 15.6509 1.49561 15.75C1.49561 15.849 1.51521 15.947 1.55329 16.0384C1.59136 16.1298 1.64716 16.2127 1.71745 16.2825C1.78718 16.3527 1.87013 16.4085 1.96152 16.4466C2.05292 16.4847 2.15095 16.5043 2.24995 16.5043C2.34896 16.5043 2.44699 16.4847 2.53839 16.4466C2.62978 16.4085 2.71273 16.3527 2.78245 16.2825L7.12495 11.9325V13.125C7.12495 13.3239 7.20397 13.5146 7.34462 13.6553C7.48528 13.7959 7.67604 13.875 7.87495 13.875C8.07387 13.875 8.26463 13.7959 8.40528 13.6553C8.54594 13.5146 8.62495 13.3239 8.62495 13.125V10.125C8.62377 10.0269 8.60339 9.93012 8.56495 9.83995C8.48885 9.65669 8.34322 9.51106 8.15995 9.43495Z" fill="black"/>
</svg>
