<svg width="16" height="17" viewBox="0 0 16 17" fill="none" xmlns="http://www.w3.org/2000/svg">
<path d="M12.668 7.83268H8.66797V3.83268C8.66797 3.65587 8.59773 3.4863 8.47271 3.36128C8.34768 3.23625 8.17811 3.16602 8.0013 3.16602C7.82449 3.16602 7.65492 3.23625 7.5299 3.36128C7.40487 3.4863 7.33464 3.65587 7.33464 3.83268V7.83268H3.33464C3.15782 7.83268 2.98826 7.90292 2.86323 8.02794C2.73821 8.15297 2.66797 8.32254 2.66797 8.49935C2.66797 8.67616 2.73821 8.84573 2.86323 8.97075C2.98826 9.09578 3.15782 9.16602 3.33464 9.16602H7.33464V13.166C7.33464 13.3428 7.40487 13.5124 7.5299 13.6374C7.65492 13.7624 7.82449 13.8327 8.0013 13.8327C8.17811 13.8327 8.34768 13.7624 8.47271 13.6374C8.59773 13.5124 8.66797 13.3428 8.66797 13.166V9.16602H12.668C12.8448 9.16602 13.0143 9.09578 13.1394 8.97075C13.2644 8.84573 13.3346 8.67616 13.3346 8.49935C13.3346 8.32254 13.2644 8.15297 13.1394 8.02794C13.0143 7.90292 12.8448 7.83268 12.668 7.83268Z" fill="#808080"/>
</svg>
