<svg width="18" height="18" viewBox="0 0 18 18" fill="none" xmlns="http://www.w3.org/2000/svg">
<path fill-rule="evenodd" clip-rule="evenodd" d="M11.9216 5.22458C12.013 5.26266 12.0959 5.31845 12.1656 5.38875C12.2418 5.45898 12.3025 5.54422 12.3441 5.63909C12.3856 5.73397 12.4071 5.83642 12.4071 5.94C12.4071 6.04358 12.3856 6.14603 12.3441 6.2409C12.3025 6.33578 12.2418 6.42102 12.1656 6.49125L6.04564 12.6112C5.97592 12.6815 5.89297 12.7373 5.80157 12.7754C5.71018 12.8135 5.61215 12.8331 5.51314 12.8331C5.41413 12.8331 5.3161 12.8135 5.22471 12.7754C5.13331 12.7373 5.05036 12.6815 4.98064 12.6112L2.10064 9.73125C2.02825 9.66132 1.97034 9.57782 1.93022 9.48551C1.8901 9.3932 1.86856 9.29389 1.86681 9.19326C1.86507 9.09262 1.88317 8.99263 1.92007 8.89899C1.95698 8.80535 2.01196 8.71989 2.08189 8.6475C2.15182 8.57511 2.23532 8.5172 2.32763 8.47708C2.41994 8.43696 2.51925 8.41541 2.61988 8.41367C2.72052 8.41193 2.82051 8.43003 2.91415 8.46693C3.00779 8.50383 3.09325 8.55882 3.16564 8.62875L5.51314 10.9837L11.1006 5.38875C11.1704 5.31845 11.2533 5.26266 11.3447 5.22458C11.4361 5.1865 11.5341 5.1669 11.6331 5.1669C11.7322 5.1669 11.8302 5.1865 11.9216 5.22458ZM15.8918 5.38875C15.8221 5.31845 15.7391 5.26266 15.6477 5.22458C15.5563 5.1865 15.4583 5.1669 15.3593 5.1669C15.2603 5.1669 15.1623 5.1865 15.0709 5.22458C14.9795 5.26266 14.8965 5.31845 14.8268 5.38875L9.2393 10.9837L8.1593 12.0637L8.7068 12.6112C8.77652 12.6815 8.85948 12.7373 8.95087 12.7754C9.04226 12.8135 9.14029 12.8331 9.2393 12.8331C9.33831 12.8331 9.43634 12.8135 9.52773 12.7754C9.61913 12.7373 9.70208 12.6815 9.7718 12.6112L15.8918 6.49125C15.9679 6.42102 16.0287 6.33578 16.0702 6.2409C16.1118 6.14603 16.1333 6.04358 16.1333 5.94C16.1333 5.83642 16.1118 5.73397 16.0702 5.63909C16.0287 5.54422 15.9679 5.45898 15.8918 5.38875Z" fill="black"/>
</svg>
