<svg width="12" height="12" viewBox="0 0 12 12" fill="none" xmlns="http://www.w3.org/2000/svg">
<path d="M10.614 8.04685H7.9715C7.81679 8.04685 7.66842 8.10831 7.55902 8.2177C7.44963 8.3271 7.38817 8.47547 7.38817 8.63018C7.38817 8.78489 7.44963 8.93326 7.55902 9.04266C7.66842 9.15206 7.81679 9.21352 7.9715 9.21352H9.3715C8.72805 9.88594 7.89824 10.3506 6.98868 10.5478C6.07913 10.745 5.13138 10.6658 4.26721 10.3202C3.40304 9.9747 2.66193 9.37866 2.1391 8.6087C1.61627 7.83874 1.33561 6.93004 1.33317 5.99935C1.33317 5.84464 1.27171 5.69627 1.16232 5.58687C1.05292 5.47747 0.904547 5.41602 0.749837 5.41602C0.595128 5.41602 0.446754 5.47747 0.337358 5.58687C0.227962 5.69627 0.166504 5.84464 0.166504 5.99935C0.169588 7.13848 0.506133 8.25178 1.13461 9.20187C1.76308 10.1519 2.65598 10.8972 3.7031 11.3457C4.75023 11.7942 5.90576 11.9263 7.0271 11.7257C8.14843 11.5251 9.18649 11.0006 10.0132 10.2168V11.2493C10.0132 11.4041 10.0746 11.5524 10.184 11.6618C10.2934 11.7712 10.4418 11.8327 10.5965 11.8327C10.7512 11.8327 10.8996 11.7712 11.009 11.6618C11.1184 11.5524 11.1798 11.4041 11.1798 11.2493V8.62435C11.1784 8.47364 11.1187 8.32933 11.0132 8.22167C10.9077 8.11401 10.7647 8.05136 10.614 8.04685ZM5.99984 0.166016C4.5044 0.170281 3.06771 0.748715 1.9865 1.78185V0.749349C1.9865 0.594639 1.92505 0.446266 1.81565 0.33687C1.70625 0.227474 1.55788 0.166016 1.40317 0.166016C1.24846 0.166016 1.10009 0.227474 0.990692 0.33687C0.881295 0.446266 0.819837 0.594639 0.819837 0.749349V3.37435C0.819837 3.52906 0.881295 3.67743 0.990692 3.78683C1.10009 3.89622 1.24846 3.95768 1.40317 3.95768H4.02817C4.18288 3.95768 4.33125 3.89622 4.44065 3.78683C4.55005 3.67743 4.6115 3.52906 4.6115 3.37435C4.6115 3.21964 4.55005 3.07127 4.44065 2.96187C4.33125 2.85247 4.18288 2.79102 4.02817 2.79102H2.62817C3.27128 2.11894 4.10056 1.65439 5.00957 1.457C5.91858 1.2596 6.86585 1.33837 7.72977 1.68319C8.5937 2.028 9.33487 2.62314 9.85814 3.3922C10.3814 4.16126 10.6629 5.06916 10.6665 5.99935C10.6665 6.15406 10.728 6.30243 10.8374 6.41183C10.9468 6.52122 11.0951 6.58268 11.2498 6.58268C11.4045 6.58268 11.5529 6.52122 11.6623 6.41183C11.7717 6.30243 11.8332 6.15406 11.8332 5.99935C11.8332 5.2333 11.6823 4.47476 11.3891 3.76703C11.096 3.0593 10.6663 2.41623 10.1246 1.87456C9.58295 1.33288 8.93989 0.903204 8.23216 0.610052C7.52442 0.316899 6.76588 0.166016 5.99984 0.166016Z" fill="#808080"/>
</svg>
