<svg width="18" height="18" viewBox="0 0 18 18" fill="none" xmlns="http://www.w3.org/2000/svg">
<path d="M16.2825 15.2175L13.5 12.4575C14.5801 11.1108 15.1031 9.40146 14.9616 7.68096C14.8201 5.96047 14.0247 4.35958 12.7391 3.20747C11.4535 2.05537 9.77534 1.43962 8.04968 1.48684C6.32402 1.53406 4.68203 2.24066 3.46135 3.46135C2.24066 4.68203 1.53406 6.32402 1.48684 8.04968C1.43962 9.77534 2.05537 11.4535 3.20747 12.7391C4.35958 14.0247 5.96047 14.8201 7.68096 14.9616C9.40146 15.1031 11.1108 14.5801 12.4575 13.5L15.2175 16.26C15.2872 16.3303 15.3702 16.3861 15.4616 16.4242C15.553 16.4622 15.651 16.4818 15.75 16.4818C15.849 16.4818 15.947 16.4622 16.0384 16.4242C16.1298 16.3861 16.2128 16.3303 16.2825 16.26C16.4177 16.1201 16.4932 15.9332 16.4932 15.7387C16.4932 15.5442 16.4177 15.3573 16.2825 15.2175ZM8.24999 13.5C7.21164 13.5 6.1966 13.1921 5.33325 12.6152C4.46989 12.0383 3.79698 11.2184 3.39962 10.2591C3.00226 9.29977 2.89829 8.24417 3.10087 7.22577C3.30344 6.20737 3.80345 5.2719 4.53768 4.53768C5.2719 3.80345 6.20737 3.30344 7.22577 3.10087C8.24417 2.89829 9.29977 3.00226 10.2591 3.39962C11.2184 3.79698 12.0383 4.46989 12.6152 5.33325C13.1921 6.1966 13.5 7.21164 13.5 8.24999C13.5 9.64238 12.9469 10.9777 11.9623 11.9623C10.9777 12.9469 9.64238 13.5 8.24999 13.5Z" fill="black"/>
</svg>
