<svg width="18" height="18" viewBox="0 0 18 18" fill="none" xmlns="http://www.w3.org/2000/svg">
<path d="M14.925 9.49501C14.8047 9.35815 14.7384 9.18219 14.7384 9.00001C14.7384 8.81783 14.8047 8.64188 14.925 8.50501L15.885 7.42501C15.9908 7.30701 16.0565 7.15854 16.0726 7.00089C16.0888 6.84325 16.0546 6.68453 15.975 6.54751L14.475 3.95251C14.3962 3.81565 14.2761 3.70717 14.132 3.64253C13.9879 3.57788 13.8271 3.56038 13.6725 3.59251L12.2625 3.87751C12.0831 3.91458 11.8963 3.8847 11.7374 3.79351C11.5785 3.70232 11.4585 3.55613 11.4 3.38251L10.9425 2.01001C10.8922 1.86105 10.7963 1.73166 10.6685 1.64014C10.5406 1.54863 10.3872 1.49961 10.23 1.50001H7.22998C7.06643 1.49148 6.90458 1.53671 6.76916 1.6288C6.63373 1.72089 6.53217 1.85478 6.47998 2.01001L6.05998 3.38251C6.00148 3.55613 5.88146 3.70232 5.72257 3.79351C5.56367 3.8847 5.3769 3.91458 5.19748 3.87751L3.74998 3.59251C3.6034 3.5718 3.45396 3.59493 3.32049 3.65899C3.18703 3.72306 3.07551 3.82518 2.99998 3.95251L1.49998 6.54751C1.41835 6.683 1.38165 6.84083 1.39512 6.99843C1.40859 7.15603 1.47154 7.30534 1.57498 7.42501L2.52748 8.50501C2.64772 8.64188 2.71403 8.81783 2.71403 9.00001C2.71403 9.18219 2.64772 9.35815 2.52748 9.49501L1.57498 10.575C1.47154 10.6947 1.40859 10.844 1.39512 11.0016C1.38165 11.1592 1.41835 11.317 1.49998 11.4525L2.99998 14.0475C3.07881 14.1844 3.19882 14.2929 3.34292 14.3575C3.48702 14.4221 3.64785 14.4396 3.80248 14.4075L5.21248 14.1225C5.3919 14.0854 5.57867 14.1153 5.73757 14.2065C5.89646 14.2977 6.01648 14.4439 6.07498 14.6175L6.53248 15.99C6.58467 16.1452 6.68623 16.2791 6.82166 16.3712C6.95708 16.4633 7.11893 16.5086 7.28248 16.5H10.2825C10.4397 16.5004 10.5931 16.4514 10.721 16.3599C10.8488 16.2684 10.9447 16.139 10.995 15.99L11.4525 14.6175C11.511 14.4439 11.631 14.2977 11.7899 14.2065C11.9488 14.1153 12.1356 14.0854 12.315 14.1225L13.725 14.4075C13.8796 14.4396 14.0404 14.4221 14.1845 14.3575C14.3286 14.2929 14.4487 14.1844 14.5275 14.0475L16.0275 11.4525C16.1071 11.3155 16.1413 11.1568 16.1251 10.9991C16.109 10.8415 16.0433 10.693 15.9375 10.575L14.925 9.49501ZM13.8075 10.5L14.4075 11.175L13.4475 12.84L12.5625 12.66C12.0223 12.5496 11.4604 12.6414 10.9834 12.9179C10.5064 13.1944 10.1476 13.6364 9.97498 14.16L9.68998 15H7.76998L7.49998 14.145C7.32737 13.6214 6.96852 13.1794 6.49154 12.9029C6.01455 12.6264 5.45265 12.5346 4.91248 12.645L4.02748 12.825L3.05248 11.1675L3.65248 10.4925C4.02145 10.08 4.22543 9.54596 4.22543 8.99251C4.22543 8.43906 4.02145 7.90503 3.65248 7.49251L3.05248 6.81751L4.01248 5.16751L4.89748 5.34751C5.43765 5.45793 5.99955 5.36617 6.47654 5.08966C6.95352 4.81315 7.31237 4.37113 7.48498 3.84751L7.76998 3.00001H9.68998L9.97498 3.85501C10.1476 4.37863 10.5064 4.82065 10.9834 5.09716C11.4604 5.37367 12.0223 5.46543 12.5625 5.35501L13.4475 5.17501L14.4075 6.84001L13.8075 7.51501C13.4427 7.92658 13.2412 8.45752 13.2412 9.00751C13.2412 9.5575 13.4427 10.0884 13.8075 10.5ZM8.72998 6.00001C8.13664 6.00001 7.55662 6.17596 7.06327 6.5056C6.56992 6.83525 6.18541 7.30378 5.95834 7.85196C5.73128 8.40014 5.67187 9.00334 5.78763 9.58528C5.90338 10.1672 6.18911 10.7018 6.60866 11.1213C7.02822 11.5409 7.56277 11.8266 8.14471 11.9424C8.72666 12.0581 9.32985 11.9987 9.87803 11.7717C10.4262 11.5446 10.8947 11.1601 11.2244 10.6667C11.554 10.1734 11.73 9.59336 11.73 9.00001C11.73 8.20436 11.4139 7.4413 10.8513 6.87869C10.2887 6.31608 9.52563 6.00001 8.72998 6.00001ZM8.72998 10.5C8.43331 10.5 8.1433 10.412 7.89663 10.2472C7.64995 10.0824 7.4577 9.84813 7.34416 9.57404C7.23063 9.29995 7.20093 8.99835 7.2588 8.70738C7.31668 8.41641 7.45954 8.14913 7.66932 7.93935C7.8791 7.72957 8.14638 7.58671 8.43735 7.52884C8.72832 7.47096 9.02992 7.50066 9.30401 7.61419C9.5781 7.72773 9.81236 7.91998 9.97719 8.16666C10.142 8.41333 10.23 8.70334 10.23 9.00001C10.23 9.39784 10.0719 9.77937 9.79064 10.0607C9.50934 10.342 9.12781 10.5 8.72998 10.5Z" fill="black"/>
</svg>
