<svg width="18" height="18" viewBox="0 0 18 18" fill="none" xmlns="http://www.w3.org/2000/svg">
<path d="M16.2803 8.46975L10.2802 2.46975C10.1754 2.36486 10.0417 2.29342 9.89627 2.26448C9.7508 2.23553 9.60001 2.25038 9.46297 2.30714C9.32593 2.3639 9.2088 2.46002 9.12639 2.58335C9.04398 2.70667 9 2.85167 9 3V5.65869C6.95122 5.84832 5.04694 6.79565 3.6598 8.31527C2.27265 9.8349 1.50248 11.8175 1.5 13.875V15C1.49999 15.1558 1.54847 15.3076 1.63871 15.4346C1.72896 15.5615 1.85649 15.6573 2.0036 15.7084C2.15071 15.7596 2.31011 15.7637 2.45965 15.7202C2.6092 15.6766 2.74148 15.5876 2.83814 15.4655C3.57287 14.5917 4.47437 13.873 5.48997 13.3516C6.50558 12.8302 7.61492 12.5163 8.75318 12.4285C8.79053 12.4237 8.88427 12.4164 9 12.4091V15C9 15.1483 9.04398 15.2933 9.12639 15.4166C9.2088 15.54 9.32593 15.6361 9.46297 15.6929C9.60001 15.7496 9.7508 15.7645 9.89627 15.7355C10.0417 15.7066 10.1754 15.6351 10.2802 15.5302L16.2803 9.53025C16.3499 9.46062 16.4052 9.37796 16.4429 9.28698C16.4806 9.196 16.5 9.09848 16.5 9C16.5 8.90151 16.4806 8.804 16.4429 8.71301C16.4052 8.62203 16.3499 8.53937 16.2803 8.46975ZM10.5 13.1895V11.625C10.5 11.5265 10.4806 11.429 10.443 11.338C10.4053 11.2469 10.35 11.1643 10.2804 11.0946C10.2107 11.025 10.128 10.9697 10.037 10.932C9.94604 10.8944 9.8485 10.875 9.75 10.875C9.55884 10.875 8.77808 10.912 8.57886 10.9387C6.5573 11.1249 4.63302 11.893 3.03882 13.1499C3.21967 11.4956 4.00438 9.96623 5.2427 8.85455C6.48101 7.74286 8.08589 7.12704 9.75 7.125C9.8485 7.12502 9.94604 7.10564 10.037 7.06796C10.128 7.03028 10.2107 6.97503 10.2804 6.90538C10.35 6.83573 10.4053 6.75305 10.443 6.66204C10.4806 6.57103 10.5 6.4735 10.5 6.375V4.81054L14.6895 9L10.5 13.1895Z" fill="black"/>
</svg>
