<svg width="18" height="18" viewBox="0 0 18 18" fill="none" xmlns="http://www.w3.org/2000/svg">
<path d="M15 6.135V2.25C15 2.05109 14.921 1.86032 14.7803 1.71967C14.6397 1.57902 14.4489 1.5 14.25 1.5C14.0511 1.5 13.8603 1.57902 13.7197 1.71967C13.579 1.86032 13.5 2.05109 13.5 2.25V6.135C13.0656 6.29265 12.6903 6.58022 12.4251 6.95862C12.1599 7.33703 12.0176 7.78791 12.0176 8.25C12.0176 8.71209 12.1599 9.16297 12.4251 9.54138C12.6903 9.91978 13.0656 10.2073 13.5 10.365V15.75C13.5 15.9489 13.579 16.1397 13.7197 16.2803C13.8603 16.421 14.0511 16.5 14.25 16.5C14.4489 16.5 14.6397 16.421 14.7803 16.2803C14.921 16.1397 15 15.9489 15 15.75V10.365C15.4344 10.2073 15.8097 9.91978 16.0749 9.54138C16.3401 9.16297 16.4824 8.71209 16.4824 8.25C16.4824 7.78791 16.3401 7.33703 16.0749 6.95862C15.8097 6.58022 15.4344 6.29265 15 6.135ZM14.25 9C14.1017 9 13.9567 8.95601 13.8333 8.8736C13.71 8.79119 13.6139 8.67406 13.5571 8.53701C13.5003 8.39997 13.4855 8.24917 13.5144 8.10368C13.5433 7.9582 13.6148 7.82456 13.7197 7.71967C13.8246 7.61478 13.9582 7.54335 14.1037 7.51441C14.2492 7.48547 14.4 7.50032 14.537 7.55709C14.6741 7.61386 14.7912 7.70999 14.8736 7.83332C14.956 7.95666 15 8.10166 15 8.25C15 8.44891 14.921 8.63968 14.7803 8.78033C14.6397 8.92098 14.4489 9 14.25 9ZM9.75 10.635V2.25C9.75 2.05109 9.67098 1.86032 9.53033 1.71967C9.38967 1.57902 9.19891 1.5 9 1.5C8.80108 1.5 8.61032 1.57902 8.46967 1.71967C8.32901 1.86032 8.25 2.05109 8.25 2.25V10.635C7.81563 10.7927 7.44034 11.0802 7.17513 11.4586C6.90991 11.837 6.76764 12.2879 6.76764 12.75C6.76764 13.2121 6.90991 13.663 7.17513 14.0414C7.44034 14.4198 7.81563 14.7073 8.25 14.865V15.75C8.25 15.9489 8.32901 16.1397 8.46967 16.2803C8.61032 16.421 8.80108 16.5 9 16.5C9.19891 16.5 9.38967 16.421 9.53033 16.2803C9.67098 16.1397 9.75 15.9489 9.75 15.75V14.865C10.1844 14.7073 10.5597 14.4198 10.8249 14.0414C11.0901 13.663 11.2324 13.2121 11.2324 12.75C11.2324 12.2879 11.0901 11.837 10.8249 11.4586C10.5597 11.0802 10.1844 10.7927 9.75 10.635ZM9 13.5C8.85166 13.5 8.70666 13.456 8.58332 13.3736C8.45998 13.2912 8.36385 13.1741 8.30709 13.037C8.25032 12.9 8.23547 12.7492 8.26441 12.6037C8.29335 12.4582 8.36478 12.3246 8.46967 12.2197C8.57456 12.1148 8.70819 12.0434 8.85368 12.0144C8.99916 11.9855 9.14996 12.0003 9.28701 12.0571C9.42405 12.1139 9.54119 12.21 9.6236 12.3333C9.70601 12.4567 9.75 12.6017 9.75 12.75C9.75 12.9489 9.67098 13.1397 9.53033 13.2803C9.38967 13.421 9.19891 13.5 9 13.5ZM4.5 4.635V2.25C4.5 2.05109 4.42098 1.86032 4.28033 1.71967C4.13967 1.57902 3.94891 1.5 3.75 1.5C3.55108 1.5 3.36032 1.57902 3.21967 1.71967C3.07901 1.86032 3 2.05109 3 2.25V4.635C2.56563 4.79265 2.19034 5.08022 1.92513 5.45862C1.65991 5.83703 1.51764 6.28791 1.51764 6.75C1.51764 7.21209 1.65991 7.66297 1.92513 8.04138C2.19034 8.41978 2.56563 8.70735 3 8.865V15.75C3 15.9489 3.07901 16.1397 3.21967 16.2803C3.36032 16.421 3.55108 16.5 3.75 16.5C3.94891 16.5 4.13967 16.421 4.28033 16.2803C4.42098 16.1397 4.5 15.9489 4.5 15.75V8.865C4.93436 8.70735 5.30965 8.41978 5.57487 8.04138C5.84008 7.66297 5.98235 7.21209 5.98235 6.75C5.98235 6.28791 5.84008 5.83703 5.57487 5.45862C5.30965 5.08022 4.93436 4.79265 4.5 4.635ZM3.75 7.5C3.60166 7.5 3.45666 7.45601 3.33332 7.3736C3.20998 7.29119 3.11385 7.17406 3.05709 7.03701C3.00032 6.89997 2.98547 6.74917 3.01441 6.60368C3.04335 6.4582 3.11478 6.32456 3.21967 6.21967C3.32456 6.11478 3.45819 6.04335 3.60368 6.01441C3.74916 5.98547 3.89996 6.00032 4.03701 6.05709C4.17405 6.11386 4.29119 6.20999 4.3736 6.33332C4.45601 6.45666 4.5 6.60166 4.5 6.75C4.5 6.94891 4.42098 7.13968 4.28033 7.28033C4.13967 7.42098 3.94891 7.5 3.75 7.5Z" fill="black"/>
</svg>
