<svg width="18" height="18" viewBox="0 0 18 18" fill="none" xmlns="http://www.w3.org/2000/svg">
<path d="M10.77 10.6725C10.2686 11.0767 9.64402 11.2972 9 11.2972C8.35598 11.2972 7.73137 11.0767 7.23 10.6725C7.07684 10.5452 6.87938 10.4839 6.68106 10.5022C6.48274 10.5205 6.29981 10.6168 6.1725 10.77C6.0452 10.9232 5.98395 11.1206 6.00224 11.3189C6.02052 11.5173 6.11684 11.7002 6.27 11.8275C7.03601 12.467 8.00217 12.8172 9 12.8172C9.99783 12.8172 10.964 12.467 11.73 11.8275C11.8832 11.7002 11.9795 11.5173 11.9978 11.3189C12.0161 11.1206 11.9548 10.9232 11.8275 10.77C11.7645 10.6942 11.6871 10.6315 11.5999 10.5855C11.5126 10.5396 11.4171 10.5113 11.3189 10.5022C11.1206 10.4839 10.9232 10.5452 10.77 10.6725ZM6.75 8.25C6.89834 8.25 7.04334 8.20601 7.16668 8.1236C7.29002 8.04119 7.38615 7.92406 7.44291 7.78701C7.49968 7.64997 7.51453 7.49917 7.48559 7.35368C7.45665 7.2082 7.38522 7.07456 7.28033 6.96967C7.17544 6.86478 7.04181 6.79335 6.89632 6.76441C6.75084 6.73547 6.60004 6.75032 6.46299 6.80709C6.32595 6.86386 6.20881 6.95999 6.1264 7.08332C6.04399 7.20666 6 7.35166 6 7.5C6 7.69891 6.07902 7.88968 6.21967 8.03033C6.36033 8.17098 6.55109 8.25 6.75 8.25ZM11.25 6.75C11.1017 6.75 10.9567 6.79399 10.8333 6.8764C10.71 6.95881 10.6139 7.07594 10.5571 7.21299C10.5003 7.35003 10.4855 7.50083 10.5144 7.64632C10.5434 7.7918 10.6148 7.92544 10.7197 8.03033C10.8246 8.13522 10.9582 8.20665 11.1037 8.23559C11.2492 8.26453 11.4 8.24968 11.537 8.19291C11.6741 8.13614 11.7912 8.04001 11.8736 7.91668C11.956 7.79334 12 7.64834 12 7.5C12 7.30109 11.921 7.11032 11.7803 6.96967C11.6397 6.82902 11.4489 6.75 11.25 6.75ZM9 1.5C7.51664 1.5 6.0666 1.93987 4.83323 2.76398C3.59986 3.58809 2.63856 4.75943 2.07091 6.12987C1.50325 7.50032 1.35472 9.00832 1.64411 10.4632C1.9335 11.918 2.64781 13.2544 3.6967 14.3033C4.7456 15.3522 6.08197 16.0665 7.53683 16.3559C8.99168 16.6453 10.4997 16.4968 11.8701 15.9291C13.2406 15.3614 14.4119 14.4001 15.236 13.1668C16.0601 11.9334 16.5 10.4834 16.5 9C16.5 8.01509 16.306 7.03982 15.9291 6.12987C15.5522 5.21993 14.9997 4.39314 14.3033 3.6967C13.6069 3.00026 12.7801 2.44781 11.8701 2.0709C10.9602 1.69399 9.98492 1.5 9 1.5ZM9 15C7.81332 15 6.65328 14.6481 5.66658 13.9888C4.67989 13.3295 3.91085 12.3925 3.45673 11.2961C3.0026 10.1997 2.88378 8.99334 3.11529 7.82946C3.3468 6.66557 3.91825 5.59647 4.75736 4.75736C5.59648 3.91824 6.66558 3.3468 7.82946 3.11529C8.99335 2.88378 10.1997 3.0026 11.2961 3.45672C12.3925 3.91085 13.3295 4.67988 13.9888 5.66658C14.6481 6.65327 15 7.81331 15 9C15 10.5913 14.3679 12.1174 13.2426 13.2426C12.1174 14.3679 10.5913 15 9 15Z" fill="#808080"/>
</svg>
