<svg width="18" height="18" viewBox="0 0 18 18" fill="none" xmlns="http://www.w3.org/2000/svg">
<path d="M5.10315 11.25C5.05395 11.1646 4.9884 11.0898 4.91026 11.0298C4.83212 10.9698 4.74292 10.9258 4.64776 10.9003C4.55259 10.8748 4.45333 10.8683 4.35566 10.8812C4.25798 10.894 4.1638 10.926 4.0785 10.9753L2.77919 11.7253C2.60699 11.8249 2.48137 11.9887 2.42993 12.1808C2.37848 12.3729 2.40544 12.5776 2.50486 12.7498C2.60428 12.9221 2.76804 13.0478 2.96012 13.0993C3.1522 13.1508 3.35689 13.124 3.52919 13.0247L4.8285 12.2747C5.00071 12.1751 5.12637 12.0113 5.17787 11.8192C5.22937 11.627 5.20249 11.4223 5.10315 11.25ZM2.77918 6.27466L4.07849 7.02466C4.16381 7.07396 4.25801 7.10598 4.3557 7.11887C4.45339 7.13176 4.55267 7.12527 4.64785 7.09978C4.74304 7.0743 4.83227 7.0303 4.91045 6.97032C4.98863 6.91033 5.05422 6.83553 5.10348 6.75019C5.15274 6.66485 5.18471 6.57064 5.19755 6.47294C5.21039 6.37524 5.20385 6.27597 5.17832 6.18079C5.15278 6.08562 5.10874 5.99641 5.04872 5.91826C4.98869 5.84012 4.91386 5.77456 4.82849 5.72534L3.52918 4.97534C3.35688 4.87601 3.1522 4.84916 2.96011 4.9007C2.76803 4.95224 2.60427 5.07795 2.50485 5.25019C2.40543 5.42243 2.37848 5.62711 2.42992 5.81922C2.48136 6.01133 2.60699 6.17515 2.77918 6.27466ZM4.5 9C4.5 8.80109 4.42098 8.61032 4.28033 8.46967C4.13968 8.32902 3.94891 8.25 3.75 8.25H2.25C2.05109 8.25 1.86032 8.32902 1.71967 8.46967C1.57902 8.61032 1.5 8.80109 1.5 9C1.5 9.19891 1.57902 9.38968 1.71967 9.53033C1.86032 9.67098 2.05109 9.75 2.25 9.75H3.75C3.94891 9.75 4.13968 9.67098 4.28033 9.53033C4.42098 9.38968 4.5 9.19891 4.5 9ZM12.8969 6.75C12.9964 6.92223 13.1602 7.04791 13.3523 7.09941C13.5445 7.15091 13.7492 7.12402 13.9215 7.02466L15.2208 6.27466C15.3062 6.22544 15.381 6.15988 15.441 6.08174C15.5011 6.00359 15.5451 5.91438 15.5706 5.81921C15.5962 5.72403 15.6027 5.62476 15.5899 5.52706C15.577 5.42936 15.5451 5.33515 15.4958 5.24981C15.4466 5.16447 15.381 5.08967 15.3028 5.02968C15.2246 4.9697 15.1354 4.9257 15.0402 4.90022C14.945 4.87473 14.8457 4.86824 14.748 4.88113C14.6503 4.89402 14.5561 4.92604 14.4708 4.97534L13.1715 5.72534C12.9993 5.82488 12.8736 5.98871 12.8221 6.18083C12.7706 6.37296 12.7975 6.57767 12.8969 6.75ZM11.25 5.10315C11.4223 5.20252 11.627 5.22941 11.8192 5.17791C12.0113 5.12641 12.1751 5.00073 12.2747 4.8285L13.0247 3.52919C13.074 3.44387 13.106 3.34967 13.1189 3.25198C13.1318 3.15429 13.1253 3.05501 13.0998 2.95983C13.0743 2.86464 13.0303 2.77541 12.9703 2.69723C12.9103 2.61905 12.8355 2.55346 12.7502 2.5042C12.6648 2.45493 12.5706 2.42297 12.4729 2.41013C12.3752 2.39729 12.276 2.40382 12.1808 2.42936C12.0856 2.4549 11.9964 2.49894 11.9183 2.55896C11.8401 2.61898 11.7746 2.69382 11.7253 2.77919L10.9753 4.0785C10.876 4.25083 10.8491 4.45554 10.9006 4.64766C10.9521 4.83979 11.0778 5.00361 11.25 5.10315ZM15.2208 11.7253L13.9215 10.9753C13.8362 10.926 13.742 10.894 13.6443 10.8811C13.5466 10.8682 13.4473 10.8747 13.3521 10.9002C13.257 10.9257 13.1677 10.9697 13.0896 11.0297C13.0114 11.0897 12.9458 11.1645 12.8965 11.2498C12.8473 11.3352 12.8153 11.4294 12.8025 11.5271C12.7896 11.6248 12.7961 11.724 12.8217 11.8192C12.8472 11.9144 12.8913 12.0036 12.9513 12.0817C13.0113 12.1599 13.0861 12.2254 13.1715 12.2747L14.4708 13.0247C14.6431 13.124 14.8478 13.1508 15.0399 13.0993C15.232 13.0478 15.3957 12.9221 15.4951 12.7498C15.5946 12.5776 15.6215 12.3729 15.5701 12.1808C15.5186 11.9887 15.393 11.8249 15.2208 11.7253ZM12.2747 13.1715C12.2254 13.0861 12.1599 13.0113 12.0817 12.9513C12.0036 12.8913 11.9144 12.8472 11.8192 12.8217C11.724 12.7961 11.6248 12.7896 11.5271 12.8024C11.4294 12.8153 11.3352 12.8472 11.2498 12.8965C11.1645 12.9458 11.0897 13.0114 11.0297 13.0895C10.9697 13.1677 10.9257 13.257 10.9002 13.3521C10.8747 13.4473 10.8682 13.5466 10.8811 13.6443C10.894 13.742 10.926 13.8362 10.9753 13.9215L11.7253 15.2208C11.7746 15.3062 11.8401 15.381 11.9183 15.441C11.9964 15.5011 12.0856 15.5451 12.1808 15.5706C12.276 15.5962 12.3752 15.6027 12.4729 15.5899C12.5706 15.577 12.6648 15.5451 12.7502 15.4958C12.8355 15.4465 12.9103 15.3809 12.9703 15.3028C13.0303 15.2246 13.0743 15.1354 13.0998 15.0402C13.1253 14.945 13.1318 14.8457 13.1189 14.748C13.106 14.6503 13.074 14.5561 13.0247 14.4708L12.2747 13.1715ZM15.75 8.25H14.25C14.0511 8.25 13.8603 8.32902 13.7197 8.46967C13.579 8.61032 13.5 8.80109 13.5 9C13.5 9.19891 13.579 9.38968 13.7197 9.53033C13.8603 9.67098 14.0511 9.75 14.25 9.75H15.75C15.9489 9.75 16.1397 9.67098 16.2803 9.53033C16.421 9.38968 16.5 9.19891 16.5 9C16.5 8.80109 16.421 8.61032 16.2803 8.46967C16.1397 8.32902 15.9489 8.25 15.75 8.25ZM9 13.5C8.80109 13.5 8.61032 13.579 8.46967 13.7197C8.32902 13.8603 8.25 14.0511 8.25 14.25V15.75C8.25 15.9489 8.32902 16.1397 8.46967 16.2803C8.61032 16.421 8.80109 16.5 9 16.5C9.19891 16.5 9.38968 16.421 9.53033 16.2803C9.67098 16.1397 9.75 15.9489 9.75 15.75V14.25C9.75 14.0511 9.67098 13.8603 9.53033 13.7197C9.38968 13.579 9.19891 13.5 9 13.5ZM6.75 12.8969C6.6647 12.8475 6.57052 12.8155 6.47284 12.8027C6.37516 12.7898 6.2759 12.7963 6.18074 12.8218C6.08557 12.8473 5.99637 12.8913 5.91823 12.9513C5.84009 13.0113 5.77454 13.0861 5.72534 13.1715L4.97534 14.4708C4.87601 14.6431 4.84916 14.8478 4.9007 15.0399C4.95224 15.232 5.07795 15.3957 5.25019 15.4951C5.42243 15.5946 5.62711 15.6215 5.81922 15.5701C6.01133 15.5186 6.17515 15.393 6.27466 15.2208L7.02466 13.9215C7.124 13.7492 7.15087 13.5445 7.09937 13.3523C7.04787 13.1602 6.92221 12.9964 6.75 12.8969ZM9 1.5C8.80109 1.5 8.61032 1.57902 8.46967 1.71967C8.32902 1.86032 8.25 2.05109 8.25 2.25V3.75C8.25 3.94891 8.32902 4.13968 8.46967 4.28033C8.61032 4.42098 8.80109 4.5 9 4.5C9.19891 4.5 9.38968 4.42098 9.53033 4.28033C9.67098 4.13968 9.75 3.94891 9.75 3.75V2.25C9.75 2.05109 9.67098 1.86032 9.53033 1.71967C9.38968 1.57902 9.19891 1.5 9 1.5Z" fill="black"/>
</svg>
