<svg width="18" height="18" viewBox="0 0 18 18" fill="none" xmlns="http://www.w3.org/2000/svg">
<path fill-rule="evenodd" clip-rule="evenodd" d="M10.7318 8.35783C10.7322 8.46662 10.7112 8.57445 10.6697 8.67501C10.6283 8.77557 10.5674 8.86698 10.4905 8.94388C10.4134 9.02083 10.3221 9.08177 10.2216 9.1232C10.1209 9.1646 10.0122 9.18572 9.90348 9.18525C9.79473 9.18572 9.68696 9.1646 9.58632 9.1232C9.48574 9.08176 9.39434 9.0208 9.31743 8.94388C9.24049 8.86695 9.17952 8.77551 9.13816 8.67501C9.09671 8.57441 9.07559 8.46643 9.07606 8.35768L9.07797 7.67467L9.07801 7.66697L9.07792 7.66394C9.03096 6.11137 7.52784 4.96653 5.92758 4.96653C4.17116 4.96653 2.74729 6.39039 2.74729 8.14682C2.74729 9.87179 4.12059 11.276 5.83356 11.3258L5.8554 11.3257L6.01793 11.3258C6.05911 11.3258 6.0982 11.3255 6.13298 11.3253L6.13413 11.3253C6.17196 11.3251 6.20465 11.3248 6.22932 11.325C6.26422 11.3253 6.29944 11.3252 6.33321 11.3251L6.38168 11.325L9.38061 11.3289L9.43982 11.3287C9.48261 11.3286 9.53662 11.3283 9.6179 11.3286L9.77356 11.3289L14.0951 11.3325L12.8852 10.1226C12.7307 9.96806 12.6438 9.75845 12.6438 9.53989C12.6438 9.32133 12.7307 9.11172 12.8852 8.95717C13.0398 8.80263 13.2494 8.71581 13.4679 8.71581C13.6865 8.71581 13.8961 8.80263 14.0506 8.95717L16.664 11.5705C16.739 11.6475 16.7986 11.7392 16.8387 11.8389C16.9219 12.0405 16.9216 12.2676 16.8383 12.4691C16.7982 12.5689 16.7385 12.6602 16.6635 12.7372L14.0506 15.35C13.8961 15.5046 13.6865 15.5914 13.4679 15.5914C13.2494 15.5914 13.0398 15.5046 12.8852 15.35C12.7307 15.1955 12.6438 14.9859 12.6438 14.7673C12.6438 14.5487 12.7307 14.3391 12.8852 14.1846L14.0951 12.9747L5.85475 12.9814C5.83785 12.9815 5.82213 12.9817 5.80694 12.982C5.77398 12.9825 5.74317 12.983 5.70836 12.9815C3.141 12.8701 1.09912 10.7426 1.09912 8.14682C1.09912 5.48013 3.2609 3.31836 5.92758 3.31836C8.46644 3.31836 10.6628 5.28795 10.7402 7.75001L10.7317 8.35601L10.7318 8.35783Z" fill="#808080"/>
</svg>
