<svg width="18" height="18" viewBox="0 0 18 18" fill="none" xmlns="http://www.w3.org/2000/svg">
<path d="M14.0333 5.40935C13.9636 5.33905 13.8806 5.28326 13.7892 5.24518C13.6979 5.2071 13.5998 5.1875 13.5008 5.1875C13.4018 5.1875 13.3038 5.2071 13.2124 5.24518C13.121 5.28326 13.038 5.33905 12.9683 5.40935L7.38082 11.0043L5.03332 8.64935C4.96093 8.57942 4.87547 8.52443 4.78183 8.48753C4.68819 8.45063 4.58819 8.43253 4.48756 8.43427C4.38692 8.43601 4.28762 8.45756 4.19531 8.49768C4.103 8.5378 4.0195 8.59571 3.94957 8.6681C3.87964 8.74049 3.82465 8.82595 3.78775 8.91959C3.75085 9.01323 3.73275 9.11322 3.73449 9.21386C3.73623 9.31449 3.75778 9.4138 3.7979 9.50611C3.83802 9.59842 3.89593 9.68192 3.96832 9.75185L6.84832 12.6318C6.91804 12.7021 7.00099 12.7579 7.09238 12.796C7.18378 12.8341 7.28181 12.8537 7.38082 12.8537C7.47983 12.8537 7.57786 12.8341 7.66925 12.796C7.76064 12.7579 7.8436 12.7021 7.91332 12.6318L14.0333 6.51185C14.1094 6.44162 14.1702 6.35638 14.2118 6.2615C14.2533 6.16663 14.2748 6.06418 14.2748 5.9606C14.2748 5.85702 14.2533 5.75457 14.2118 5.65969C14.1702 5.56482 14.1094 5.47958 14.0333 5.40935Z" fill="#808080"/>
</svg>
