<svg width="18" height="18" viewBox="0 0 18 18" fill="none" xmlns="http://www.w3.org/2000/svg">
<path d="M16.5 7.25249C16.4526 7.1153 16.3665 6.99481 16.252 6.90561C16.1375 6.81642 15.9996 6.76236 15.855 6.74999L11.5875 6.12749L9.67498 2.24999C9.61357 2.12318 9.51768 2.01624 9.3983 1.94142C9.27892 1.86659 9.14088 1.8269 8.99998 1.8269C8.85909 1.8269 8.72105 1.86659 8.60167 1.94142C8.48229 2.01624 8.3864 2.12318 8.32498 2.24999L6.41248 6.11999L2.14498 6.74999C2.00617 6.76972 1.87568 6.82796 1.7683 6.91811C1.66092 7.00825 1.58095 7.12669 1.53748 7.25999C1.49769 7.39024 1.49412 7.52887 1.52715 7.66101C1.56019 7.79314 1.62858 7.91378 1.72498 8.00999L4.82248 11.01L4.07248 15.27C4.04571 15.4106 4.05973 15.5559 4.11289 15.6888C4.16605 15.8217 4.25612 15.9366 4.37248 16.02C4.4859 16.1011 4.61966 16.1489 4.75877 16.1582C4.89787 16.1675 5.03681 16.1378 5.15998 16.0725L8.99998 14.07L12.825 16.08C12.9302 16.1394 13.0491 16.1704 13.17 16.17C13.3289 16.1706 13.4838 16.1207 13.6125 16.0275C13.7288 15.9441 13.8189 15.8292 13.8721 15.6963C13.9252 15.5634 13.9393 15.4181 13.9125 15.2775L13.1625 11.0175L16.26 8.01749C16.3683 7.92575 16.4483 7.80516 16.4908 7.66975C16.5333 7.53433 16.5365 7.38964 16.5 7.25249ZM11.8875 10.2525C11.7995 10.3376 11.7337 10.4429 11.6958 10.5592C11.6579 10.6756 11.649 10.7994 11.67 10.92L12.21 14.0625L9.38998 12.5625C9.28147 12.5047 9.16042 12.4745 9.03748 12.4745C8.91455 12.4745 8.7935 12.5047 8.68498 12.5625L5.86498 14.0625L6.40498 10.92C6.42594 10.7994 6.41707 10.6756 6.37916 10.5592C6.34125 10.4429 6.27544 10.3376 6.18748 10.2525L3.93748 8.00249L7.09498 7.54499C7.21648 7.52809 7.33198 7.48164 7.43136 7.40973C7.53073 7.33781 7.61095 7.24261 7.66498 7.13249L8.99998 4.27499L10.41 7.13999C10.464 7.25011 10.5442 7.34531 10.6436 7.41723C10.743 7.48914 10.8585 7.53559 10.98 7.55249L14.1375 8.00999L11.8875 10.2525Z" fill="black"/>
</svg>
