<svg width="18" height="18" viewBox="0 0 18 18" fill="none" xmlns="http://www.w3.org/2000/svg">
<path fill-rule="evenodd" clip-rule="evenodd" d="M11.9221 5.22565C12.0135 5.26373 12.0964 5.31952 12.1661 5.38982C12.2423 5.46005 12.303 5.54529 12.3446 5.64016C12.3861 5.73504 12.4076 5.83749 12.4076 5.94107C12.4076 6.04464 12.3861 6.1471 12.3446 6.24197C12.303 6.33685 12.2423 6.42209 12.1661 6.49232L6.04613 12.6123C5.97641 12.6826 5.89346 12.7384 5.80206 12.7765C5.71067 12.8146 5.61264 12.8342 5.51363 12.8342C5.41462 12.8342 5.31659 12.8146 5.2252 12.7765C5.1338 12.7384 5.05085 12.6826 4.98113 12.6123L2.10113 9.73232C2.02874 9.66239 1.97083 9.57889 1.93071 9.48658C1.89059 9.39427 1.86904 9.29496 1.8673 9.19433C1.86556 9.09369 1.88366 8.9937 1.92056 8.90006C1.95746 8.80641 2.01245 8.72096 2.08238 8.64857C2.15231 8.57618 2.23581 8.51827 2.32812 8.47815C2.42043 8.43803 2.51974 8.41648 2.62037 8.41474C2.72101 8.413 2.821 8.4311 2.91464 8.468C3.00828 8.5049 3.09374 8.55989 3.16613 8.62982L5.51363 10.9848L11.1011 5.38982C11.1709 5.31952 11.2538 5.26373 11.3452 5.22565C11.4366 5.18757 11.5346 5.16797 11.6336 5.16797C11.7326 5.16797 11.8307 5.18757 11.9221 5.22565ZM15.8923 5.38982C15.8226 5.31952 15.7396 5.26373 15.6482 5.22565C15.5568 5.18757 15.4588 5.16797 15.3598 5.16797C15.2608 5.16797 15.1628 5.18757 15.0714 5.22565C14.98 5.26373 14.897 5.31952 14.8273 5.38982L9.23979 10.9848L8.15979 12.0648L8.70729 12.6123C8.77701 12.6826 8.85996 12.7384 8.95136 12.7765C9.04275 12.8146 9.14078 12.8342 9.23979 12.8342C9.3388 12.8342 9.43683 12.8146 9.52822 12.7765C9.61962 12.7384 9.70257 12.6826 9.77229 12.6123L15.8923 6.49232C15.9684 6.42209 16.0292 6.33685 16.0707 6.24197C16.1123 6.1471 16.1337 6.04464 16.1337 5.94107C16.1337 5.83749 16.1123 5.73504 16.0707 5.64016C16.0292 5.54529 15.9684 5.46005 15.8923 5.38982Z" fill="#808080"/>
</svg>
