<svg width="18" height="18" viewBox="0 0 18 18" fill="none" xmlns="http://www.w3.org/2000/svg">
<path d="M16.4991 7.25273C16.4518 7.11555 16.3656 6.99505 16.2511 6.90586C16.1366 6.81666 15.9987 6.7626 15.8541 6.75023L11.5866 6.12773L9.67413 2.25023C9.61271 2.12343 9.51683 2.01649 9.39745 1.94166C9.27807 1.86683 9.14002 1.82715 8.99913 1.82715C8.85824 1.82715 8.72019 1.86683 8.60081 1.94166C8.48143 2.01649 8.38554 2.12343 8.32413 2.25023L6.41163 6.12023L2.14413 6.75023C2.00532 6.76996 1.87482 6.8282 1.76744 6.91835C1.66006 7.0085 1.5801 7.12694 1.53663 7.26023C1.49684 7.39049 1.49327 7.52912 1.5263 7.66125C1.55933 7.79338 1.62772 7.91402 1.72413 8.01023L4.82163 11.0102L4.07163 15.2702C4.04485 15.4108 4.05887 15.5562 4.11203 15.6891C4.16519 15.822 4.25527 15.9369 4.37163 16.0202C4.48504 16.1013 4.61881 16.1492 4.75791 16.1584C4.89702 16.1677 5.03596 16.138 5.15913 16.0727L8.99913 14.0702L12.8241 16.0802C12.9294 16.1396 13.0483 16.1706 13.1691 16.1702C13.328 16.1708 13.4829 16.1209 13.6116 16.0277C13.728 15.9444 13.8181 15.8295 13.8712 15.6966C13.9244 15.5637 13.9384 15.4183 13.9116 15.2777L13.1616 11.0177L16.2591 8.01773C16.3674 7.92599 16.4474 7.80541 16.4899 7.66999C16.5324 7.53458 16.5356 7.38989 16.4991 7.25273ZM11.8866 10.2527C11.7987 10.3378 11.7329 10.4431 11.695 10.5595C11.657 10.6758 11.6482 10.7997 11.6691 10.9202L12.2091 14.0627L9.38913 12.5627C9.28062 12.5049 9.15957 12.4747 9.03663 12.4747C8.91369 12.4747 8.79264 12.5049 8.68413 12.5627L5.86413 14.0627L6.40413 10.9202C6.42508 10.7997 6.41621 10.6758 6.3783 10.5595C6.34039 10.4431 6.27459 10.3378 6.18663 10.2527L3.93663 8.00273L7.09413 7.54523C7.21563 7.52833 7.33113 7.48189 7.4305 7.40997C7.52988 7.33805 7.6101 7.24286 7.66413 7.13273L8.99913 4.27523L10.4091 7.14023C10.4632 7.25036 10.5434 7.34555 10.6428 7.41747C10.7421 7.48939 10.8576 7.53583 10.9791 7.55273L14.1366 8.01023L11.8866 10.2527Z" fill="#808080"/>
</svg>
