<svg width="18" height="18" viewBox="0 0 18 18" fill="none" xmlns="http://www.w3.org/2000/svg">
<path fill-rule="evenodd" clip-rule="evenodd" d="M16.252 6.90563C16.3665 6.99482 16.4526 7.11532 16.5 7.2525C16.5365 7.38966 16.5333 7.53435 16.4908 7.66976C16.4483 7.80518 16.3683 7.92576 16.26 8.0175L13.1625 11.0175L13.9125 15.2775C13.9393 15.4181 13.9252 15.5634 13.8721 15.6963C13.8189 15.8292 13.7288 15.9441 13.6125 16.0275C13.4838 16.1207 13.3289 16.1706 13.17 16.17C13.0491 16.1704 12.9302 16.1394 12.825 16.08L8.99998 14.07L5.15998 16.0725C5.03681 16.1378 4.89787 16.1675 4.75877 16.1582C4.61966 16.1489 4.4859 16.1011 4.37248 16.02C4.25612 15.9366 4.16605 15.8217 4.11289 15.6888C4.05973 15.5559 4.04571 15.4106 4.07248 15.27L4.82248 11.01L1.72498 8.01C1.62858 7.9138 1.56019 7.79315 1.52715 7.66102C1.49412 7.52889 1.49769 7.39026 1.53748 7.26C1.58095 7.12671 1.66092 7.00827 1.7683 6.91812C1.87568 6.82797 2.00617 6.76973 2.14498 6.75L6.41248 6.12L8.32498 2.25C8.3864 2.1232 8.48229 2.01626 8.60167 1.94143C8.72105 1.86661 8.85909 1.82692 8.99998 1.82692C9.14088 1.82692 9.27892 1.86661 9.3983 1.94143C9.51768 2.01626 9.61357 2.1232 9.67498 2.25L11.5875 6.1275L15.855 6.75C15.9996 6.76237 16.1375 6.81643 16.252 6.90563Z" fill="#FFD453"/>
</svg>
