<svg width="16" height="13" viewBox="0 0 16 13" fill="none" xmlns="http://www.w3.org/2000/svg">
<path fill-rule="evenodd" clip-rule="evenodd" d="M9.73127 5.35832C9.73174 5.46711 9.71067 5.57494 9.66924 5.6755C9.62778 5.77606 9.56688 5.86747 9.48998 5.94437C9.41296 6.02132 9.32163 6.08226 9.22109 6.12369C9.12045 6.16508 9.01174 6.18621 8.90299 6.18574C8.79425 6.1862 8.68647 6.16509 8.58583 6.12369C8.48525 6.08224 8.39385 6.02129 8.31694 5.94437C8.24001 5.86744 8.17904 5.776 8.13767 5.6755C8.09623 5.5749 8.07511 5.46692 8.07557 5.35817L8.07748 4.67515L8.07753 4.66745L8.07743 4.66443C8.03048 3.11185 6.52736 1.96702 4.92709 1.96702C3.17067 1.96702 1.7468 3.39088 1.7468 5.14731C1.7468 6.87228 3.1201 8.27653 4.83307 8.32629L4.85491 8.32616L5.01745 8.32629C5.05862 8.32629 5.09771 8.32603 5.13249 8.3258L5.13364 8.32579C5.17147 8.32554 5.20416 8.32532 5.22883 8.32551C5.26373 8.32577 5.29895 8.32568 5.33272 8.32559L5.3812 8.32551L8.38012 8.32939L8.43933 8.32922C8.48212 8.32904 8.53613 8.32882 8.61741 8.32904L8.77307 8.32939L13.0946 8.33296L11.8847 7.1231C11.7302 6.96855 11.6434 6.75894 11.6434 6.54038C11.6434 6.32182 11.7302 6.11221 11.8847 5.95766C12.0393 5.80312 12.2489 5.71629 12.4674 5.71629C12.686 5.71629 12.8956 5.80312 13.0502 5.95766L15.6635 8.57098C15.7385 8.64795 15.7981 8.73971 15.8382 8.83942C15.9214 9.04094 15.9211 9.2681 15.8378 9.46962C15.7977 9.56935 15.738 9.66069 15.663 9.73767L13.0502 12.3505C12.8956 12.5051 12.686 12.5919 12.4674 12.5919C12.2489 12.5919 12.0393 12.5051 11.8847 12.3505C11.7302 12.196 11.6434 11.9864 11.6434 11.7678C11.6434 11.5492 11.7302 11.3396 11.8847 11.1851L13.0946 9.97523L4.85426 9.98189C4.83736 9.98196 4.82164 9.98221 4.80645 9.98246C4.77349 9.983 4.74269 9.98349 4.70787 9.98198C2.14052 9.87057 0.0986328 7.74306 0.0986328 5.14731C0.0986328 2.48062 2.26041 0.318848 4.92709 0.318848C7.46596 0.318848 9.66226 2.28844 9.73971 4.7505L9.73126 5.3565L9.73127 5.35832Z" fill="#808080"/>
</svg>
