<svg width="18" height="18" viewBox="0 0 18 18" fill="none" xmlns="http://www.w3.org/2000/svg">
<path d="M16.6985 1.8208C16.4849 1.64315 16.2272 1.52673 15.9528 1.48391C15.6783 1.44109 15.3974 1.47349 15.1399 1.57765L1.69921 7.00416C1.41178 7.12242 1.1671 7.3253 0.997664 7.58587C0.828227 7.84644 0.74204 8.15238 0.750543 8.46308C0.759046 8.77378 0.861837 9.07454 1.04527 9.32546C1.22871 9.57637 1.48411 9.76557 1.77759 9.86793L4.49634 10.8135L6.01171 15.8247C6.03231 15.8917 6.06219 15.9554 6.1005 16.014C6.10631 16.023 6.11451 16.0297 6.12069 16.0384C6.16494 16.1002 6.21842 16.1548 6.27926 16.2003C6.29656 16.2135 6.31313 16.2258 6.33163 16.2375C6.40283 16.2848 6.48168 16.3193 6.56467 16.3396L6.57355 16.3404L6.57859 16.3425C6.62849 16.3527 6.67928 16.3578 6.7302 16.3579C6.7351 16.3579 6.73945 16.3556 6.7443 16.3555C6.82115 16.3541 6.89732 16.3409 6.97012 16.3162C6.98705 16.3105 7.00156 16.3008 7.018 16.2939C7.07228 16.2714 7.12371 16.2425 7.17121 16.2079C7.20926 16.1759 7.24731 16.1438 7.28538 16.1118L9.312 13.8743L12.3347 16.2158C12.6008 16.423 12.9284 16.5356 13.2656 16.5359C13.619 16.5354 13.9615 16.4135 14.2357 16.1905C14.5098 15.9676 14.699 15.6571 14.7715 15.3113L17.2185 3.29884C17.274 3.02847 17.2549 2.74812 17.1633 2.48778C17.0717 2.22743 16.911 1.99689 16.6985 1.8208ZM7.02759 11.0523C6.9236 11.1558 6.85251 11.2878 6.82324 11.4316L6.59111 12.5596L6.00307 10.6148L9.052 9.02713L7.02759 11.0523ZM13.2539 15.03L9.68188 12.2629C9.53244 12.1474 9.34497 12.0925 9.15684 12.1091C8.96871 12.1256 8.79372 12.2125 8.66674 12.3523L8.01769 13.0687L8.24707 11.9538L13.5593 6.64159C13.6861 6.51496 13.7634 6.3471 13.7771 6.16843C13.7908 5.98975 13.7401 5.81207 13.6341 5.66757C13.5281 5.52307 13.3739 5.42131 13.1993 5.38071C13.0248 5.34012 12.8415 5.36338 12.6826 5.44627L5.05865 9.41575L2.26538 8.39356L15.7493 2.99926L13.2539 15.03Z" fill="black"/>
</svg>
