<svg width="18" height="18" viewBox="0 0 18 18" fill="none" xmlns="http://www.w3.org/2000/svg">
<path d="M11.7825 6.2175C11.7128 6.1472 11.6298 6.09141 11.5384 6.05333C11.447 6.01525 11.349 5.99565 11.25 5.99565C11.151 5.99565 11.053 6.01525 10.9616 6.05333C10.8702 6.09141 10.7872 6.1472 10.7175 6.2175L9 7.9425L7.2825 6.2175C7.14127 6.07627 6.94972 5.99693 6.75 5.99693C6.55027 5.99693 6.35873 6.07627 6.2175 6.2175C6.07627 6.35873 5.99693 6.55027 5.99693 6.75C5.99693 6.94972 6.07627 7.14127 6.2175 7.2825L7.9425 9L6.2175 10.7175C6.1472 10.7872 6.09141 10.8702 6.05333 10.9616C6.01525 11.053 5.99565 11.151 5.99565 11.25C5.99565 11.349 6.01525 11.447 6.05333 11.5384C6.09141 11.6298 6.1472 11.7128 6.2175 11.7825C6.28722 11.8528 6.37017 11.9086 6.46157 11.9467C6.55296 11.9847 6.65099 12.0043 6.75 12.0043C6.84901 12.0043 6.94704 11.9847 7.03843 11.9467C7.12983 11.9086 7.21278 11.8528 7.2825 11.7825L9 10.0575L10.7175 11.7825C10.7872 11.8528 10.8702 11.9086 10.9616 11.9467C11.053 11.9847 11.151 12.0043 11.25 12.0043C11.349 12.0043 11.447 11.9847 11.5384 11.9467C11.6298 11.9086 11.7128 11.8528 11.7825 11.7825C11.8528 11.7128 11.9086 11.6298 11.9467 11.5384C11.9847 11.447 12.0043 11.349 12.0043 11.25C12.0043 11.151 11.9847 11.053 11.9467 10.9616C11.9086 10.8702 11.8528 10.7872 11.7825 10.7175L10.0575 9L11.7825 7.2825C11.8528 7.21278 11.9086 7.12983 11.9467 7.03843C11.9847 6.94704 12.0043 6.84901 12.0043 6.75C12.0043 6.65099 11.9847 6.55296 11.9467 6.46157C11.9086 6.37017 11.8528 6.28722 11.7825 6.2175ZM14.3025 3.6975C13.6106 2.98117 12.7831 2.40981 11.868 2.01674C10.953 1.62367 9.96885 1.41677 8.97301 1.40812C7.97716 1.39947 6.98957 1.58923 6.06784 1.96634C5.14612 2.34344 4.30873 2.90034 3.60454 3.60454C2.90034 4.30873 2.34344 5.14612 1.96634 6.06784C1.58923 6.98957 1.39947 7.97716 1.40812 8.97301C1.41677 9.96885 1.62367 10.953 2.01674 11.868C2.40981 12.7831 2.98117 13.6106 3.6975 14.3025C4.38935 15.0188 5.21693 15.5902 6.13196 15.9833C7.04699 16.3763 8.03114 16.5832 9.02699 16.5919C10.0228 16.6005 11.0104 16.4108 11.9322 16.0337C12.8539 15.6566 13.6913 15.0997 14.3955 14.3955C15.0997 13.6913 15.6566 12.8539 16.0337 11.9322C16.4108 11.0104 16.6005 10.0228 16.5919 9.02699C16.5832 8.03114 16.3763 7.04699 15.9833 6.13196C15.5902 5.21693 15.0188 4.38935 14.3025 3.6975ZM13.245 13.245C12.264 14.2271 10.9729 14.8386 9.59159 14.9755C8.21028 15.1123 6.82425 14.766 5.66964 13.9956C4.51503 13.2251 3.66327 12.0782 3.25948 10.7501C2.85569 9.42207 2.92485 7.9951 3.45518 6.71234C3.98552 5.42957 4.9442 4.37036 6.16792 3.71517C7.39163 3.05998 8.80466 2.84935 10.1663 3.11915C11.5279 3.38896 12.7538 4.12252 13.6352 5.19484C14.5166 6.26717 14.9989 7.61193 15 9C15.0027 9.78846 14.8489 10.5696 14.5477 11.2983C14.2464 12.0269 13.8037 12.6886 13.245 13.245Z" fill="black"/>
</svg>
