<svg width="18" height="18" viewBox="0 0 18 18" fill="none" xmlns="http://www.w3.org/2000/svg">
<path d="M3.34313 6.17155C2.9526 5.78103 2.9526 5.14786 3.34313 4.75734L4.75734 3.34313C5.14786 2.9526 5.78103 2.9526 6.17155 3.34313L14.6568 11.8284C15.0474 12.2189 15.0474 12.8521 14.6568 13.2426L13.2426 14.6568C12.8521 15.0474 12.2189 15.0474 11.8284 14.6568L3.34313 6.17155Z" fill="black"/>
<path d="M6.17155 14.6568C5.78103 15.0474 5.14786 15.0474 4.75734 14.6568L3.34313 13.2426C2.9526 12.8521 2.9526 12.2189 3.34313 11.8284L11.8284 3.34313C12.2189 2.9526 12.8521 2.9526 13.2426 3.34313L14.6568 4.75734C15.0474 5.14786 15.0474 5.78103 14.6568 6.17155L6.17155 14.6568Z" fill="black"/>
</svg>
