<svg width="18" height="18" viewBox="0 0 18 18" fill="none" xmlns="http://www.w3.org/2000/svg">
<path d="M12 4.5C12 4.30109 11.921 4.11032 11.7803 3.96967C11.6397 3.82902 11.4489 3.75 11.25 3.75H2.25C2.05109 3.75 1.86032 3.82902 1.71967 3.96967C1.57902 4.11032 1.5 4.30109 1.5 4.5C1.5 4.69891 1.57902 4.88968 1.71967 5.03033C1.86032 5.17098 2.05109 5.25 2.25 5.25H6V13.5C6 13.6989 6.07902 13.8897 6.21967 14.0303C6.36032 14.171 6.55109 14.25 6.75 14.25C6.94891 14.25 7.13968 14.171 7.28033 14.0303C7.42098 13.8897 7.5 13.6989 7.5 13.5V5.25H11.25C11.4489 5.25 11.6397 5.17098 11.7803 5.03033C11.921 4.88968 12 4.69891 12 4.5ZM15.75 8.25H11.25C11.0511 8.25 10.8603 8.32902 10.7197 8.46967C10.579 8.61032 10.5 8.80109 10.5 9C10.5 9.19891 10.579 9.38968 10.7197 9.53033C10.8603 9.67098 11.0511 9.75 11.25 9.75H12.75V13.5C12.75 13.6989 12.829 13.8897 12.9697 14.0303C13.1103 14.171 13.3011 14.25 13.5 14.25C13.6989 14.25 13.8897 14.171 14.0303 14.0303C14.171 13.8897 14.25 13.6989 14.25 13.5V9.75H15.75C15.9489 9.75 16.1397 9.67098 16.2803 9.53033C16.421 9.38968 16.5 9.19891 16.5 9C16.5 8.80109 16.421 8.61032 16.2803 8.46967C16.1397 8.32902 15.9489 8.25 15.75 8.25Z" fill="#808080"/>
</svg>
