<svg width="18" height="18" viewBox="0 0 18 18" fill="none" xmlns="http://www.w3.org/2000/svg">
<path d="M9 11.625C9.99456 11.625 10.9484 11.2299 11.6517 10.5267C12.3549 9.82339 12.75 8.86956 12.75 7.875V4.125C12.75 3.92609 12.671 3.73532 12.5303 3.59467C12.3897 3.45402 12.1989 3.375 12 3.375C11.8011 3.375 11.6103 3.45402 11.4697 3.59467C11.329 3.73532 11.25 3.92609 11.25 4.125V7.875C11.25 8.47174 11.0129 9.04403 10.591 9.46599C10.169 9.88795 9.59674 10.125 9 10.125C8.40326 10.125 7.83097 9.88795 7.40901 9.46599C6.98705 9.04403 6.75 8.47174 6.75 7.875V4.125C6.75 3.92609 6.67098 3.73532 6.53033 3.59467C6.38968 3.45402 6.19891 3.375 6 3.375C5.80109 3.375 5.61032 3.45402 5.46967 3.59467C5.32902 3.73532 5.25 3.92609 5.25 4.125V7.875C5.25 8.86956 5.64509 9.82339 6.34835 10.5267C7.05161 11.2299 8.00544 11.625 9 11.625ZM12.75 13.125H5.25C5.05109 13.125 4.86032 13.204 4.71967 13.3447C4.57902 13.4853 4.5 13.6761 4.5 13.875C4.5 14.0739 4.57902 14.2647 4.71967 14.4053C4.86032 14.546 5.05109 14.625 5.25 14.625H12.75C12.9489 14.625 13.1397 14.546 13.2803 14.4053C13.421 14.2647 13.5 14.0739 13.5 13.875C13.5 13.6761 13.421 13.4853 13.2803 13.3447C13.1397 13.204 12.9489 13.125 12.75 13.125Z" fill="#808080"/>
</svg>
