<svg width="18" height="18" viewBox="0 0 18 18" fill="none" xmlns="http://www.w3.org/2000/svg">
<g clip-path="url(#clip0_3807_32361)">
<path fill-rule="evenodd" clip-rule="evenodd" d="M10.5646 5.55495C10.5646 7.74994 8.78525 9.52934 6.59026 9.52934C4.39527 9.52934 2.61588 7.74994 2.61588 5.55495C2.61588 3.35996 4.39527 1.58057 6.59026 1.58057C8.78525 1.58057 10.5646 3.35996 10.5646 5.55495ZM0 18.0002C0 13.9763 2.95056 10.7142 6.59026 10.7142C10.23 10.7142 13.1805 13.9763 13.1805 18.0002H0ZM18 18.0002H14.1805C14.1805 14.9712 12.6688 12.25 10.3653 10.8052C10.7055 10.7453 11.0543 10.7142 11.4097 10.7142C15.0494 10.7142 18 13.9763 18 18.0002ZM11.4097 9.52934C10.8858 9.52934 10.3856 9.42796 9.92757 9.24376C10.933 8.33355 11.5646 7.01801 11.5646 5.55495C11.5646 4.09189 10.933 2.77635 9.92757 1.86615C10.3856 1.68194 10.8858 1.58057 11.4097 1.58057C13.6047 1.58057 15.3841 3.35996 15.3841 5.55495C15.3841 7.74994 13.6047 9.52934 11.4097 9.52934Z" fill="black"/>
</g>
<defs>
<clipPath id="clip0_3807_32361">
<rect width="18" height="18" fill="white"/>
</clipPath>
</defs>
</svg>
