<svg width="18" height="18" viewBox="0 0 18 18" fill="none" xmlns="http://www.w3.org/2000/svg">
<g clip-path="url(#clip0_3807_32346)">
<mask id="path-1-outside-1_3807_32346" maskUnits="userSpaceOnUse" x="1.40973" y="0.580566" width="16" height="19" fill="black">
<rect fill="white" x="1.40973" y="0.580566" width="16" height="19"/>
<path fill-rule="evenodd" clip-rule="evenodd" d="M8.99999 9.52934C11.195 9.52934 12.9744 7.74994 12.9744 5.55495C12.9744 3.35996 11.195 1.58057 8.99999 1.58057C6.805 1.58057 5.02561 3.35996 5.02561 5.55495C5.02561 7.74994 6.805 9.52934 8.99999 9.52934ZM8.99999 10.7142C5.36029 10.7142 2.40973 13.9763 2.40973 18.0002H15.5903C15.5903 13.9763 12.6397 10.7142 8.99999 10.7142Z"/>
</mask>
<path fill-rule="evenodd" clip-rule="evenodd" d="M8.99999 9.52934C11.195 9.52934 12.9744 7.74994 12.9744 5.55495C12.9744 3.35996 11.195 1.58057 8.99999 1.58057C6.805 1.58057 5.02561 3.35996 5.02561 5.55495C5.02561 7.74994 6.805 9.52934 8.99999 9.52934ZM8.99999 10.7142C5.36029 10.7142 2.40973 13.9763 2.40973 18.0002H15.5903C15.5903 13.9763 12.6397 10.7142 8.99999 10.7142Z" fill="black"/>
<path d="M2.40973 18.0002H1.40973V19.0002H2.40973V18.0002ZM15.5903 18.0002V19.0002H16.5903V18.0002H15.5903ZM11.9744 5.55495C11.9744 7.19766 10.6427 8.52934 8.99999 8.52934V10.5293C11.7473 10.5293 13.9744 8.30223 13.9744 5.55495H11.9744ZM8.99999 2.58057C10.6427 2.58057 11.9744 3.91224 11.9744 5.55495H13.9744C13.9744 2.80767 11.7473 0.580566 8.99999 0.580566V2.58057ZM6.02561 5.55495C6.02561 3.91224 7.35728 2.58057 8.99999 2.58057V0.580566C6.25271 0.580566 4.02561 2.80767 4.02561 5.55495H6.02561ZM8.99999 8.52934C7.35728 8.52934 6.02561 7.19766 6.02561 5.55495H4.02561C4.02561 8.30223 6.25271 10.5293 8.99999 10.5293V8.52934ZM3.40973 18.0002C3.40973 14.4318 6.00462 11.7142 8.99999 11.7142V9.71423C4.71595 9.71423 1.40973 13.5208 1.40973 18.0002H3.40973ZM15.5903 17.0002H2.40973V19.0002H15.5903V17.0002ZM8.99999 11.7142C11.9954 11.7142 14.5903 14.4318 14.5903 18.0002H16.5903C16.5903 13.5208 13.284 9.71423 8.99999 9.71423V11.7142Z" fill="white" mask="url(#path-1-outside-1_3807_32346)"/>
</g>
<defs>
<clipPath id="clip0_3807_32346">
<rect width="18" height="18" fill="white"/>
</clipPath>
</defs>
</svg>
