<svg width="18" height="18" viewBox="0 0 18 18" fill="none" xmlns="http://www.w3.org/2000/svg">
<path d="M12.2176 10.7175L9.00014 13.9425L5.78264 10.7175C5.64141 10.5762 5.44987 10.4969 5.25014 10.4969C5.05041 10.4969 4.85887 10.5762 4.71764 10.7175C4.57641 10.8587 4.49707 11.0502 4.49707 11.25C4.49707 11.4497 4.57641 11.6412 4.71764 11.7825L8.46764 15.5325C8.53736 15.6027 8.62031 15.6585 8.71171 15.6966C8.8031 15.7347 8.90113 15.7543 9.00014 15.7543C9.09915 15.7543 9.19718 15.7347 9.28857 15.6966C9.37997 15.6585 9.46292 15.6027 9.53264 15.5325L13.2826 11.7825C13.3526 11.7125 13.408 11.6295 13.4459 11.5381C13.4837 11.4468 13.5032 11.3488 13.5032 11.25C13.5032 11.1511 13.4837 11.0531 13.4459 10.9618C13.408 10.8704 13.3526 10.7874 13.2826 10.7175C13.2127 10.6475 13.1297 10.5921 13.0383 10.5542C12.947 10.5164 12.849 10.4969 12.7501 10.4969C12.6512 10.4969 12.5533 10.5164 12.462 10.5542C12.3706 10.5921 12.2876 10.6475 12.2176 10.7175ZM5.78264 7.28245L9.00014 4.05745L12.2176 7.28245C12.2874 7.35275 12.3703 7.40855 12.4617 7.44662C12.5531 7.4847 12.6511 7.5043 12.7501 7.5043C12.8491 7.5043 12.9472 7.4847 13.0386 7.44662C13.13 7.40855 13.2129 7.35275 13.2826 7.28245C13.3529 7.21273 13.4087 7.12978 13.4468 7.03839C13.4849 6.94699 13.5045 6.84896 13.5045 6.74995C13.5045 6.65095 13.4849 6.55292 13.4468 6.46152C13.4087 6.37013 13.3529 6.28718 13.2826 6.21745L9.53264 2.46745C9.46292 2.39716 9.37997 2.34136 9.28857 2.30329C9.19718 2.26521 9.09915 2.24561 9.00014 2.24561C8.90113 2.24561 8.8031 2.26521 8.71171 2.30329C8.62031 2.34136 8.53736 2.39716 8.46764 2.46745L4.71764 6.21745C4.57641 6.35868 4.49707 6.55023 4.49707 6.74995C4.49707 6.94968 4.57641 7.14123 4.71764 7.28245C4.85887 7.42368 5.05041 7.50302 5.25014 7.50302C5.44987 7.50302 5.64141 7.42368 5.78264 7.28245Z" fill="#B3B3B3"/>
</svg>
