<svg width="18" height="18" viewBox="0 0 18 18" fill="none" xmlns="http://www.w3.org/2000/svg">
<path d="M16.1475 5.3625C16.0335 5.29667 15.9042 5.26202 15.7725 5.26202C15.6408 5.26202 15.5115 5.29667 15.3975 5.3625L12.75 6.6675C12.7286 6.08518 12.4822 5.53386 12.0625 5.12958C11.6429 4.7253 11.0827 4.49961 10.5 4.5H3.75C3.15326 4.5 2.58097 4.73705 2.15901 5.15901C1.73705 5.58097 1.5 6.15326 1.5 6.75V11.25C1.5 11.8467 1.73705 12.419 2.15901 12.841C2.58097 13.2629 3.15326 13.5 3.75 13.5H10.5C11.0827 13.5004 11.6429 13.2747 12.0625 12.8704C12.4822 12.4661 12.7286 11.9148 12.75 11.3325L15.42 12.6675C15.5222 12.7199 15.6351 12.7481 15.75 12.75C15.8904 12.7505 16.0281 12.7115 16.1475 12.6375C16.2556 12.5699 16.3447 12.476 16.4063 12.3644C16.468 12.2529 16.5003 12.1275 16.5 12V6C16.5003 5.87254 16.468 5.74712 16.4063 5.63558C16.3447 5.52404 16.2556 5.43005 16.1475 5.3625ZM11.25 11.25C11.25 11.4489 11.171 11.6397 11.0303 11.7803C10.8897 11.921 10.6989 12 10.5 12H3.75C3.55109 12 3.36032 11.921 3.21967 11.7803C3.07902 11.6397 3 11.4489 3 11.25V6.75C3 6.55109 3.07902 6.36032 3.21967 6.21967C3.36032 6.07902 3.55109 6 3.75 6H10.5C10.6989 6 10.8897 6.07902 11.0303 6.21967C11.171 6.36032 11.25 6.55109 11.25 6.75V11.25ZM15 10.785L12.75 9.66V8.34L15 7.215V10.785Z" fill="black"/>
</svg>
