<svg width="18" height="18" viewBox="0 0 18 18" fill="none" xmlns="http://www.w3.org/2000/svg">
<path d="M5.7825 4.71749L2.7825 1.71749C2.71257 1.64756 2.62956 1.59209 2.53819 1.55424C2.44682 1.5164 2.3489 1.49692 2.25 1.49692C2.15111 1.49692 2.05318 1.5164 1.96181 1.55424C1.87045 1.59209 1.78743 1.64756 1.7175 1.71749C1.57627 1.85871 1.49693 2.05026 1.49693 2.24999C1.49693 2.44971 1.57627 2.64126 1.7175 2.78249L3.465 4.49999C2.91892 4.5697 2.41735 4.8372 2.05523 5.25184C1.69311 5.66648 1.49557 6.1995 1.5 6.74999V11.25C1.5 11.8467 1.73705 12.419 2.15901 12.841C2.58097 13.2629 3.15326 13.5 3.75 13.5H10.5C11.0206 13.4975 11.5242 13.3146 11.925 12.9825L15.2175 16.2825C15.2872 16.3528 15.3702 16.4086 15.4616 16.4467C15.553 16.4847 15.651 16.5043 15.75 16.5043C15.849 16.5043 15.947 16.4847 16.0384 16.4467C16.1298 16.4086 16.2128 16.3528 16.2825 16.2825C16.3528 16.2128 16.4086 16.1298 16.4467 16.0384C16.4847 15.947 16.5044 15.849 16.5044 15.75C16.5044 15.651 16.4847 15.5529 16.4467 15.4616C16.4086 15.3702 16.3528 15.2872 16.2825 15.2175L5.7825 4.71749ZM10.5 12H3.75C3.55109 12 3.36032 11.921 3.21967 11.7803C3.07902 11.6397 3 11.4489 3 11.25V6.74999C3 6.55107 3.07902 6.36031 3.21967 6.21966C3.36032 6.079 3.55109 5.99999 3.75 5.99999H4.9425L10.845 11.91C10.7389 11.9673 10.6206 11.9982 10.5 12ZM16.1475 5.36249C16.0335 5.29666 15.9042 5.26201 15.7725 5.26201C15.6408 5.26201 15.5115 5.29666 15.3975 5.36249L12.75 6.66749C12.7286 6.08516 12.4822 5.53384 12.0625 5.12957C11.6429 4.72529 11.0827 4.49959 10.5 4.49999H9.495C9.29609 4.49999 9.10532 4.579 8.96467 4.71966C8.82402 4.86031 8.745 5.05107 8.745 5.24999C8.745 5.4489 8.82402 5.63966 8.96467 5.78032C9.10532 5.92097 9.29609 5.99999 9.495 5.99999H10.5C10.6989 5.99999 10.8897 6.079 11.0303 6.21966C11.171 6.36031 11.25 6.55107 11.25 6.74999V7.87499C11.2472 7.92245 11.2472 7.97003 11.25 8.01749C11.2544 8.06916 11.2671 8.1198 11.2875 8.16749C11.2875 8.16749 11.325 8.21249 11.34 8.24249C11.3705 8.29962 11.4084 8.35257 11.4525 8.39999C11.4525 8.39999 11.5275 8.44499 11.565 8.47499L11.6925 8.55749C11.7497 8.5653 11.8078 8.5653 11.865 8.55749C11.8999 8.56099 11.9351 8.56099 11.97 8.55749C12.0175 8.56027 12.065 8.56027 12.1125 8.55749C12.1642 8.55305 12.2148 8.54039 12.2625 8.51999L15 7.21499V11.505C15 11.7039 15.079 11.8947 15.2197 12.0353C15.3603 12.176 15.5511 12.255 15.75 12.255C15.9489 12.255 16.1397 12.176 16.2803 12.0353C16.421 11.8947 16.5 11.7039 16.5 11.505V5.99999C16.5003 5.87253 16.468 5.74711 16.4063 5.63557C16.3447 5.52402 16.2556 5.43004 16.1475 5.36249Z" fill="black"/>
</svg>
