<svg width="18" height="18" viewBox="0 0 18 18" fill="none" xmlns="http://www.w3.org/2000/svg">
<path d="M9.3225 3.07499C9.2007 3.0223 9.0671 3.00287 8.93534 3.01868C8.80358 3.03449 8.67837 3.08498 8.5725 3.16499L4.9875 5.99999H2.25C2.05109 5.99999 1.86032 6.07901 1.71967 6.21966C1.57902 6.36032 1.5 6.55108 1.5 6.74999V11.25C1.5 11.4489 1.57902 11.6397 1.71967 11.7803C1.86032 11.921 2.05109 12 2.25 12H4.9875L8.535 14.835C8.66695 14.9409 8.83083 14.999 9 15C9.11203 15.0018 9.22279 14.9761 9.3225 14.925C9.45013 14.8642 9.55798 14.7686 9.63362 14.6492C9.70926 14.5297 9.7496 14.3914 9.75 14.25V3.74999C9.7496 3.60863 9.70926 3.47026 9.63362 3.35083C9.55798 3.2314 9.45013 3.13578 9.3225 3.07499ZM8.25 12.69L5.715 10.665C5.58305 10.5591 5.41917 10.501 5.25 10.5H3V7.49999H5.25C5.41917 7.49901 5.58305 7.44086 5.715 7.33499L8.25 5.30999V12.69ZM14.745 4.75499C14.6038 4.61377 14.4122 4.53442 14.2125 4.53442C14.0128 4.53442 13.8212 4.61377 13.68 4.75499C13.5388 4.89622 13.4594 5.08777 13.4594 5.28749C13.4594 5.48722 13.5388 5.67877 13.68 5.81999C14.1216 6.26095 14.4667 6.78894 14.6933 7.37043C14.92 7.95192 15.0231 8.57419 14.9963 9.1977C14.9695 9.82122 14.8133 10.4323 14.5377 10.9922C14.262 11.5521 13.8729 12.0486 13.395 12.45C13.2789 12.5492 13.1959 12.6815 13.1571 12.8292C13.1182 12.9768 13.1254 13.1328 13.1776 13.2763C13.2297 13.4198 13.3245 13.544 13.4491 13.6322C13.5737 13.7204 13.7223 13.7685 13.875 13.77C14.0502 13.7703 14.2201 13.7093 14.355 13.5975C14.9932 13.063 15.5132 12.4015 15.8819 11.6551C16.2506 10.9087 16.4599 10.0938 16.4966 9.2621C16.5333 8.43043 16.3965 7.60022 16.095 6.82428C15.7934 6.04833 15.3337 5.34363 14.745 4.75499ZM12.6225 6.87749C12.5526 6.80756 12.4696 6.75209 12.3782 6.71425C12.2868 6.6764 12.1889 6.65692 12.09 6.65692C11.9911 6.65692 11.8932 6.6764 11.8018 6.71425C11.7104 6.75209 11.6274 6.80756 11.5575 6.87749C11.4876 6.94742 11.4321 7.03044 11.3943 7.12181C11.3564 7.21317 11.3369 7.3111 11.3369 7.40999C11.3369 7.50889 11.3564 7.60681 11.3943 7.69818C11.4321 7.78955 11.4876 7.87256 11.5575 7.94249C11.8392 8.22251 11.9983 8.60281 12 8.99999C12.0002 9.2185 11.9526 9.43442 11.8606 9.63263C11.7687 9.83083 11.6345 10.0066 11.4675 10.1475C11.3916 10.2105 11.3288 10.2878 11.2828 10.375C11.2368 10.4623 11.2084 10.5578 11.1993 10.656C11.1903 10.7542 11.2007 10.8533 11.23 10.9475C11.2593 11.0417 11.3068 11.1292 11.37 11.205C11.4335 11.2804 11.5112 11.3425 11.5987 11.3879C11.6863 11.4332 11.7819 11.4608 11.8801 11.4692C11.9783 11.4776 12.0772 11.4665 12.1711 11.4366C12.2651 11.4067 12.3522 11.3586 12.4275 11.295C12.7628 11.0138 13.0326 10.6627 13.2179 10.2662C13.4031 9.86979 13.4994 9.4376 13.5 8.99999C13.4958 8.20508 13.1808 7.44333 12.6225 6.87749Z" fill="black"/>
</svg>
