<svg width="18" height="18" viewBox="0 0 18 18" fill="none" xmlns="http://www.w3.org/2000/svg">
<path d="M9.3225 3.07499C9.2007 3.0223 9.0671 3.00287 8.93534 3.01868C8.80358 3.03449 8.67837 3.08498 8.5725 3.16499L4.9875 5.99999H2.25C2.05109 5.99999 1.86032 6.07901 1.71967 6.21966C1.57902 6.36032 1.5 6.55108 1.5 6.74999V11.25C1.5 11.4489 1.57902 11.6397 1.71967 11.7803C1.86032 11.921 2.05109 12 2.25 12H4.9875L8.535 14.835C8.66695 14.9409 8.83083 14.999 9 15C9.11203 15.0018 9.22279 14.9761 9.3225 14.925C9.45013 14.8642 9.55798 14.7686 9.63362 14.6492C9.70926 14.5297 9.7496 14.3914 9.75 14.25V3.74999C9.7496 3.60863 9.70926 3.47026 9.63362 3.35083C9.55798 3.2314 9.45013 3.13578 9.3225 3.07499ZM8.25 12.69L5.715 10.665C5.58305 10.5591 5.41917 10.501 5.25 10.5H3V7.49999H5.25C5.41917 7.49901 5.58305 7.44086 5.715 7.33499L8.25 5.30999V12.69ZM14.9325 8.99999L16.2825 7.65749C16.3524 7.58756 16.4079 7.50455 16.4457 7.41318C16.4836 7.32181 16.5031 7.22389 16.5031 7.12499C16.5031 7.0261 16.4836 6.92817 16.4457 6.83681C16.4079 6.74544 16.3524 6.66242 16.2825 6.59249C16.2126 6.52256 16.1296 6.46709 16.0382 6.42925C15.9468 6.3914 15.8489 6.37192 15.75 6.37192C15.6511 6.37192 15.5532 6.3914 15.4618 6.42925C15.3704 6.46709 15.2874 6.52256 15.2175 6.59249L13.875 7.94249L12.5325 6.59249C12.3913 6.45127 12.1997 6.37192 12 6.37192C11.8003 6.37192 11.6087 6.45127 11.4675 6.59249C11.3263 6.73372 11.2469 6.92527 11.2469 7.12499C11.2469 7.32472 11.3263 7.51627 11.4675 7.65749L12.8175 8.99999L11.4675 10.3425C11.3972 10.4122 11.3414 10.4952 11.3033 10.5866C11.2653 10.678 11.2457 10.776 11.2457 10.875C11.2457 10.974 11.2653 11.072 11.3033 11.1634C11.3414 11.2548 11.3972 11.3378 11.4675 11.4075C11.5372 11.4778 11.6202 11.5336 11.7116 11.5717C11.803 11.6097 11.901 11.6293 12 11.6293C12.099 11.6293 12.197 11.6097 12.2884 11.5717C12.3798 11.5336 12.4628 11.4778 12.5325 11.4075L13.875 10.0575L15.2175 11.4075C15.2872 11.4778 15.3702 11.5336 15.4616 11.5717C15.553 11.6097 15.651 11.6293 15.75 11.6293C15.849 11.6293 15.947 11.6097 16.0384 11.5717C16.1298 11.5336 16.2128 11.4778 16.2825 11.4075C16.3528 11.3378 16.4086 11.2548 16.4467 11.1634C16.4847 11.072 16.5043 10.974 16.5043 10.875C16.5043 10.776 16.4847 10.678 16.4467 10.5866C16.4086 10.4952 16.3528 10.4122 16.2825 10.3425L14.9325 8.99999Z" fill="black"/>
</svg>
