<svg width="18" height="18" viewBox="0 0 18 18" fill="none" xmlns="http://www.w3.org/2000/svg">
<path fill-rule="evenodd" clip-rule="evenodd" d="M11.1501 9.85017H15.1001V3.50018H11.1501V9.85017ZM2.9001 14.5002H6.8501V3.5002H2.9001V14.5002ZM10.5001 2.20018H15.7501C15.9225 2.20018 16.0878 2.26867 16.2097 2.39056C16.3316 2.51246 16.4001 2.67779 16.4001 2.85018V10.5002C16.4001 10.6726 16.3316 10.8379 16.2097 10.9598C16.0878 11.0817 15.9225 11.1502 15.7501 11.1502H10.5001C10.3277 11.1502 10.1624 11.0817 10.0405 10.9598C9.91858 10.8379 9.8501 10.6726 9.8501 10.5002V2.85018C9.8501 2.67779 9.91858 2.51246 10.0405 2.39056C10.1624 2.26867 10.3277 2.20018 10.5001 2.20018ZM2.2501 2.2002H7.5001C7.67249 2.2002 7.83782 2.26868 7.95972 2.39058C8.08162 2.51247 8.1501 2.6778 8.1501 2.8502V15.1502C8.1501 15.3226 8.08162 15.4879 7.95972 15.6098C7.83782 15.7317 7.5001 15.6098 7.5001 15.8002H2.2501C2.07771 15.8002 1.91238 15.7317 1.79048 15.6098C1.66858 15.4879 1.6001 15.3226 1.6001 15.1502V2.8502C1.6001 2.6778 1.66858 2.51247 1.79048 2.39058C1.91238 2.26868 2.07771 2.2002 2.2501 2.2002Z" fill="#808080"/>
</svg>
