<svg width="18" height="18" viewBox="0 0 18 18" fill="none" xmlns="http://www.w3.org/2000/svg">
<path fill-rule="evenodd" clip-rule="evenodd" d="M5.26667 7.03333C6.24237 7.03333 7.03333 6.24237 7.03333 5.26667C7.03333 4.29096 6.24237 3.5 5.26667 3.5C4.29096 3.5 3.5 4.29096 3.5 5.26667C3.5 6.24237 4.29096 7.03333 5.26667 7.03333ZM8.53333 5.26667C8.53333 6.81239 7.45976 8.10736 6.01758 8.44661V10.8666C6.01758 11.0183 6.0819 11.2984 6.29172 11.5316C6.47991 11.7407 6.84906 11.9833 7.60091 11.9833H9.55332C9.89226 10.5407 11.1874 9.46667 12.7335 9.46667C14.5376 9.46667 16.0001 10.9292 16.0001 12.7333C16.0001 14.5375 14.5376 16 12.7335 16C11.1874 16 9.89219 14.926 9.55329 13.4833H7.60091C6.48609 13.4833 5.68858 13.1037 5.17677 12.535C4.68658 11.9904 4.51758 11.3372 4.51758 10.8666V8.44704C3.07448 8.10845 2 6.81304 2 5.26667C2 3.46254 3.46254 2 5.26667 2C7.0708 2 8.53333 3.46254 8.53333 5.26667ZM14.5001 12.7333C14.5001 13.709 13.7092 14.5 12.7335 14.5C11.7578 14.5 10.9668 13.709 10.9668 12.7333C10.9668 11.7576 11.7578 10.9667 12.7335 10.9667C13.7092 10.9667 14.5001 11.7576 14.5001 12.7333Z" fill="black"/>
</svg>
