<svg width="18" height="18" viewBox="0 0 18 18" fill="none" xmlns="http://www.w3.org/2000/svg">
<path fill-rule="evenodd" clip-rule="evenodd" d="M10.9667 12.7333C10.9667 11.7576 11.7576 10.9667 12.7333 10.9667C13.709 10.9667 14.5 11.7576 14.5 12.7333C14.5 13.709 13.709 14.5 12.7333 14.5C11.7576 14.5 10.9667 13.709 10.9667 12.7333ZM11.9824 9.55339C10.5402 9.89264 9.46667 11.1876 9.46667 12.7333C9.46667 14.5375 10.9292 16 12.7333 16C14.5375 16 16 14.5375 16 12.7333C16 11.187 14.9255 9.89155 13.4824 9.55296L13.4824 7.13338C13.4824 6.66279 13.3134 6.00964 12.8232 5.46499C12.3114 4.89632 11.5139 4.51671 10.3991 4.51671L8.44671 4.51671C8.10781 3.07405 6.8126 1.99999 5.26654 1.99999C3.4624 1.99999 1.99987 3.46253 1.99987 5.26666C1.99987 7.07079 3.46241 8.53333 5.26654 8.53333C6.81256 8.53333 8.10774 7.45932 8.44668 6.01671L10.3991 6.01671C11.1509 6.01671 11.5201 6.25933 11.7083 6.46844C11.9181 6.70156 11.9824 6.98174 11.9824 7.13338L11.9824 9.55339Z" fill="#808080"/>
</svg>
