<svg width="18" height="18" viewBox="0 0 18 18" fill="none" xmlns="http://www.w3.org/2000/svg">
<path fill-rule="evenodd" clip-rule="evenodd" d="M10.7318 8.35832C10.7322 8.46711 10.7112 8.57494 10.6697 8.6755C10.6283 8.77606 10.5674 8.86747 10.4905 8.94437C10.4134 9.02132 10.3221 9.08226 10.2216 9.12369C10.1209 9.16508 10.0122 9.18621 9.90348 9.18574C9.79473 9.1862 9.68696 9.16509 9.58632 9.12369C9.48574 9.08224 9.39434 9.02129 9.31743 8.94437C9.24049 8.86744 9.17952 8.776 9.13816 8.6755C9.09671 8.5749 9.07559 8.46692 9.07606 8.35817L9.07797 7.67515L9.07801 7.66745L9.07792 7.66443C9.03096 6.11185 7.52784 4.96702 5.92758 4.96702C4.17116 4.96702 2.74729 6.39088 2.74729 8.14731C2.74729 9.87228 4.12059 11.2765 5.83356 11.3263L5.8554 11.3262L6.01793 11.3263C6.05911 11.3263 6.0982 11.326 6.13298 11.3258L6.13413 11.3258C6.17196 11.3255 6.20465 11.3253 6.22932 11.3255C6.26422 11.3258 6.29944 11.3257 6.33321 11.3256L6.38168 11.3255L9.38061 11.3294L9.43982 11.3292C9.48261 11.329 9.53662 11.3288 9.6179 11.329L9.77356 11.3294L14.0951 11.333L12.8852 10.1231C12.7307 9.96855 12.6438 9.75894 12.6438 9.54038C12.6438 9.32182 12.7307 9.11221 12.8852 8.95766C13.0398 8.80312 13.2494 8.71629 13.4679 8.71629C13.6865 8.71629 13.8961 8.80312 14.0506 8.95766L16.664 11.571C16.739 11.6479 16.7986 11.7397 16.8387 11.8394C16.9219 12.0409 16.9216 12.2681 16.8383 12.4696C16.7982 12.5693 16.7385 12.6607 16.6635 12.7377L14.0506 15.3505C13.8961 15.5051 13.6865 15.5919 13.4679 15.5919C13.2494 15.5919 13.0398 15.5051 12.8852 15.3505C12.7307 15.196 12.6438 14.9864 12.6438 14.7678C12.6438 14.5492 12.7307 14.3396 12.8852 14.1851L14.0951 12.9752L5.85475 12.9819C5.83785 12.982 5.82213 12.9822 5.80694 12.9825C5.77398 12.983 5.74317 12.9835 5.70836 12.982C3.141 12.8706 1.09912 10.7431 1.09912 8.14731C1.09912 5.48062 3.2609 3.31885 5.92758 3.31885C8.46644 3.31885 10.6628 5.28844 10.7402 7.7505L10.7317 8.3565L10.7318 8.35832Z" fill="#F2994A"/>
</svg>
