<svg width="18" height="18" viewBox="0 0 18 18" fill="none" xmlns="http://www.w3.org/2000/svg">
<path d="M12 3H6C5.20435 3 4.44129 3.31607 3.87868 3.87868C3.31607 4.44129 3 5.20435 3 6V12C3 12.7956 3.31607 13.5587 3.87868 14.1213C4.44129 14.6839 5.20435 15 6 15H12C12.7956 15 13.5587 14.6839 14.1213 14.1213C14.6839 13.5587 15 12.7956 15 12V6C15 5.20435 14.6839 4.44129 14.1213 3.87868C13.5587 3.31607 12.7956 3 12 3ZM13.8 12C13.8 12.4774 13.6104 12.9352 13.2728 13.2728C12.9352 13.6104 12.4774 13.8 12 13.8H6C5.52261 13.8 5.06477 13.6104 4.72721 13.2728C4.38964 12.9352 4.2 12.4774 4.2 12V6C4.2 5.52261 4.38964 5.06477 4.72721 4.72721C5.06477 4.38964 5.52261 4.2 6 4.2H12C12.4774 4.2 12.9352 4.38964 13.2728 4.72721C13.6104 5.06477 13.8 5.52261 13.8 6V12Z" fill="#59CD8C"/>
<path fill-rule="evenodd" clip-rule="evenodd" d="M5.9998 2.7998H11.9998C12.8485 2.7998 13.6624 3.13695 14.2625 3.73706C14.8627 4.33718 15.1998 5.15111 15.1998 5.9998V11.9998C15.1998 12.8485 14.8627 13.6624 14.2625 14.2625C13.6624 14.8627 12.8485 15.1998 11.9998 15.1998H5.9998C5.15111 15.1998 4.33718 14.8627 3.73706 14.2625C3.13695 13.6624 2.7998 12.8485 2.7998 11.9998V5.9998C2.7998 5.15111 3.13695 4.33718 3.73706 3.73706C4.33718 3.13695 5.15111 2.7998 5.9998 2.7998ZM13.1312 13.1312C13.4312 12.8311 13.5998 12.4242 13.5998 11.9998V5.9998C13.5998 5.57546 13.4312 5.16849 13.1312 4.86843C12.8311 4.56838 12.4242 4.3998 11.9998 4.3998H5.9998C5.57546 4.3998 5.16849 4.56838 4.86843 4.86843C4.56838 5.16849 4.3998 5.57546 4.3998 5.9998V11.9998C4.3998 12.4242 4.56838 12.8311 4.86843 13.1312C5.16849 13.4312 5.57546 13.5998 5.9998 13.5998H11.9998C12.4242 13.5998 12.8311 13.4312 13.1312 13.1312ZM5.9998 2.9998H11.9998C12.7955 2.9998 13.5585 3.31588 14.1211 3.87848C14.6837 4.44109 14.9998 5.20416 14.9998 5.9998V11.9998C14.9998 12.7955 14.6837 13.5585 14.1211 14.1211C13.5585 14.6837 12.7955 14.9998 11.9998 14.9998H5.9998C5.20416 14.9998 4.44109 14.6837 3.87848 14.1211C3.31588 13.5585 2.9998 12.7955 2.9998 11.9998V5.9998C2.9998 5.20416 3.31588 4.44109 3.87848 3.87848C4.44109 3.31588 5.20416 2.9998 5.9998 2.9998ZM13.2726 13.2726C13.6102 12.935 13.7998 12.4772 13.7998 11.9998V5.9998C13.7998 5.52242 13.6102 5.06458 13.2726 4.72701C12.935 4.38945 12.4772 4.1998 11.9998 4.1998H5.9998C5.52242 4.1998 5.06458 4.38945 4.72701 4.72701C4.38945 5.06458 4.1998 5.52242 4.1998 5.9998V11.9998C4.1998 12.4772 4.38945 12.935 4.72701 13.2726C5.06458 13.6102 5.52242 13.7998 5.9998 13.7998H11.9998C12.4772 13.7998 12.935 13.6102 13.2726 13.2726Z" fill="#59CD8C"/>
</svg>
