<svg width="18" height="18" viewBox="0 0 18 18" fill="none" xmlns="http://www.w3.org/2000/svg">
<path fill-rule="evenodd" clip-rule="evenodd" d="M7.03333 5.26667C7.03333 6.24237 6.24237 7.03333 5.26667 7.03333C4.29096 7.03333 3.5 6.24237 3.5 5.26667C3.5 4.29096 4.29096 3.5 5.26667 3.5C6.24237 3.5 7.03333 4.29096 7.03333 5.26667ZM6.01758 8.44661C7.45976 8.10736 8.53333 6.81239 8.53333 5.26667C8.53333 3.46254 7.0708 2 5.26667 2C3.46254 2 2 3.46254 2 5.26667C2 6.81304 3.07448 8.10845 4.51758 8.44704V10.8666C4.51758 11.3372 4.68658 11.9904 5.17677 12.535C5.68858 13.1037 6.48609 13.4833 7.60091 13.4833H9.55329C9.89219 14.926 11.1874 16 12.7335 16C14.5376 16 16.0001 14.5375 16.0001 12.7333C16.0001 10.9292 14.5376 9.46667 12.7335 9.46667C11.1874 9.46667 9.89226 10.5407 9.55332 11.9833H7.60091C6.84906 11.9833 6.47991 11.7407 6.29172 11.5316C6.0819 11.2984 6.01758 11.0183 6.01758 10.8666V8.44661Z" fill="#808080"/>
</svg>
