<svg width="18" height="18" viewBox="0 0 18 18" fill="none" xmlns="http://www.w3.org/2000/svg">
<path d="M8.33822 6.25109L3.26557 10.6657C3.18142 10.7382 3.11463 10.8244 3.06905 10.9195C3.02347 11.0145 3 11.1165 3 11.2194C3 11.3224 3.02347 11.4243 3.06905 11.5194C3.11463 11.6144 3.18142 11.7007 3.26557 11.7732C3.43379 11.9185 3.66134 12 3.89853 12C4.13572 12 4.36327 11.9185 4.53149 11.7732L9.02056 7.9124L13.4647 11.7732C13.633 11.9185 13.8605 12 14.0977 12C14.3349 12 14.5624 11.9185 14.7307 11.7732C14.8155 11.701 14.883 11.6148 14.9292 11.5198C14.9754 11.4247 14.9995 11.3226 15 11.2194C14.9995 11.1162 14.9754 11.0141 14.9292 10.9191C14.883 10.824 14.8155 10.7379 14.7307 10.6657L9.65801 6.25109C9.57393 6.17192 9.4719 6.10874 9.35832 6.06553C9.24475 6.02231 9.1221 6 8.99811 6C8.87412 6 8.75148 6.02231 8.63791 6.06553C8.52433 6.10874 8.42229 6.17192 8.33822 6.25109Z" fill="#F2994A"/>
</svg>
