<svg width="18" height="18" viewBox="0 0 18 18" fill="none" xmlns="http://www.w3.org/2000/svg">
<path d="M9.66178 9.74891L14.7344 5.33435C14.8186 5.26184 14.8854 5.17557 14.931 5.08053C14.9765 4.98548 15 4.88354 15 4.78058C15 4.67761 14.9765 4.57567 14.931 4.48062C14.8854 4.38558 14.8186 4.29931 14.7344 4.22681C14.5662 4.08154 14.3387 4 14.1015 4C13.8643 4 13.6367 4.08154 13.4685 4.22681L8.97944 8.0876L4.53526 4.22681C4.36704 4.08154 4.13949 4 3.9023 4C3.66511 4 3.43756 4.08154 3.26934 4.22681C3.18451 4.29904 3.11702 4.38518 3.07079 4.48024C3.02455 4.5753 3.00049 4.67738 3 4.78058C3.00049 4.88377 3.02455 4.98585 3.07079 5.08091C3.11702 5.17597 3.18451 5.26211 3.26934 5.33435L8.34199 9.74891C8.42607 9.82808 8.5281 9.89126 8.64168 9.93447C8.75525 9.97769 8.8779 10 9.00189 10C9.12588 10 9.24852 9.97769 9.36209 9.93447C9.47567 9.89126 9.57771 9.82807 9.66178 9.74891Z" fill="#3C85E8"/>
<path d="M9.66178 14.7489L14.7344 10.3343C14.8186 10.2618 14.8854 10.1756 14.931 10.0805C14.9765 9.98548 15 9.88354 15 9.78058C15 9.67761 14.9765 9.57567 14.931 9.48062C14.8854 9.38558 14.8186 9.29931 14.7344 9.22681C14.5662 9.08154 14.3387 9 14.1015 9C13.8643 9 13.6367 9.08154 13.4685 9.22681L8.97944 13.0876L4.53526 9.22681C4.36704 9.08154 4.13949 9 3.9023 9C3.66511 9 3.43756 9.08154 3.26934 9.22681C3.18451 9.29904 3.11702 9.38518 3.07079 9.48024C3.02455 9.5753 3.00049 9.67738 3 9.78058C3.00049 9.88377 3.02455 9.98585 3.07079 10.0809C3.11702 10.176 3.18451 10.2621 3.26934 10.3343L8.34199 14.7489C8.42607 14.8281 8.5281 14.8913 8.64168 14.9345C8.75525 14.9777 8.8779 15 9.00189 15C9.12588 15 9.24852 14.9777 9.36209 14.9345C9.47567 14.8913 9.57771 14.8281 9.66178 14.7489Z" fill="#3C85E8"/>
</svg>
