<svg width="18" height="18" viewBox="0 0 18 18" fill="none" xmlns="http://www.w3.org/2000/svg">
<path fill-rule="evenodd" clip-rule="evenodd" d="M9.26667 7.03333C10.2424 7.03333 11.0333 6.24237 11.0333 5.26667C11.0333 4.29096 10.2424 3.5 9.26667 3.5C8.29096 3.5 7.5 4.29096 7.5 5.26667C7.5 6.24237 8.29096 7.03333 9.26667 7.03333ZM12.5333 5.26667C12.5333 6.81239 11.4598 8.10736 10.0176 8.44661V9.55352C11.4598 9.89277 12.5333 11.1877 12.5333 12.7335C12.5333 14.5376 11.0708 16.0001 9.26667 16.0001C7.46254 16.0001 6 14.5376 6 12.7335C6 11.1871 7.07448 9.89168 8.51758 9.55309V8.44704C7.07448 8.10845 6 6.81304 6 5.26667C6 3.46254 7.46254 2 9.26667 2C11.0708 2 12.5333 3.46254 12.5333 5.26667ZM11.0333 12.7335C11.0333 13.7092 10.2424 14.5001 9.26667 14.5001C8.29096 14.5001 7.5 13.7092 7.5 12.7335C7.5 11.7578 8.29096 10.9668 9.26667 10.9668C10.2424 10.9668 11.0333 11.7578 11.0333 12.7335Z" fill="black"/>
</svg>
