<svg width="18" height="18" viewBox="0 0 18 18" fill="none" xmlns="http://www.w3.org/2000/svg">
<path d="M9.66178 11.7489L14.7344 7.33435C14.8186 7.26184 14.8854 7.17557 14.931 7.08053C14.9765 6.98548 15 6.88354 15 6.78058C15 6.67761 14.9765 6.57567 14.931 6.48062C14.8854 6.38558 14.8186 6.29931 14.7344 6.22681C14.5662 6.08154 14.3387 6 14.1015 6C13.8643 6 13.6367 6.08154 13.4685 6.22681L8.97944 10.0876L4.53526 6.22681C4.36704 6.08154 4.13949 6 3.9023 6C3.66511 6 3.43756 6.08154 3.26934 6.22681C3.18451 6.29904 3.11702 6.38518 3.07079 6.48024C3.02455 6.5753 3.00049 6.67738 3 6.78058C3.00049 6.88377 3.02455 6.98585 3.07079 7.08091C3.11702 7.17597 3.18451 7.26211 3.26934 7.33435L8.34199 11.7489C8.42607 11.8281 8.5281 11.8913 8.64168 11.9345C8.75525 11.9777 8.8779 12 9.00189 12C9.12588 12 9.24852 11.9777 9.36209 11.9345C9.47567 11.8913 9.57771 11.8281 9.66178 11.7489Z" fill="#59CD8C"/>
</svg>
