<svg width="18" height="18" viewBox="0 0 18 18" fill="none" xmlns="http://www.w3.org/2000/svg">
<path d="M8.33822 8.25109L3.26557 12.6657C3.18142 12.7382 3.11463 12.8244 3.06905 12.9195C3.02347 13.0145 3 13.1165 3 13.2194C3 13.3224 3.02347 13.4243 3.06905 13.5194C3.11463 13.6144 3.18142 13.7007 3.26557 13.7732C3.43379 13.9185 3.66134 14 3.89853 14C4.13572 14 4.36327 13.9185 4.53149 13.7732L9.02056 9.9124L13.4647 13.7732C13.633 13.9185 13.8605 14 14.0977 14C14.3349 14 14.5624 13.9185 14.7307 13.7732C14.8155 13.701 14.883 13.6148 14.9292 13.5198C14.9754 13.4247 14.9995 13.3226 15 13.2194C14.9995 13.1162 14.9754 13.0141 14.9292 12.9191C14.883 12.824 14.8155 12.7379 14.7307 12.6657L9.65801 8.25109C9.57393 8.17192 9.4719 8.10874 9.35832 8.06553C9.24475 8.02231 9.1221 8 8.99811 8C8.87412 8 8.75148 8.02231 8.63791 8.06553C8.52433 8.10874 8.42229 8.17192 8.33822 8.25109Z" fill="#F44D5C"/>
<path d="M8.33822 3.25109L3.26557 7.66565C3.18142 7.73816 3.11463 7.82443 3.06905 7.91947C3.02347 8.01452 3 8.11646 3 8.21942C3 8.32239 3.02347 8.42433 3.06905 8.51938C3.11463 8.61442 3.18142 8.70069 3.26557 8.77319C3.43379 8.91846 3.66134 9 3.89853 9C4.13572 9 4.36327 8.91846 4.53149 8.77319L9.02056 4.9124L13.4647 8.77319C13.633 8.91846 13.8605 9 14.0977 9C14.3349 9 14.5624 8.91846 14.7307 8.77319C14.8155 8.70096 14.883 8.61482 14.9292 8.51976C14.9754 8.4247 14.9995 8.32262 15 8.21942C14.9995 8.11623 14.9754 8.01415 14.9292 7.91909C14.883 7.82403 14.8155 7.73789 14.7307 7.66565L9.65801 3.25109C9.57393 3.17192 9.4719 3.10874 9.35832 3.06553C9.24475 3.02231 9.1221 3 8.99811 3C8.87412 3 8.75148 3.02231 8.63791 3.06553C8.52433 3.10874 8.42229 3.17192 8.33822 3.25109Z" fill="#F44D5C"/>
</svg>
